<svg width="188" height="65" viewBox="0 0 188 65" fill="none" xmlns="http://www.w3.org/2000/svg">
<rect x="124" y="0.108398" width="64" height="64" rx="32" fill="#F9FBF3"/>
<path d="M163.385 24.1084H148.615C148.276 24.1084 148 24.3841 148 24.7238C148 25.0635 148.276 25.3392 148.615 25.3392H161.899L148.18 39.0579C147.94 39.2982 147.94 39.6878 148.18 39.9281C148.301 40.0484 148.458 40.1084 148.615 40.1084C148.773 40.1084 148.93 40.0484 149.05 39.9281L162.769 26.2093V39.493C162.769 39.8327 163.045 40.1084 163.385 40.1084C163.724 40.1084 164 39.8327 164 39.493V24.7238C164 24.3841 163.724 24.1084 163.385 24.1084Z" fill="#374836"/>
</svg>
