<?xml version="1.0" encoding="UTF-8"?><svg xmlns="http://www.w3.org/2000/svg" viewBox="0 0 451.3 392"><defs><style>.cls-1{mix-blend-mode:soft-light;}.cls-1,.cls-2{fill:#d4dbe4;}.cls-3{fill:#e3f4fc;}.cls-4{fill:#333544;}.cls-5{fill:#c1d9e0;}.cls-6{fill:#b2d53a;}.cls-7{fill:#393b4a;}.cls-8{fill:#35bddb;}.cls-9{fill:#2c3e52;}.cls-10{fill:#f5edea;}.cls-11{fill:#eaedf1;}.cls-12{fill:none;isolation:isolate;}.cls-13{fill:#f2f9fc;}</style></defs><g class="cls-12"><g id="Layer_2"><g id="_Ñëîé_1"><path class="cls-8" d="m235.01,361.4c-85.89,0-155.77-69.88-155.77-155.77S149.12,49.87,235.01,49.87s155.76,69.88,155.76,155.76-69.88,155.77-155.76,155.77Zm0-281.87c-69.54,0-126.11,56.57-126.11,126.11s56.57,126.11,126.11,126.11,126.11-56.57,126.11-126.11-56.57-126.11-126.11-126.11Z"/><path class="cls-8" d="m235.01,392c-102.76,0-186.37-83.6-186.37-186.37S132.24,19.27,235.01,19.27v3.3c-100.95,0-183.07,82.13-183.07,183.07s82.13,183.07,183.07,183.07c30.77,0,61.2-7.78,88-22.5l1.59,2.89c-27.29,14.99-58.27,22.91-89.59,22.91Z"/><path class="cls-8" d="m399.86,292.65l-2.91-1.54c13.83-26.14,21.14-55.7,21.14-85.48,0-78.92-50.26-148.72-125.07-173.69l1.04-3.13c76.16,25.42,127.32,96.48,127.32,176.82,0,30.31-7.44,60.4-21.52,87.02Z"/><path class="cls-8" d="m84.08,53.09c-9.33,0-16.91-7.59-16.91-16.91s7.59-16.91,16.91-16.91,16.91,7.59,16.91,16.91-7.59,16.91-16.91,16.91Zm0-30.53c-7.51,0-13.62,6.11-13.62,13.62s6.11,13.62,13.62,13.62,13.62-6.11,13.62-13.62-6.11-13.62-13.62-13.62Z"/><circle class="cls-8" cx="84.08" cy="36.18" r="9.99"/><path class="cls-3" d="m419.73,339.68c-5.96,0-10.81-4.85-10.81-10.81s4.85-10.81,10.81-10.81,10.81,4.85,10.81,10.81-4.85,10.81-10.81,10.81Zm0-19.98c-5.05,0-9.16,4.11-9.16,9.16s4.11,9.16,9.16,9.16,9.16-4.11,9.16-9.16-4.11-9.16-9.16-9.16Z"/><path class="cls-3" d="m426.26,328.86c0,3.61-2.93,6.54-6.54,6.54s-6.54-2.93-6.54-6.54,2.93-6.54,6.54-6.54,6.54,2.93,6.54,6.54Z"/><path class="cls-3" d="m318.62,88.44c-5.96,0-10.81-4.85-10.81-10.81s4.85-10.81,10.81-10.81,10.81,4.85,10.81,10.81-4.85,10.81-10.81,10.81Zm0-19.98c-5.05,0-9.16,4.11-9.16,9.16s4.11,9.16,9.16,9.16,9.17-4.11,9.17-9.16-4.11-9.16-9.17-9.16Z"/><path class="cls-3" d="m323.25,77.63c0,2.55-2.07,4.62-4.62,4.62s-4.62-2.07-4.62-4.62,2.07-4.62,4.62-4.62,4.62,2.07,4.62,4.62Z"/><path class="cls-8" d="m134.07,10.95c-.46,0-.82-.37-.82-.82V.82c0-.46.37-.82.82-.82s.82.37.82.82v9.31c0,.46-.37.82-.82.82Z"/><path class="cls-8" d="m134.07,27.82c-.46,0-.82-.37-.82-.82v-9.31c0-.46.37-.82.82-.82s.82.37.82.82v9.31c0,.45-.37.82-.82.82Z"/><path class="cls-8" d="m147.44,14.44h-9.31c-.46,0-.82-.37-.82-.82s.37-.82.82-.82h9.31c.45,0,.82.37.82.82s-.37.82-.82.82Z"/><path class="cls-8" d="m130,14.44h-9.31c-.45,0-.82-.37-.82-.82s.37-.82.82-.82h9.31c.46,0,.82.37.82.82s-.37.82-.82.82Z"/><path class="cls-8" d="m137.29,11.22c-.21,0-.42-.08-.58-.24-.32-.32-.32-.84,0-1.17l6.58-6.58c.32-.32.84-.32,1.17,0,.32.32.32.84,0,1.17l-6.58,6.58c-.16.16-.37.24-.58.24Z"/><path class="cls-8" d="m124.27,24.24c-.21,0-.42-.08-.58-.24-.32-.32-.32-.84,0-1.17l6.58-6.58c.32-.32.84-.32,1.17,0,.32.32.32.84,0,1.17l-6.58,6.58c-.16.16-.37.24-.58.24Z"/><path class="cls-8" d="m143.87,24.24c-.21,0-.42-.08-.58-.24l-6.58-6.58c-.32-.32-.32-.84,0-1.17.32-.32.84-.32,1.17,0l6.58,6.58c.32.32.32.84,0,1.17-.16.16-.37.24-.58.24Z"/><path class="cls-8" d="m130.85,11.22c-.21,0-.42-.08-.58-.24l-6.58-6.58c-.32-.32-.32-.84,0-1.17.32-.32.84-.32,1.17,0l6.58,6.58c.32.32.32.84,0,1.17-.16.16-.37.24-.58.24Z"/><path class="cls-8" d="m432.94,294.48c-.21,0-.42-.08-.58-.24-.32-.32-.32-.84,0-1.17l6.58-6.58c.32-.32.84-.32,1.17,0,.32.32.32.84,0,1.17l-6.58,6.58c-.16.16-.37.24-.58.24Z"/><path class="cls-8" d="m419.92,307.5c-.21,0-.42-.08-.58-.24-.32-.32-.32-.84,0-1.17l6.58-6.58c.32-.32.84-.32,1.17,0,.32.32.32.84,0,1.17l-6.58,6.58c-.16.16-.37.24-.58.24Z"/><path class="cls-8" d="m439.52,307.5c-.21,0-.42-.08-.58-.24l-6.58-6.58c-.32-.32-.32-.84,0-1.17.32-.32.84-.32,1.17,0l6.58,6.58c.32.32.32.84,0,1.17-.16.16-.37.24-.58.24Z"/><path class="cls-8" d="m426.5,294.48c-.21,0-.42-.08-.58-.24l-6.58-6.58c-.32-.32-.32-.84,0-1.17.32-.32.84-.32,1.17,0l6.58,6.58c.32.32.32.84,0,1.17-.16.16-.37.24-.58.24Z"/><path class="cls-8" d="m431.68,85.19c-.63,0-1.14-.51-1.14-1.14v-12.86c0-.63.51-1.14,1.14-1.14s1.14.51,1.14,1.14v12.86c0,.63-.51,1.14-1.14,1.14Z"/><path class="cls-8" d="m431.68,108.5c-.63,0-1.14-.51-1.14-1.14v-12.86c0-.63.51-1.14,1.14-1.14s1.14.51,1.14,1.14v12.86c0,.63-.51,1.14-1.14,1.14Z"/><path class="cls-8" d="m450.16,90.02h-12.86c-.63,0-1.14-.51-1.14-1.14s.51-1.14,1.14-1.14h12.86c.63,0,1.14.51,1.14,1.14s-.51,1.14-1.14,1.14Z"/><path class="cls-8" d="m426.05,90.02h-12.86c-.63,0-1.14-.51-1.14-1.14s.51-1.14,1.14-1.14h12.86c.63,0,1.14.51,1.14,1.14s-.51,1.14-1.14,1.14Z"/><path class="cls-8" d="m436.13,85.57c-.29,0-.58-.11-.81-.33-.44-.44-.44-1.17,0-1.61l9.09-9.09c.45-.44,1.17-.44,1.61,0,.44.44.44,1.17,0,1.61l-9.09,9.09c-.22.22-.51.33-.81.33Z"/><path class="cls-8" d="m418.13,103.56c-.29,0-.58-.11-.81-.33-.44-.44-.44-1.17,0-1.61l9.09-9.09c.45-.44,1.17-.44,1.61,0,.44.44.44,1.17,0,1.61l-9.09,9.09c-.22.22-.51.33-.81.33Z"/><path class="cls-8" d="m445.22,103.56c-.29,0-.58-.11-.81-.33l-9.09-9.09c-.44-.44-.44-1.17,0-1.61.45-.44,1.17-.44,1.61,0l9.09,9.09c.44.44.44,1.17,0,1.61-.22.22-.51.33-.81.33Z"/><path class="cls-8" d="m427.23,85.57c-.29,0-.58-.11-.81-.33l-9.09-9.09c-.44-.44-.44-1.17,0-1.61.45-.44,1.17-.44,1.61,0l9.09,9.09c.44.44.44,1.17,0,1.61-.22.22-.51.33-.81.33Z"/><path class="cls-8" d="m68.82,373.51c-.65,0-1.18-.53-1.18-1.18v-13.37c0-.65.53-1.18,1.18-1.18s1.18.53,1.18,1.18v13.37c0,.65-.53,1.18-1.18,1.18Z"/><path class="cls-8" d="m75.5,366.82h-13.37c-.65,0-1.18-.53-1.18-1.18s.53-1.18,1.18-1.18h13.37c.65,0,1.18.53,1.18,1.18s-.53,1.18-1.18,1.18Z"/><path class="cls-8" d="m13.52,186.14c-1.12,0-2.03-.91-2.03-2.03v-22.97c0-1.12.91-2.03,2.03-2.03s2.03.91,2.03,2.03v22.97c0,1.12-.91,2.03-2.03,2.03Z"/><path class="cls-8" d="m25.01,174.65H2.03c-1.12,0-2.03-.91-2.03-2.03s.91-2.03,2.03-2.03h22.97c1.12,0,2.03.91,2.03,2.03s-.91,2.03-2.03,2.03Z"/><path class="cls-3" d="m273.66,353.2c-.76,0-1.37-.61-1.37-1.37v-15.48c0-.76.61-1.37,1.37-1.37s1.37.61,1.37,1.37v15.48c0,.76-.61,1.37-1.37,1.37Z"/><path class="cls-3" d="m281.4,345.47h-15.48c-.76,0-1.37-.61-1.37-1.37s.61-1.37,1.37-1.37h15.48c.76,0,1.37.61,1.37,1.37s-.61,1.37-1.37,1.37Z"/><path class="cls-3" d="m29.38,250.84c-.76,0-1.37-.61-1.37-1.37v-15.48c0-.76.61-1.37,1.37-1.37s1.37.61,1.37,1.37v15.48c0,.76-.61,1.37-1.37,1.37Z"/><path class="cls-3" d="m37.12,243.1h-15.48c-.76,0-1.37-.61-1.37-1.37s.61-1.37,1.37-1.37h15.48c.76,0,1.37.61,1.37,1.37s-.61,1.37-1.37,1.37Z"/><path class="cls-3" d="m426.05,145.26c-.66,0-1.19-.53-1.19-1.19v-13.45c0-.66.53-1.19,1.19-1.19s1.19.53,1.19,1.19v13.45c0,.66-.53,1.19-1.19,1.19Z"/><path class="cls-3" d="m432.78,138.54h-13.45c-.66,0-1.19-.53-1.19-1.19s.53-1.19,1.19-1.19h13.45c.66,0,1.19.53,1.19,1.19s-.53,1.19-1.19,1.19Z"/><path class="cls-3" d="m48.48,137c-.96,0-1.93-.15-2.87-.44-5.08-1.58-7.93-6.99-6.35-12.07,1.58-5.08,6.99-7.93,12.07-6.35,2.46.76,4.48,2.44,5.68,4.72s1.44,4.89.68,7.35h0c-.76,2.46-2.44,4.48-4.72,5.68-1.41.74-2.94,1.11-4.48,1.11Zm0-17.65c-3.41,0-6.58,2.2-7.64,5.63-1.31,4.21,1.06,8.7,5.27,10.01,2.04.63,4.2.43,6.09-.56,1.89-1,3.28-2.67,3.91-4.71h0c.63-2.04.43-4.2-.56-6.09-.99-1.89-2.67-3.28-4.71-3.91-.79-.24-1.58-.36-2.37-.36Z"/><path class="cls-3" d="m45.86,135.78c-.53-.17-1.04-.38-1.51-.63-.02.05-.05.09-.06.15l-5.83,18.77c-.27.87.22,1.79,1.09,2.06.87.27,1.79-.22,2.06-1.09l5.83-18.77c.02-.05.02-.1.03-.15-.54-.06-1.07-.17-1.61-.33Z"/><path class="cls-3" d="m53.98,127.71c-.44,1.42-1.95,2.21-3.36,1.77s-2.21-1.95-1.77-3.36c.44-1.42,1.95-2.21,3.36-1.77s2.21,1.95,1.77,3.36Z"/><path class="cls-3" d="m363.51,368.45h-21.66c-1.26,0-2.29-1.03-2.29-2.29v-14.42c0-1.26,1.03-2.29,2.29-2.29h21.66c1.26,0,2.29,1.03,2.29,2.29v14.42c0,1.26-1.03,2.29-2.29,2.29Zm-21.66-17.34c-.35,0-.64.29-.64.64v14.42c0,.35.29.64.64.64h21.66c.35,0,.64-.29.64-.64v-14.42c0-.35-.29-.64-.64-.64h-21.66Z"/><path class="cls-3" d="m352.68,360.52c-.19,0-.39-.07-.54-.2l-10.83-9.41c-.26-.23-.35-.59-.23-.91.12-.32.43-.54.77-.54h21.66c.34,0,.65.21.77.54.12.32.03.69-.23.91l-10.83,9.41c-.16.13-.35.2-.54.2Zm-8.63-9.41l8.63,7.5,8.63-7.5h-17.25Z"/><circle class="cls-13" cx="382.37" cy="51.52" r="37.36" transform="translate(245.72 412.33) rotate(-76.93)"/><polygon class="cls-13" points="345 51.52 345 88.88 385.83 88.71 345 51.52"/><path class="cls-5" d="m369.92,53.09c0,3.79-3.07,6.86-6.86,6.86s-6.86-3.07-6.86-6.86,3.07-6.86,6.86-6.86,6.86,3.07,6.86,6.86Z"/><path class="cls-5" d="m389.92,53.09c0,3.79-3.07,6.86-6.86,6.86s-6.86-3.07-6.86-6.86,3.07-6.86,6.86-6.86,6.86,3.07,6.86,6.86Z"/><path class="cls-5" d="m409.92,53.09c0,3.79-3.07,6.86-6.86,6.86s-6.86-3.07-6.86-6.86,3.07-6.86,6.86-6.86,6.86,3.07,6.86,6.86Z"/><rect class="cls-13" x="20.27" y="275" width="99.59" height="59.98" rx="29.99" ry="29.99" transform="translate(140.14 609.99) rotate(180)"/><polygon class="cls-13" points="82.5 275 119.87 275 119.73 307.77 82.5 275"/><path class="cls-5" d="m56.93,304.99c0,3.79-3.07,6.86-6.86,6.86s-6.86-3.07-6.86-6.86,3.07-6.86,6.86-6.86,6.86,3.07,6.86,6.86Z"/><path class="cls-5" d="m76.93,304.99c0,3.79-3.07,6.86-6.86,6.86s-6.86-3.07-6.86-6.86,3.07-6.86,6.86-6.86,6.86,3.07,6.86,6.86Z"/><path class="cls-5" d="m96.93,304.99c0,3.79-3.07,6.86-6.86,6.86s-6.86-3.07-6.86-6.86,3.07-6.86,6.86-6.86,6.86,3.07,6.86,6.86Z"/><rect class="cls-9" x="146.95" y="38.41" width="172.21" height="315.19" rx="12" ry="12"/><rect class="cls-10" x="158.67" y="59.86" width="148.77" height="254.14" rx="2.6" ry="2.6"/><rect class="cls-10" x="204.46" y="327.37" width="57.19" height="15.23" rx="2.43" ry="2.43"/><path class="cls-10" d="m255.77,51.86h-49.68c-1.56,0-2.84-1.28-2.84-2.84h0c0-1.56,1.28-2.84,2.84-2.84h49.68c1.56,0,2.84,1.28,2.84,2.84h0c0,1.56-1.28,2.84-2.84,2.84Z"/><path class="cls-10" d="m263.93,51.86h0c-1.56,0-2.84-1.28-2.84-2.84h0c0-1.56,1.28-2.84,2.84-2.84h0c1.56,0,2.84,1.28,2.84,2.84h0c0,1.56-1.28,2.84-2.84,2.84Z"/><path class="cls-6" d="m230.58,118.51c42.15,0,74.08,24.13,77.86,64.9,0,0,5.16,61.36-34.94,90.11-.51.37-1.21-.05-1.09-.68,1.41-7.27,3.14-16.75,1.32-24.07-.72-2.9-1.88-4.85-4.72-5.74-3.2-1.01-6.57.53-9.66,1.82-26.44,11.04-57.41,5.13-79.45-13.04-14.48-11.95-23.28-28.56-23.28-47.59,0-36.87,31.82-65.71,73.96-65.71Z"/><path class="cls-11" d="m263.17,195.88c-3.52-2.87-3.13-13.07,0-16.23,1.65-1.67,8.65-1.51,10.5,0,3.52,2.87,3.87,13.68,0,16.23-2.04,1.35-8.65,1.51-10.5,0Z"/><path class="cls-2" d="m261.29,198.08c-2.49-3.56-2.21-16.2,0-20.12,1.17-2.06,6.12-1.88,7.43,0,2.49,3.56,2.74,16.95,0,20.12-1.44,1.67-6.12,1.88-7.43,0Z"/><path class="cls-1" d="m273.67,179.65c-.98-.8-3.4-1.22-5.71-1.19,1.89.11,3.66.51,4.47,1.16,3.52,2.87,3.87,13.68,0,16.23-1.02.67-3.17,1.05-5.3,1.07,2.49.14,5.32-.24,6.54-1.04,3.87-2.55,3.52-13.36,0-16.23Z"/><path class="cls-11" d="m228.54,138.31c-.62-.73-.99-1.68-.99-2.71,0-2.33,1.9-4.23,4.23-4.23s4.23,1.9,4.23,4.23c0,.98-.34,1.88-.9,2.6.06.06.13.13.19.19.61-.77.98-1.74.98-2.79,0-2.48-2.02-4.5-4.5-4.5s-4.5,2.02-4.5,4.5c0,1.1.4,2.11,1.06,2.9l.19-.19Z"/><path class="cls-11" d="m229.63,137.21c-.34-.45-.54-1.01-.54-1.62,0-1.48,1.21-2.69,2.69-2.69s2.69,1.21,2.69,2.69c0,.56-.17,1.07-.46,1.5l.12.12c.32-.46.51-1.02.51-1.62,0-1.58-1.28-2.86-2.86-2.86s-2.86,1.28-2.86,2.86c0,.65.22,1.25.59,1.74l.12-.12Z"/><path class="cls-11" d="m227.36,139.49c-.92-1.04-1.47-2.4-1.47-3.89,0-3.25,2.65-5.9,5.9-5.9s5.9,2.65,5.9,5.9c0,1.44-.52,2.76-1.38,3.79l.26.26c.93-1.09,1.49-2.51,1.49-4.05,0-3.46-2.81-6.27-6.27-6.27s-6.27,2.81-6.27,6.27c0,1.59.6,3.05,1.58,4.15l.26-.26Z"/><path class="cls-4" d="m233.1,136.64c0-.73-.59-1.32-1.32-1.32s-1.32.59-1.32,1.32c0,.59.38,1.09.92,1.26l-.78,34.08s0,.04,0,.05c.02.66.56,1.18,1.22,1.16.66-.02,1.18-.56,1.16-1.22l-.78-34.08c.53-.17.92-.67.92-1.26Z"/><path class="cls-11" d="m239.95,164.54c-2.87,3.52-13.07,3.13-16.23,0-1.67-1.65-1.51-8.65,0-10.5,2.87-3.52,13.68-3.87,16.23,0,1.35,2.04,1.51,8.65,0,10.5Z"/><path class="cls-1" d="m239.95,154.04c-1.39-2.11-5.23-2.96-8.9-2.74,2.88.18,5.52,1.06,6.62,2.74,1.35,2.04,1.51,8.65,0,10.5-1.23,1.5-3.8,2.29-6.58,2.46,3.58.21,7.31-.55,8.87-2.46,1.51-1.86,1.35-8.46,0-10.5Z"/><path class="cls-2" d="m201.86,179.53c3.52,2.87,3.13,13.07,0,16.23-1.65,1.67-8.65,1.51-10.5,0-3.52-2.87-3.87-13.68,0-16.23,2.04-1.35,8.65-1.51,10.5,0Z"/><path class="cls-4" d="m259.22,202.57c-9.42,10.05-42.93,8.93-53.3,0-5.47-4.71-4.97-24.69,0-30,9.42-10.05,44.92-11.05,53.3,0,4.42,5.83,4.97,24.69,0,30Z"/><path class="cls-6" d="m232.37,202.73c-4.6,0-8.34-3.18-8.34-7.08,0-.66.53-1.19,1.19-1.19s1.19.53,1.19,1.19c0,2.59,2.67,4.7,5.95,4.7s5.95-2.11,5.95-4.7c0-.66.53-1.19,1.19-1.19s1.19.53,1.19,1.19c0,3.9-3.74,7.08-8.34,7.08Z"/><ellipse class="cls-6" cx="219.9" cy="179.43" rx="3.78" ry="4.7"/><ellipse class="cls-6" cx="244.85" cy="179.43" rx="3.78" ry="4.7"/><rect class="cls-7" x="202.88" y="177.33" width="60.37" height=".26"/><rect class="cls-7" x="202.88" y="176.45" width="60.37" height=".26"/><rect class="cls-7" x="202.88" y="175.57" width="60.37" height=".26"/><rect class="cls-7" x="202.88" y="174.69" width="60.37" height=".26"/><rect class="cls-7" x="202.88" y="173.92" width="60.37" height=".26"/><rect class="cls-7" x="202.88" y="173.04" width="60.37" height=".26"/><rect class="cls-7" x="202.88" y="172.16" width="60.37" height=".26"/><rect class="cls-7" x="202.88" y="171.28" width="60.37" height=".26"/><rect class="cls-7" x="202.88" y="170.49" width="60.37" height=".26"/><rect class="cls-7" x="202.88" y="169.61" width="60.37" height=".26"/><rect class="cls-7" x="202.88" y="168.73" width="60.37" height=".26"/><rect class="cls-7" x="202.88" y="167.85" width="60.37" height=".26"/><rect class="cls-7" x="202.88" y="167.08" width="60.37" height=".26"/><rect class="cls-7" x="202.88" y="166.2" width="60.37" height=".26"/><rect class="cls-7" x="202.88" y="165.32" width="60.37" height=".26"/><rect class="cls-7" x="202.88" y="164.44" width="60.37" height=".26"/><rect class="cls-7" x="202.88" y="191.1" width="60.37" height=".26"/><rect class="cls-7" x="202.88" y="190.22" width="60.37" height=".26"/><rect class="cls-7" x="202.88" y="189.34" width="60.37" height=".26"/><rect class="cls-7" x="202.88" y="188.46" width="60.37" height=".26"/><rect class="cls-7" x="202.88" y="187.7" width="60.37" height=".26"/><rect class="cls-7" x="202.88" y="186.82" width="60.37" height=".26"/><rect class="cls-7" x="202.88" y="185.94" width="60.37" height=".26"/><rect class="cls-7" x="202.88" y="185.06" width="60.37" height=".26"/><rect class="cls-7" x="202.88" y="184.26" width="60.37" height=".26"/><rect class="cls-7" x="202.88" y="183.38" width="60.37" height=".26"/><rect class="cls-7" x="202.88" y="182.5" width="60.37" height=".26"/><rect class="cls-7" x="202.88" y="181.62" width="60.37" height=".26"/><rect class="cls-7" x="202.88" y="180.85" width="60.37" height=".26"/><rect class="cls-7" x="202.88" y="179.97" width="60.37" height=".26"/><rect class="cls-7" x="202.88" y="179.09" width="60.37" height=".26"/><rect class="cls-7" x="202.88" y="178.21" width="60.37" height=".26"/><rect class="cls-7" x="202.88" y="204.88" width="60.37" height=".26"/><rect class="cls-7" x="202.88" y="204" width="60.37" height=".26"/><rect class="cls-7" x="202.88" y="203.12" width="60.37" height=".26"/><rect class="cls-7" x="202.88" y="202.24" width="60.37" height=".26"/><rect class="cls-7" x="202.88" y="201.47" width="60.37" height=".26"/><rect class="cls-7" x="202.88" y="200.59" width="60.37" height=".26"/><rect class="cls-7" x="202.88" y="199.71" width="60.37" height=".26"/><rect class="cls-7" x="202.88" y="198.83" width="60.37" height=".26"/><rect class="cls-7" x="202.88" y="198.03" width="60.37" height=".26"/><rect class="cls-7" x="202.88" y="197.15" width="60.37" height=".26"/><rect class="cls-7" x="202.88" y="196.27" width="60.37" height=".26"/><rect class="cls-7" x="202.88" y="195.39" width="60.37" height=".26"/><rect class="cls-7" x="202.88" y="194.62" width="60.37" height=".26"/><rect class="cls-7" x="202.88" y="193.74" width="60.37" height=".26"/><rect class="cls-7" x="202.88" y="192.86" width="60.37" height=".26"/><rect class="cls-7" x="202.88" y="191.98" width="60.37" height=".26"/><rect class="cls-7" x="202.88" y="210.98" width="60.37" height=".26"/><rect class="cls-7" x="202.88" y="210.1" width="60.37" height=".26"/><rect class="cls-7" x="202.88" y="209.22" width="60.37" height=".26"/><rect class="cls-7" x="202.88" y="208.45" width="60.37" height=".26"/><rect class="cls-7" x="202.88" y="207.57" width="60.37" height=".26"/><rect class="cls-7" x="202.88" y="206.69" width="60.37" height=".26"/><rect class="cls-7" x="202.88" y="205.81" width="60.37" height=".26"/><path class="cls-11" d="m265.51,167.09c-10.34-15.69-54.16-14.26-65.78,0-6.14,7.53-6.75,35.89,0,42.59,12.79,12.68,54.16,14.26,65.78,0,6.14-7.53,5.46-34.3,0-42.59Zm-6.29,35.48c-9.42,10.05-42.93,8.93-53.3,0-5.47-4.71-4.97-24.69,0-30,9.42-10.05,44.92-11.05,53.3,0,4.42,5.83,4.97,24.69,0,30Z"/><path class="cls-2" d="m259.22,202.57c-9.42,10.05-42.93,8.93-53.3,0-2.41-2.08-3.67-7.14-3.88-12.59-.26,6.68.96,13.57,3.88,16.09,10.36,8.93,43.88,10.05,53.3,0,2.65-2.83,3.73-9.51,3.49-16.02-.2,5.28-1.32,10.2-3.49,12.52Z"/></g></g></g></svg>