<?xml version="1.0" encoding="UTF-8"?><svg id="Layer_2" xmlns="http://www.w3.org/2000/svg" viewBox="0 0 4407.41 2703.93"><defs><style>.cls-1{fill:#a4d71c;}.cls-2{letter-spacing:0em;}.cls-2,.cls-3{font-family:TitilliumWeb-Bold, 'Titillium Web';font-weight:700;}.cls-4,.cls-5{fill:#004a63;}.cls-5{font-size:560px;}.cls-6{font-family:TitilliumWeb-Regular, 'Titillium Web';}</style></defs><g id="Layer_1-2"><path class="cls-4" d="m3108.15,966.64c0,396.26-238.34,736.7-579.44,885.85,67.22-285.67,47.71-514.39-3.77-689.18-45.44-154.33-139.44-282.84-261.44-372.12l118.32-183.28c39.22,6.03,80.23-10.84,103.14-46.29,31.02-48.18,17.16-112.47-31.02-143.49-48.18-31.11-112.38-17.25-143.49,30.92-22.82,35.54-21.31,79.67.38,112.95l-118.32,183.37c-131.61-74.29-287.36-106.91-446.69-84.66-164.61,22.91-359.02,88.53-568.41,235.6C1213.42,395.22,1631.36,0,2141.5,0s966.64,432.74,966.64,966.64Z"/><path class="cls-1" d="m2371.83,1747.18c-32.43,122.56-163.76,188.18-275.96,129.26-97.39-51.1-158.48-209.39-345.82-330.26-187.24-120.77-390.41-132.93-477.15-200.63-13.86-10.75-25.64-22.91-35.45-36.01-26.59-35.26-38.56-77.59-36.68-119.83,2.45-54.96,28.28-109.83,76.18-148.87,188.37-153.58,364.01-217.41,509.2-237.68,117.57-16.4,232.59,6.51,330.73,59.49,24.8,13.39,48.55,28.66,70.99,45.82,88.72,67.6,157.07,162.91,190.54,276.8,41.39,140.57,55.62,326.96-6.6,561.9Z"/><path class="cls-4" d="m1772.85,1096.44l-61.47,95.28c-13.31,20.63-40.78,26.56-61.33,13.3-20.63-13.31-26.56-40.78-13.25-61.41l61.47-95.28c13.26-20.55,40.73-26.48,61.36-13.17,10.27,6.63,16.89,16.81,19.29,27.9,2.39,11.09.56,23.1-6.07,33.37Z"/><path class="cls-4" d="m2191.32,1366.4l-61.47,95.28c-13.31,20.63-40.78,26.56-61.33,13.3-20.63-13.31-26.55-40.78-13.25-61.41l61.47-95.28c13.26-20.55,40.73-26.48,61.36-13.17,10.28,6.63,16.89,16.81,19.29,27.9,2.39,11.09.56,23.1-6.07,33.37Z"/><text class="cls-5" transform="translate(32.22 2529.77)"><tspan class="cls-3" x="0" y="0">DIA</tspan><tspan class="cls-2" x="854.54" y="0">L</tspan><tspan class="cls-3" x="1115.5" y="0">OGIX</tspan><tspan class="cls-6" x="2301.56" y="0" xml:space="preserve"> STUDIO </tspan></text></g></svg>