<?xml version="1.0" encoding="UTF-8"?><svg xmlns="http://www.w3.org/2000/svg" xmlns:xlink="http://www.w3.org/1999/xlink" viewBox="0 0 351.8 411.12"><defs><style>.cls-1,.cls-2,.cls-3,.cls-4,.cls-5{fill:#2580d3;}.cls-1,.cls-6,.cls-7,.cls-8,.cls-9{opacity:.3;}.cls-10{opacity:.8;}.cls-10,.cls-11,.cls-12,.cls-13,.cls-14,.cls-15{fill:#48d8f5;}.cls-16{fill:url(#linear-gradient-2);}.cls-17{fill:url(#radial-gradient-7);}.cls-18{fill:url(#linear-gradient-3);opacity:.86;}.cls-18,.cls-19,.cls-20,.cls-21,.cls-22,.cls-23,.cls-9,.cls-24,.cls-25,.cls-26,.cls-27,.cls-28{mix-blend-mode:multiply;}.cls-19{fill:url(#linear-gradient-8);}.cls-19,.cls-21,.cls-22,.cls-23,.cls-5,.cls-25,.cls-26{opacity:.7;}.cls-29,.cls-30,.cls-8{fill:#51ffff;}.cls-29,.cls-20,.cls-2,.cls-13{opacity:.2;}.cls-30{opacity:.55;}.cls-11{opacity:.6;}.cls-31{fill:url(#linear-gradient-15);}.cls-31,.cls-32,.cls-33,.cls-6,.cls-7,.cls-34,.cls-35,.cls-36{mix-blend-mode:color-dodge;}.cls-32,.cls-7,.cls-37{fill:#1ed6fe;}.cls-38{fill:url(#radial-gradient-5);}.cls-39{fill:url(#radial-gradient-4);}.cls-40{fill:#fff;}.cls-40,.cls-12,.cls-37{opacity:.1;}.cls-33{fill:url(#linear-gradient-13);}.cls-6,.cls-36{fill:#07b3fa;}.cls-21{fill:url(#linear-gradient-9);}.cls-41{fill:url(#radial-gradient-6);}.cls-34{fill:url(#_2);}.cls-22{fill:url(#linear-gradient-7);}.cls-42{fill:url(#radial-gradient);}.cls-35{fill:url(#linear-gradient-12);}.cls-43{fill:#034aa2;}.cls-44{fill:#5da5fd;}.cls-23{fill:url(#linear-gradient-6);}.cls-45{isolation:isolate;}.cls-45,.cls-46{fill:none;}.cls-47{fill:url(#linear-gradient-17);}.cls-47,.cls-48,.cls-49,.cls-50{mix-blend-mode:screen;opacity:.14;}.cls-14{opacity:.4;}.cls-46,.cls-4,.cls-24,.cls-28{opacity:.5;}.cls-48{fill:url(#_2-2);}.cls-51{fill:url(#radial-gradient-2);}.cls-52{fill:url(#radial-gradient-3);}.cls-9,.cls-53{fill:#0a208f;}.cls-24{fill:url(#linear-gradient-5);}.cls-49{fill:url(#_2-3);}.cls-25{fill:url(#linear-gradient-11);}.cls-54{fill:url(#linear-gradient);}.cls-26{fill:url(#linear-gradient-10);}.cls-27{fill:url(#linear-gradient-14);}.cls-50{fill:url(#linear-gradient-16);}.cls-28{fill:url(#linear-gradient-4);}</style><radialGradient id="radial-gradient" cx="-1902.98" cy="260.98" fx="-1902.98" fy="260.98" r="147.57" gradientTransform="translate(-1726.47) rotate(-180) scale(1 -1)" gradientUnits="userSpaceOnUse"><stop offset="0" stop-color="#328de0"/><stop offset="1" stop-color="#172d9c"/></radialGradient><linearGradient id="linear-gradient" x1="-1780.92" y1="212.38" x2="-2038.81" y2="628.08" gradientTransform="translate(-1726.47) rotate(-180) scale(1 -1)" gradientUnits="userSpaceOnUse"><stop offset="0" stop-color="#328de0"/><stop offset="1" stop-color="#172d9c"/></linearGradient><linearGradient id="linear-gradient-2" x1="-1777.64" y1="207.66" x2="-2003.62" y2="596.11" gradientTransform="translate(-1726.47) rotate(-180) scale(1 -1)" gradientUnits="userSpaceOnUse"><stop offset="0" stop-color="#004ea1"/><stop offset="1" stop-color="#00005d"/></linearGradient><linearGradient id="linear-gradient-3" x1="-1894.16" y1="-.45" x2="-1894.16" y2="339.99" gradientTransform="translate(-1726.47) rotate(-180) scale(1 -1)" gradientUnits="userSpaceOnUse"><stop offset="0" stop-color="#fff"/><stop offset="1" stop-color="#48d8f5"/></linearGradient><linearGradient id="linear-gradient-4" x1="-1949.03" y1="178.74" x2="-1949.03" y2="69.99" xlink:href="#linear-gradient-3"/><linearGradient id="linear-gradient-5" x1="-1833.69" y1="229.99" x2="-1833.69" y2="70.51" xlink:href="#linear-gradient-3"/><linearGradient id="linear-gradient-6" x1="-1851.5" y1="253.55" x2="-1851.5" y2="116.65" xlink:href="#linear-gradient-3"/><linearGradient id="linear-gradient-7" x1="-1960.78" y1="138.12" x2="-1960.78" y2="1.22" xlink:href="#linear-gradient-3"/><linearGradient id="linear-gradient-8" x1="-1861.57" y1="134.38" x2="-1861.57" y2="-3.38" xlink:href="#linear-gradient-3"/><linearGradient id="linear-gradient-9" x1="-1847.28" y1="91.63" x2="-1847.28" y2="16.67" xlink:href="#linear-gradient-3"/><linearGradient id="linear-gradient-10" y1="230.22" y2="155.26" xlink:href="#linear-gradient-3"/><linearGradient id="linear-gradient-11" x1="-1938.98" y1="275" x2="-1938.98" y2="137.24" xlink:href="#linear-gradient-3"/><radialGradient id="radial-gradient-2" cx="-1923.49" cy="182.46" fx="-1923.49" fy="182.46" r="20.15" gradientTransform="translate(-1726.47) rotate(-180) scale(1 -1)" gradientUnits="userSpaceOnUse"><stop offset="0" stop-color="#5abeff"/><stop offset="1" stop-color="#243aa9"/></radialGradient><linearGradient id="linear-gradient-12" x1="-1927.54" y1="202.78" x2="-1919.6" y2="182.46" gradientTransform="translate(-1726.47) rotate(-180) scale(1 -1)" gradientUnits="userSpaceOnUse"><stop offset="0" stop-color="#fff"/><stop offset=".1" stop-color="#cfcfcf"/><stop offset=".23" stop-color="#999"/><stop offset=".37" stop-color="#6a6a6a"/><stop offset=".5" stop-color="#444"/><stop offset=".63" stop-color="#262626"/><stop offset=".76" stop-color="#111"/><stop offset=".88" stop-color="#040404"/><stop offset="1" stop-color="#000"/></linearGradient><radialGradient id="radial-gradient-3" cx="-1892.82" cy="198.23" fx="-1892.82" fy="198.23" r="58.67" xlink:href="#radial-gradient-2"/><linearGradient id="linear-gradient-13" x1="-1913.54" y1="263.36" x2="-1891.4" y2="199.1" gradientTransform="translate(-1726.47) rotate(-180) scale(1 -1)" gradientUnits="userSpaceOnUse"><stop offset="0" stop-color="#fff"/><stop offset=".15" stop-color="#dedede"/><stop offset=".48" stop-color="#8c8c8c"/><stop offset=".97" stop-color="#090909"/><stop offset="1" stop-color="#000"/></linearGradient><radialGradient id="radial-gradient-4" cx="-1901.09" cy="142.87" fx="-1901.09" fy="142.87" r="66.16" xlink:href="#radial-gradient-2"/><linearGradient id="_2" x1="-1914.39" y1="209.61" x2="-1892.86" y2="154.51" gradientTransform="translate(-1726.47) rotate(-180) scale(1 -1)" gradientUnits="userSpaceOnUse"><stop offset="0" stop-color="#fff"/><stop offset="1" stop-color="#000"/></linearGradient><linearGradient id="linear-gradient-14" x1="-1903.56" y1="175.11" x2="-1898.88" y2="150.9" gradientTransform="translate(-1726.47) rotate(-180) scale(1 -1)" gradientUnits="userSpaceOnUse"><stop offset="0" stop-color="#fff"/><stop offset="1" stop-color="#0a208f"/></linearGradient><radialGradient id="radial-gradient-5" cx="-1956.58" cy="192.72" fx="-1956.58" fy="192.72" r="44.68" gradientTransform="translate(-1726.47) rotate(-180) scale(1 -1)" gradientUnits="userSpaceOnUse"><stop offset="0" stop-color="#40a4ff"/><stop offset=".51" stop-color="#2767cb"/><stop offset="1" stop-color="#0a208f"/></radialGradient><radialGradient id="radial-gradient-6" cx="-1853.5" cy="236.11" fx="-1853.5" fy="236.11" r="60.75" gradientTransform="translate(-1726.47) rotate(-180) scale(1 -1)" gradientUnits="userSpaceOnUse"><stop offset="0" stop-color="#40a4ff"/><stop offset="1" stop-color="#0a208f"/></radialGradient><radialGradient id="radial-gradient-7" cx="-1870.51" cy="201.93" fx="-1870.51" fy="201.93" r="20.15" xlink:href="#radial-gradient-2"/><linearGradient id="linear-gradient-15" x1="-1874.56" y1="222.25" x2="-1866.62" y2="201.93" xlink:href="#linear-gradient-12"/><linearGradient id="linear-gradient-16" x1="-1899.51" y1="293.29" x2="-1899.51" y2="109.21" gradientTransform="translate(-1726.47) rotate(-180) scale(1 -1)" gradientUnits="userSpaceOnUse"><stop offset="0" stop-color="#1ed6fe"/><stop offset="1" stop-color="#000"/></linearGradient><linearGradient id="_2-2" x1="-1899.51" y1="291.45" x2="-1899.51" y2="117.69" xlink:href="#_2"/><linearGradient id="linear-gradient-17" x1="-1899.51" y1="204.42" x2="-1899.51" y2="47.77" xlink:href="#linear-gradient-16"/><linearGradient id="_2-3" x1="-1899.51" y1="202.86" x2="-1899.51" y2="54.99" xlink:href="#_2"/></defs><g class="cls-45"><g id="Layer_2"><g id="Layer_1-2"><path class="cls-15" d="m122.47,370.08c1.85,1.12,3.38.27,3.43-1.89.04-2.16-1.42-4.82-3.28-5.93-1.85-1.12-3.38-.27-3.43,1.89-.04,2.16,1.43,4.82,3.28,5.93Z"/><path class="cls-10" d="m108.67,361.75c1.85,1.12,3.38.27,3.43-1.89.04-2.16-1.42-4.82-3.27-5.93-1.85-1.12-3.38-.27-3.43,1.89-.04,2.16,1.43,4.82,3.28,5.93Z"/><path class="cls-11" d="m94.86,353.42c1.85,1.12,3.38.27,3.43-1.89.04-2.16-1.42-4.82-3.28-5.93-1.85-1.12-3.38-.27-3.42,1.89-.04,2.16,1.43,4.82,3.28,5.93Z"/><path class="cls-14" d="m81.05,345.1c1.85,1.12,3.38.27,3.42-1.89.04-2.16-1.42-4.82-3.28-5.93-1.85-1.12-3.38-.27-3.43,1.89-.04,2.16,1.43,4.82,3.28,5.93Z"/><path class="cls-13" d="m67.25,336.77c1.85,1.12,3.38.27,3.42-1.89.04-2.16-1.42-4.82-3.27-5.93-1.85-1.12-3.39-.27-3.43,1.89-.04,2.16,1.43,4.82,3.28,5.93Z"/><path class="cls-12" d="m53.44,328.44c1.85,1.12,3.38.27,3.42-1.89.04-2.16-1.42-4.82-3.28-5.93-1.85-1.11-3.38-.27-3.43,1.89-.04,2.16,1.43,4.82,3.28,5.93Z"/><path class="cls-12" d="m39.63,320.11c1.85,1.12,3.38.27,3.43-1.89.04-2.16-1.43-4.82-3.28-5.93-1.85-1.12-3.38-.27-3.42,1.89-.04,2.16,1.42,4.82,3.27,5.93Z"/><path class="cls-20" d="m124.53,211.22c-6.1-3.52-16.08-3.52-22.17,0L4.57,267.67c-6.09,3.52-6.09,9.28,0,12.8l221.08,128c6.1,3.52,16.07,3.52,22.17,0l97.79-56.46c6.1-3.52,6.1-9.28,0-12.8L124.53,211.22Z"/><path class="cls-44" d="m124.53,174.76c-6.1-3.52-16.08-3.52-22.17,0L4.57,231.22c-6.09,3.52-6.09,9.28,0,12.8l221.08,128c6.1,3.52,16.07,3.52,22.17,0l97.79-56.46c6.1-3.52,6.1-9.28,0-12.8L124.53,174.76Z"/><path class="cls-43" d="m345.62,315.56l-97.79,56.46c-6.1,3.52-16.07,3.52-22.17,0L4.57,244.02c-2.96-1.71-4.47-3.95-4.56-6.21h-.02v15.17c0,2.32,1.53,4.64,4.57,6.4l221.08,128c6.1,3.52,16.07,3.52,22.17,0l97.79-56.46c3.05-1.76,4.57-4.08,4.57-6.4v-15.36h0c0,2.32-1.53,4.63-4.57,6.39Z"/><polygon class="cls-42" points="336.01 297.2 216.06 366.46 5.55 244.58 125.5 175.32 336.01 297.2"/><polygon class="cls-54" points="218.17 365.24 216.06 366.46 5.55 244.58 7.66 243.36 218.17 365.24"/><polygon class="cls-16" points="216.06 375.74 5.55 253.85 5.55 244.58 216.06 366.46 216.06 375.74"/><path class="cls-8" d="m95.25,134.24v36.2c29.03-16.12,69.72-21.14,106-15.07v-36.2c-36.29-6.07-76.98-1.05-106,15.07Z"/><polygon class="cls-53" points="282.31 363.98 310.62 347.64 310.62 340.69 282.31 357.03 282.31 363.98"/><path class="cls-18" d="m244.74,266.27c-.4,11.08-7.9,22.09-22.54,30.54-30.11,17.38-78.92,17.38-109.03,0-14.64-8.45-22.14-19.46-22.54-30.54l-.04-266.27h154.18l-.04,266.27Z"/><path class="cls-37" d="m113.18,233.87c-30.11,17.38-30.11,45.56,0,62.94,30.11,17.38,78.92,17.38,109.03,0,30.1-17.38,30.1-45.56,0-62.94-30.11-17.38-78.92-17.38-109.03,0Z"/><path class="cls-8" d="m124.93,240.65c-23.61,13.63-23.61,35.74,0,49.37,23.62,13.63,61.9,13.63,85.51,0,23.61-13.63,23.61-35.74,0-49.37-23.62-13.63-61.9-13.63-85.51,0Z"/><path class="cls-28" d="m222.57,76.58c1.57,0,2.85,1.27,2.85,2.84v99.61h-5.69v-99.61c0-1.57,1.27-2.84,2.84-2.84Z"/><path class="cls-24" d="m107.22,80.18c2.3,0,4.17,1.87,4.17,4.17v146.08h-8.34V84.35c0-2.3,1.87-4.17,4.17-4.17Z"/><path class="cls-23" d="m125.03,124.95c1.21,0,2.19.98,2.19,2.19v126.79h-4.38v-126.79c0-1.21.98-2.19,2.19-2.19Z"/><path class="cls-22" d="m234.31,9.51c1.21,0,2.19.98,2.19,2.19v126.79h-4.37V11.7c0-1.21.98-2.19,2.19-2.19Z"/><path class="cls-19" d="m135.11,4.97c.63,0,1.14.51,1.14,1.14v128.65h-2.28V6.11c0-.63.51-1.14,1.14-1.14Z"/><path class="cls-21" d="m120.81,21.21c.34,0,.62.28.62.62v70h-1.24V21.83c0-.34.28-.62.62-.62Z"/><path class="cls-26" d="m167.69,159.8c.34,0,.62.28.62.62v70h-1.24v-70c0-.34.28-.62.62-.62Z"/><path class="cls-25" d="m212.52,145.59c.63,0,1.14.51,1.14,1.14v128.65h-2.29v-128.65c0-.63.51-1.14,1.14-1.14Z"/><path class="cls-7" d="m118.73,110.05c0,2.01,1.63,3.63,3.63,3.63s3.63-1.63,3.63-3.63-1.63-3.63-3.63-3.63-3.63,1.63-3.63,3.63Z"/><path class="cls-7" d="m120.04,110.05c0,1.28,1.04,2.33,2.33,2.33s2.32-1.04,2.32-2.33-1.04-2.33-2.32-2.33-2.33,1.04-2.33,2.33Z"/><path class="cls-32" d="m120.81,110.05c0,.86.69,1.55,1.55,1.55s1.55-.69,1.55-1.55-.69-1.55-1.55-1.55-1.55.69-1.55,1.55Z"/><path class="cls-7" d="m204.11,83.81c0,2.01,1.63,3.63,3.63,3.63s3.63-1.63,3.63-3.63-1.62-3.63-3.63-3.63-3.63,1.63-3.63,3.63Z"/><path class="cls-7" d="m205.42,83.81c0,1.28,1.04,2.32,2.33,2.32s2.32-1.04,2.32-2.32-1.04-2.33-2.32-2.33-2.33,1.04-2.33,2.33Z"/><path class="cls-32" d="m206.19,83.81c0,.85.69,1.55,1.55,1.55s1.55-.69,1.55-1.55-.69-1.55-1.55-1.55-1.55.69-1.55,1.55Z"/><path class="cls-7" d="m110.97,12.21c0,.92.75,1.66,1.66,1.66s1.66-.75,1.66-1.66-.75-1.67-1.66-1.67-1.66.75-1.66,1.67Z"/><path class="cls-7" d="m111.57,12.21c0,.59.48,1.07,1.07,1.07s1.06-.48,1.06-1.07-.48-1.07-1.06-1.07-1.07.48-1.07,1.07Z"/><path class="cls-32" d="m111.93,12.21c0,.39.32.71.71.71s.71-.32.71-.71-.32-.71-.71-.71-.71.32-.71.71Z"/><path class="cls-7" d="m181.64,71.53c0,.92.75,1.67,1.66,1.67s1.66-.75,1.66-1.67-.75-1.67-1.66-1.67-1.66.75-1.66,1.67Z"/><path class="cls-7" d="m182.23,71.53c0,.59.48,1.07,1.07,1.07s1.06-.48,1.06-1.07-.48-1.07-1.06-1.07-1.07.48-1.07,1.07Z"/><path class="cls-32" d="m182.59,71.53c0,.39.32.71.71.71s.71-.32.71-.71-.32-.71-.71-.71-.71.32-.71.71Z"/><path class="cls-7" d="m149.38,39.79c0,.92.75,1.66,1.66,1.66s1.67-.75,1.67-1.66-.75-1.67-1.67-1.67-1.66.75-1.66,1.67Z"/><path class="cls-7" d="m149.98,39.79c0,.59.48,1.07,1.06,1.07s1.07-.48,1.07-1.07-.48-1.07-1.07-1.07-1.06.48-1.06,1.07Z"/><path class="cls-32" d="m150.34,39.79c0,.39.32.71.71.71s.71-.32.71-.71-.32-.71-.71-.71-.71.32-.71.71Z"/><path class="cls-7" d="m228.49,214.12c0,2.01,1.63,3.63,3.63,3.63s3.63-1.63,3.63-3.63-1.63-3.63-3.63-3.63-3.63,1.63-3.63,3.63Z"/><path class="cls-7" d="m229.8,214.12c0,1.28,1.04,2.33,2.33,2.33s2.32-1.04,2.32-2.33-1.04-2.33-2.32-2.33-2.33,1.04-2.33,2.33Z"/><path class="cls-32" d="m230.58,214.12c0,.86.69,1.55,1.55,1.55s1.55-.69,1.55-1.55-.69-1.55-1.55-1.55-1.55.69-1.55,1.55Z"/><path class="cls-7" d="m218.64,18.14c0,1.05.85,1.9,1.9,1.9s1.9-.85,1.9-1.9-.85-1.9-1.9-1.9-1.9.85-1.9,1.9Z"/><path class="cls-7" d="m219.32,18.14c0,.67.54,1.21,1.22,1.21s1.21-.54,1.21-1.21-.54-1.21-1.21-1.21-1.22.54-1.22,1.21Z"/><path class="cls-32" d="m219.72,18.14c0,.45.36.81.81.81s.81-.36.81-.81-.36-.81-.81-.81-.81.36-.81.81Z"/><path class="cls-7" d="m114.94,216.44c0,1.05.85,1.9,1.9,1.9s1.9-.85,1.9-1.9-.85-1.9-1.9-1.9-1.9.85-1.9,1.9Z"/><path class="cls-7" d="m115.62,216.44c0,.67.54,1.21,1.21,1.21s1.21-.54,1.21-1.21-.54-1.21-1.21-1.21-1.21.54-1.21,1.21Z"/><path class="cls-32" d="m116.03,216.44c0,.45.36.81.81.81s.81-.36.81-.81-.36-.81-.81-.81-.81.36-.81.81Z"/><path class="cls-7" d="m95.24,205.4c0,1.05.85,1.9,1.89,1.9s1.9-.85,1.9-1.9-.85-1.9-1.9-1.9-1.89.85-1.89,1.9Z"/><path class="cls-7" d="m95.92,205.4c0,.67.54,1.21,1.22,1.21s1.21-.54,1.21-1.21-.54-1.21-1.21-1.21-1.22.54-1.22,1.21Z"/><path class="cls-32" d="m96.33,205.4c0,.45.36.81.81.81s.81-.36.81-.81-.36-.81-.81-.81-.81.36-.81.81Z"/><path class="cls-7" d="m165.04,253.93c0,1.05.85,1.9,1.9,1.9s1.9-.85,1.9-1.9-.85-1.9-1.9-1.9-1.9.85-1.9,1.9Z"/><path class="cls-7" d="m165.73,253.93c0,.67.54,1.21,1.21,1.21s1.22-.54,1.22-1.21-.54-1.21-1.22-1.21-1.21.54-1.21,1.21Z"/><path class="cls-32" d="m166.13,253.93c0,.45.36.81.81.81s.81-.36.81-.81-.36-.81-.81-.81-.81.36-.81.81Z"/><path class="cls-7" d="m141.12,154.86c0,1.05.85,1.9,1.9,1.9s1.9-.85,1.9-1.9-.85-1.9-1.9-1.9-1.9.85-1.9,1.9Z"/><path class="cls-7" d="m141.8,154.86c0,.67.54,1.21,1.21,1.21s1.21-.54,1.21-1.21-.54-1.21-1.21-1.21-1.21.54-1.21,1.21Z"/><path class="cls-32" d="m142.21,154.86c0,.45.36.81.81.81s.81-.36.81-.81-.36-.81-.81-.81-.81.36-.81.81Z"/><rect class="cls-53" x="212.04" y="176.57" width="5.07" height="30.54" transform="translate(-33.5 337.8) rotate(-72.27)"/><path class="cls-51" d="m184.97,185.95c0,5.26,4.27,9.53,9.53,9.53s9.53-4.27,9.53-9.53-4.27-9.53-9.53-9.53-9.53,4.27-9.53,9.53Z"/><path class="cls-35" d="m184.97,185.95c0,5.26,4.27,9.53,9.53,9.53s9.53-4.27,9.53-9.53-4.27-9.53-9.53-9.53-9.53,4.27-9.53,9.53Z"/><path class="cls-52" d="m167.73,251.54s-3.81-.09-7.54-2.01-8.42-8.07-12.14-13.94c-10.44-16.48-11.09-31.1-7.41-40.95,3.68-9.85,13.76-15.22,27.09-15.22s23.41,5.37,27.09,15.22c3.68,9.85,3.03,24.47-7.42,40.95-3.72,5.87-8.41,12.01-12.14,13.94-3.73,1.92-7.54,2.01-7.54,2.01Z"/><path class="cls-33" d="m167.73,251.54s-3.81-.09-7.54-2.01-8.42-8.07-12.14-13.94c-10.44-16.48-11.09-31.1-7.41-40.95,3.68-9.85,13.76-15.22,27.09-15.22s23.41,5.37,27.09,15.22c3.68,9.85,3.03,24.47-7.42,40.95-3.72,5.87-8.41,12.01-12.14,13.94-3.73,1.92-7.54,2.01-7.54,2.01Z"/><path class="cls-9" d="m144.68,187.97c5.03-5.58,13.14-8.56,23.05-8.56,9.04,0,16.57,2.48,21.64,7.14-5.72,6.23-13.92,10.13-23.05,10.13-8.4,0-16.03-3.32-21.65-8.71Z"/><path class="cls-39" d="m135.04,154.33c0,17.28,14.01,31.29,31.29,31.29s31.29-14.01,31.29-31.29-14.01-31.29-31.29-31.29-31.29,14.01-31.29,31.29Z"/><path class="cls-34" d="m135.04,154.33c0,17.28,14.01,31.29,31.29,31.29s31.29-14.01,31.29-31.29-14.01-31.29-31.29-31.29-31.29,14.01-31.29,31.29Z"/><path class="cls-53" d="m150.36,166.2c.57,8.78,8.62,11.33,8.62,11.33,10.51,1.01,21.68-.83,29.79-5.51,2.48-1.43,4.49-3.03,6.05-4.72,1.8-3.95,2.81-8.34,2.81-12.96,0-3.53-.59-6.91-1.67-10.08-1.66,2.21-4.06,4.29-7.19,6.1-8.11,4.68-19.28,6.52-29.79,5.52,0,0-9.33-.71-8.62,10.33Z"/><path class="cls-27" d="m150.36,166.2c.57,8.78,8.62,11.33,8.62,11.33,10.51,1.01,21.68-.83,29.79-5.51,2.48-1.43,4.49-3.03,6.05-4.72,1.8-3.95,2.81-8.34,2.81-12.96,0-3.53-.59-6.91-1.67-10.08-1.66,2.21-4.06,4.29-7.19,6.1-8.11,4.68-19.28,6.52-29.79,5.52,0,0-9.33-.71-8.62,10.33Z"/><path class="cls-40" d="m188.76,150.36c3.13-1.81,5.53-3.88,7.19-6.1,1.08,3.16,1.67,6.55,1.67,10.08,0,4.62-1.01,9.01-2.81,12.96-1.56,1.7-3.57,3.29-6.05,4.72-1.09.63-2.23,1.2-3.42,1.73-.24-5.15-1.34-13.02-5.38-19.72,3.17-.92,6.15-2.14,8.8-3.67Z"/><path class="cls-38" d="m222.51,201.38c4.6,2.65,22.47,8.67,27.07,6.01,4.6-2.66-5.82-12.97-10.41-15.63-4.6-2.66-12.05-2.65-16.65,0-4.6,2.65-4.6,6.96,0,9.61Z"/><path class="cls-53" d="m140.62,196.82c0,4.79,3.36,10.62,7.52,13.01,4.15,2.4,7.52.45,7.52-4.34s-3.37-10.62-7.52-13.01c-4.15-2.39-7.52-.45-7.52,4.34Z"/><rect class="cls-53" x="121.1" y="220.82" width="26.43" height="5.07" transform="translate(-123.56 261.15) rotate(-67.32)"/><path class="cls-41" d="m122.84,235.37c0,5.31,3.73,23.79,8.33,26.45,4.6,2.65,8.33-11.52,8.33-16.83,0-5.31-3.73-11.77-8.33-14.42-4.6-2.65-8.33-.5-8.33,4.81Z"/><path class="cls-17" d="m131.99,205.42c0,5.26,4.27,9.53,9.53,9.53s9.53-4.27,9.53-9.53-4.27-9.53-9.53-9.53-9.53,4.27-9.53,9.53Z"/><path class="cls-31" d="m131.99,205.42c0,5.26,4.27,9.53,9.53,9.53s9.53-4.27,9.53-9.53-4.27-9.53-9.53-9.53-9.53,4.27-9.53,9.53Z"/><path class="cls-6" d="m173.05,167.71c0,2.28,1.6,3.21,3.58,2.07,1.98-1.14,3.58-3.92,3.58-6.2,0-2.28-1.6-3.21-3.58-2.07-1.98,1.14-3.58,3.92-3.58,6.2Z"/><path class="cls-6" d="m173.84,167.26c0,1.77,1.25,2.49,2.78,1.61,1.53-.89,2.78-3.05,2.78-4.82,0-1.77-1.25-2.49-2.78-1.61-1.54.89-2.78,3.05-2.78,4.82Z"/><path class="cls-6" d="m174.21,167.04c0,1.54,1.08,2.17,2.42,1.4,1.34-.77,2.42-2.65,2.42-4.19,0-1.54-1.08-2.17-2.42-1.4-1.34.77-2.42,2.65-2.42,4.19Z"/><path class="cls-36" d="m174.57,166.84c0,1.31.92,1.84,2.06,1.19,1.14-.66,2.06-2.25,2.06-3.56s-.92-1.84-2.06-1.19c-1.14.66-2.06,2.25-2.06,3.56Z"/><path class="cls-36" d="m175.12,166.52c0,.96.67,1.34,1.5.87.83-.48,1.5-1.64,1.5-2.6s-.67-1.35-1.5-.87c-.83.48-1.5,1.64-1.5,2.6Z"/><path class="cls-36" d="m175.55,166.27c0,.68.48.96,1.07.62.59-.34,1.07-1.17,1.07-1.85s-.48-.96-1.07-.62c-.59.34-1.07,1.17-1.07,1.85Z"/><path class="cls-6" d="m187.34,161.6c0,2.28,1.6,3.21,3.58,2.07,1.98-1.14,3.58-3.92,3.58-6.2,0-2.28-1.6-3.21-3.58-2.07-1.98,1.14-3.58,3.92-3.58,6.2Z"/><path class="cls-6" d="m188.13,161.14c0,1.78,1.25,2.49,2.78,1.61,1.54-.89,2.79-3.05,2.78-4.82,0-1.77-1.25-2.49-2.78-1.61-1.53.89-2.78,3.05-2.78,4.82Z"/><path class="cls-6" d="m188.5,160.93c0,1.54,1.08,2.17,2.42,1.4,1.34-.77,2.42-2.65,2.42-4.19,0-1.54-1.08-2.17-2.42-1.4-1.33.77-2.42,2.65-2.42,4.19Z"/><path class="cls-36" d="m188.86,160.72c0,1.31.92,1.84,2.06,1.19,1.14-.66,2.06-2.25,2.06-3.56s-.92-1.84-2.06-1.19c-1.13.66-2.06,2.25-2.06,3.56Z"/><path class="cls-36" d="m189.42,160.4c0,.96.67,1.34,1.5.87.83-.48,1.5-1.64,1.5-2.6s-.67-1.34-1.5-.87c-.83.48-1.5,1.64-1.5,2.6Z"/><path class="cls-36" d="m189.85,160.15c0,.68.48.96,1.07.62.59-.34,1.07-1.17,1.07-1.85s-.48-.96-1.07-.62c-.59.34-1.07,1.17-1.07,1.85Z"/><path class="cls-50" d="m74.27,158.79c-54.55,31.49-54.55,82.56,0,114.06,54.55,31.49,142.99,31.49,197.54,0,54.55-31.5,54.55-82.56,0-114.06-54.55-31.5-142.99-31.5-197.55,0Z"/><path class="cls-48" d="m74.27,272.85c54.55,31.49,142.99,31.49,197.54,0,54.55-31.5,54.55-82.56,0-114.06-54.55-31.5-142.99-31.5-197.55,0-54.55,31.49-54.55,82.56,0,114.06Zm1.04-113.46c53.98-31.16,141.49-31.16,195.47,0,53.98,31.16,53.98,81.7,0,112.86-53.98,31.16-141.49,31.16-195.47,0-53.98-31.16-53.98-81.69,0-112.86Z"/><g class="cls-46"><path class="cls-47" d="m88.99,89.96c-46.42,26.8-46.42,70.26,0,97.06,46.42,26.8,121.69,26.8,168.11,0,46.42-26.8,46.42-70.26,0-97.06-46.42-26.8-121.69-26.8-168.11,0Z"/><path class="cls-49" d="m88.99,187.02c46.42,26.8,121.69,26.8,168.11,0,46.42-26.8,46.42-70.26,0-97.06-46.42-26.8-121.69-26.8-168.11,0-46.42,26.8-46.42,70.26,0,97.06Zm.88-96.55c45.94-26.52,120.41-26.52,166.35,0,45.94,26.52,45.94,69.52,0,96.04-45.94,26.52-120.41,26.52-166.35,0-45.93-26.52-45.93-69.52,0-96.04Z"/></g><path class="cls-30" d="m187.34,230.99v47.04c22.15-1.95,43.45-7.85,60.52-17.71,8.38-4.83,15.11-10.27,20.18-16.05v-47.05c-5.07,5.79-11.8,11.22-20.18,16.06-17.06,9.85-38.37,15.76-60.52,17.71Z"/><path class="cls-30" d="m70.48,193.45v36.19c5.31,7.2,13.05,13.95,23.22,19.82,5.63,3.25,11.72,6.08,18.16,8.46v-36.19c-6.43-2.38-12.52-5.2-18.16-8.46-10.17-5.87-17.91-12.63-23.22-19.82Z"/><path class="cls-30" d="m243,220.87c2.43-1.19,4.8-2.43,7.08-3.75,5.01-2.9,9.53-6.04,13.52-9.4v34.84c-4.72,5.09-10.75,9.76-17.96,13.92-.87.5-1.75.99-2.64,1.47v-37.07Z"/><path class="cls-29" d="m240.07,77.47v34.07c5.86,2.35,11.46,5.04,16.69,8.06,12.94,7.47,22.36,16.21,28.23,25.52v-34.07c-5.87-9.32-15.29-18.05-28.23-25.52-5.23-3.02-10.83-5.71-16.69-8.06Z"/><path class="cls-29" d="m53.49,116.64v34.07c5.37-11.39,15.81-22.16,31.31-31.1,3.67-2.12,7.53-4.08,11.53-5.87v-34.08c-4,1.8-7.85,3.75-11.53,5.87-15.51,8.95-25.95,19.72-31.31,31.11Z"/><path class="cls-3" d="m336.01,271.67c0,5.03,3.53,11.15,7.89,13.67,4.36,2.52,7.89.48,7.89-4.56s-3.53-11.15-7.89-13.66c-4.36-2.52-7.89-.48-7.89,4.55Z"/><path class="cls-5" d="m336.01,242.73c0,5.03,3.53,11.15,7.89,13.67,4.36,2.52,7.89.48,7.89-4.56s-3.53-11.15-7.89-13.67c-4.36-2.52-7.89-.48-7.89,4.56Z"/><path class="cls-4" d="m336.01,213.78c0,5.03,3.53,11.15,7.89,13.67,4.36,2.52,7.89.48,7.89-4.56s-3.53-11.15-7.89-13.67c-4.36-2.52-7.89-.48-7.89,4.56Z"/><path class="cls-1" d="m336.02,184.84c0,5.03,3.53,11.15,7.89,13.67,4.36,2.52,7.89.48,7.89-4.56s-3.53-11.15-7.89-13.67c-4.36-2.52-7.89-.48-7.89,4.56Z"/><path class="cls-2" d="m336.02,155.9c0,5.03,3.53,11.15,7.89,13.67,4.36,2.52,7.89.48,7.89-4.56s-3.53-11.15-7.89-13.67c-4.36-2.52-7.89-.48-7.89,4.56Z"/><polygon class="cls-3" points="5.55 164.89 11.07 166.38 11.07 169.05 5.55 167.56 .02 175.44 .02 172.76 5.55 164.89"/><polygon class="cls-5" points="5.55 176.54 11.07 178.02 11.07 180.7 5.55 179.21 .02 187.08 .02 184.41 5.55 176.54"/><polygon class="cls-4" points="5.55 188.18 11.08 189.67 11.08 192.34 5.55 190.85 .02 198.73 .02 196.05 5.55 188.18"/><polygon class="cls-1" points="5.55 199.83 11.08 201.31 11.08 203.99 5.55 202.5 .02 210.37 .02 207.7 5.55 199.83"/><polygon class="cls-2" points="5.55 211.47 11.08 212.96 11.08 215.63 5.55 214.14 .02 222.02 .02 219.34 5.55 211.47"/></g></g></g></svg>