<?xml version="1.0" encoding="UTF-8"?><svg xmlns="http://www.w3.org/2000/svg" xmlns:xlink="http://www.w3.org/1999/xlink" viewBox="0 0 605.35 550.7"><defs><style>.cls-1,.cls-2,.cls-3,.cls-4,.cls-5{fill:#2580d3;}.cls-1,.cls-6,.cls-7,.cls-8,.cls-9,.cls-10,.cls-11{opacity:.3;}.cls-12{opacity:.8;}.cls-12,.cls-13,.cls-14,.cls-15,.cls-16,.cls-17{fill:#48d8f5;}.cls-18{fill:url(#linear-gradient-2);}.cls-19{fill:url(#linear-gradient-12);}.cls-19,.cls-20,.cls-21,.cls-22,.cls-23,.cls-6,.cls-7,.cls-24,.cls-25,.cls-26,.cls-27,.cls-28{mix-blend-mode:color-dodge;}.cls-19,.cls-29,.cls-25,.cls-30,.cls-5,.cls-26,.cls-28{opacity:.7;}.cls-20{fill:url(#linear-gradient-17);}.cls-31,.cls-32,.cls-9{fill:#51ffff;}.cls-31,.cls-33,.cls-2,.cls-15,.cls-34{opacity:.2;}.cls-21{fill:url(#linear-gradient-16);}.cls-29{fill:url(#linear-gradient-11);}.cls-29,.cls-33,.cls-35,.cls-30,.cls-36,.cls-37,.cls-38,.cls-11,.cls-39{mix-blend-mode:screen;}.cls-40{fill:url(#linear-gradient-18);}.cls-40,.cls-8,.cls-10{mix-blend-mode:multiply;}.cls-32,.cls-41,.cls-42{opacity:.55;}.cls-13{opacity:.6;}.cls-33{fill:url(#linear-gradient-20);}.cls-22{fill:url(#linear-gradient-19);}.cls-23,.cls-7,.cls-43{fill:#1ed6fe;}.cls-44{fill:url(#linear-gradient-6);}.cls-45{fill:url(#radial-gradient-5);}.cls-41{fill:#845ec2;}.cls-46{fill:url(#radial-gradient-4);}.cls-47,.cls-42{fill:#7ac943;}.cls-48{fill:#fff;}.cls-48,.cls-14,.cls-43{opacity:.1;}.cls-6,.cls-27{fill:#07b3fa;}.cls-35{fill:url(#linear-gradient-8);}.cls-35,.cls-49,.cls-4,.cls-39{opacity:.5;}.cls-50{fill:url(#radial-gradient-6);}.cls-24{fill:url(#_2);}.cls-51{fill:url(#linear-gradient);opacity:.69;}.cls-52{fill:#ff9671;}.cls-53{fill:url(#radial-gradient);}.cls-54{fill:#034aa2;}.cls-55{fill:#ff6f91;}.cls-56{fill:#5da5fd;}.cls-25{fill:url(#linear-gradient-13);}.cls-57{isolation:isolate;}.cls-57,.cls-49{fill:none;}.cls-16{opacity:.4;}.cls-58{fill:url(#linear-gradient-5);}.cls-30{fill:url(#linear-gradient-10);}.cls-36{fill:url(#_2-2);}.cls-36,.cls-38{opacity:.14;}.cls-59{fill:url(#radial-gradient-2);}.cls-60{fill:url(#radial-gradient-3);}.cls-37{fill:url(#linear-gradient-21);opacity:.22;}.cls-10,.cls-61{fill:#0a208f;}.cls-38{fill:url(#_2-3);}.cls-62{fill:url(#linear-gradient-3);}.cls-63{fill:#93278f;}.cls-11{fill:url(#linear-gradient-7);}.cls-26{fill:url(#linear-gradient-14);}.cls-34,.cls-64{fill:#ffc75f;}.cls-65{fill:url(#linear-gradient-4);}.cls-39{fill:url(#linear-gradient-9);}.cls-28{fill:url(#linear-gradient-15);}</style><linearGradient id="linear-gradient" x1="224.69" y1="52.3" x2="87.27" y2="336.85" gradientTransform="translate(572) rotate(-180) scale(1 -1)" gradientUnits="userSpaceOnUse"><stop offset="0" stop-color="#b215c2"/><stop offset="1" stop-color="aqua"/></linearGradient><linearGradient id="linear-gradient-2" x1="-461.43" y1="-116.94" x2="-481.56" y2="613.03" gradientTransform="translate(766.07 110.24) rotate(24.46)" gradientUnits="userSpaceOnUse"><stop offset="0" stop-color="#ad3acd"/><stop offset=".52" stop-color="#cd53b6"/><stop offset=".66" stop-color="#d253b0"/><stop offset="1" stop-color="#dd54a2"/></linearGradient><linearGradient id="linear-gradient-3" x1="0" y1="275.35" x2="605.35" y2="275.35" gradientUnits="userSpaceOnUse"><stop offset="0" stop-color="#0540ad"/><stop offset="1" stop-color="#000450"/></linearGradient><linearGradient id="linear-gradient-4" x1="112.59" y1="382.37" x2="498.74" y2="382.37" gradientUnits="userSpaceOnUse"><stop offset="0" stop-color="#ad3acd"/><stop offset=".52" stop-color="#cd53b6"/><stop offset="1" stop-color="#dd54a2"/></linearGradient><linearGradient id="linear-gradient-5" x1="441.59" y1="314" x2="140.25" y2="799.74" gradientUnits="userSpaceOnUse"><stop offset="0" stop-color="#328de0"/><stop offset="1" stop-color="#172d9c"/></linearGradient><linearGradient id="linear-gradient-6" x1="445.42" y1="308.49" x2="181.37" y2="762.39" gradientUnits="userSpaceOnUse"><stop offset="0" stop-color="#004ea1"/><stop offset="1" stop-color="#00005d"/></linearGradient><linearGradient id="linear-gradient-7" x1="309.27" y1="65.31" x2="309.27" y2="463.11" gradientUnits="userSpaceOnUse"><stop offset="0" stop-color="#000"/><stop offset="1" stop-color="#48d8f5"/></linearGradient><linearGradient id="linear-gradient-8" x1="245.15" y1="274.69" x2="245.15" y2="147.62" xlink:href="#linear-gradient-7"/><linearGradient id="linear-gradient-9" x1="379.93" y1="334.58" x2="379.93" y2="148.23" xlink:href="#linear-gradient-7"/><linearGradient id="linear-gradient-10" x1="359.12" y1="362.11" x2="359.12" y2="202.14" xlink:href="#linear-gradient-7"/><linearGradient id="linear-gradient-11" x1="231.42" y1="227.22" x2="231.42" y2="67.26" xlink:href="#linear-gradient-7"/><linearGradient id="linear-gradient-12" x1="347.35" y1="222.85" x2="347.35" y2="61.88" xlink:href="#linear-gradient-7"/><linearGradient id="linear-gradient-13" x1="364.05" y1="172.9" x2="364.05" y2="85.31" xlink:href="#linear-gradient-7"/><linearGradient id="linear-gradient-14" x1="309.27" y1="334.85" x2="309.27" y2="247.26" xlink:href="#linear-gradient-7"/><linearGradient id="linear-gradient-15" x1="256.89" y1="387.17" x2="256.89" y2="226.2" xlink:href="#linear-gradient-7"/><radialGradient id="radial-gradient" cx="275" cy="279.03" fx="275" fy="279.03" r="23.54" gradientUnits="userSpaceOnUse"><stop offset="0" stop-color="#5abeff"/><stop offset="1" stop-color="#243aa9"/></radialGradient><linearGradient id="linear-gradient-16" x1="270.27" y1="302.78" x2="279.55" y2="279.03" gradientUnits="userSpaceOnUse"><stop offset="0" stop-color="#fff"/><stop offset=".1" stop-color="#cfcfcf"/><stop offset=".23" stop-color="#999"/><stop offset=".37" stop-color="#6a6a6a"/><stop offset=".5" stop-color="#444"/><stop offset=".63" stop-color="#262626"/><stop offset=".76" stop-color="#111"/><stop offset=".88" stop-color="#040404"/><stop offset="1" stop-color="#000"/></linearGradient><radialGradient id="radial-gradient-2" cx="310.83" cy="297.47" fx="310.83" fy="297.47" r="68.56" xlink:href="#radial-gradient"/><linearGradient id="linear-gradient-17" x1="286.63" y1="373.57" x2="312.49" y2="298.49" gradientUnits="userSpaceOnUse"><stop offset="0" stop-color="#fff"/><stop offset=".15" stop-color="#dedede"/><stop offset=".48" stop-color="#8c8c8c"/><stop offset=".97" stop-color="#090909"/><stop offset="1" stop-color="#000"/></linearGradient><radialGradient id="radial-gradient-3" cx="301.18" cy="232.78" fx="301.18" fy="232.78" r="77.31" xlink:href="#radial-gradient"/><linearGradient id="_2" x1="285.63" y1="310.76" x2="310.78" y2="246.38" gradientUnits="userSpaceOnUse"><stop offset="0" stop-color="#fff"/><stop offset="1" stop-color="#000"/></linearGradient><linearGradient id="linear-gradient-18" x1="298.29" y1="270.45" x2="303.76" y2="242.17" gradientUnits="userSpaceOnUse"><stop offset="0" stop-color="#fff"/><stop offset="1" stop-color="#0a208f"/></linearGradient><radialGradient id="radial-gradient-4" cx="236.34" cy="291.03" fx="236.34" fy="291.03" r="52.21" gradientUnits="userSpaceOnUse"><stop offset="0" stop-color="#40a4ff"/><stop offset=".51" stop-color="#2767cb"/><stop offset="1" stop-color="#0a208f"/></radialGradient><radialGradient id="radial-gradient-5" cx="356.78" cy="341.73" fx="356.78" fy="341.73" r="70.99" gradientUnits="userSpaceOnUse"><stop offset="0" stop-color="#40a4ff"/><stop offset="1" stop-color="#0a208f"/></radialGradient><radialGradient id="radial-gradient-6" cx="336.91" cy="301.79" fx="336.91" fy="301.79" r="23.54" xlink:href="#radial-gradient"/><linearGradient id="linear-gradient-19" x1="332.17" y1="325.54" x2="341.45" y2="301.79" xlink:href="#linear-gradient-16"/><linearGradient id="linear-gradient-20" x1="303.02" y1="408.54" x2="303.02" y2="193.45" gradientUnits="userSpaceOnUse"><stop offset="0" stop-color="#1ed6fe"/><stop offset="1" stop-color="#000"/></linearGradient><linearGradient id="_2-2" x1="303.02" y1="406.4" x2="303.02" y2="203.36" xlink:href="#_2"/><linearGradient id="linear-gradient-21" x1="303.01" y1="304.7" x2="303.01" y2="121.66" xlink:href="#linear-gradient-20"/><linearGradient id="_2-3" x1="303.01" y1="302.87" x2="303.01" y2="130.09" xlink:href="#_2"/></defs><g class="cls-57"><g id="Layer_2"><g id="Layer_1-2"><path class="cls-51" d="m290.91,232.53c5.1,31.97,15.16,62.81,29.23,90.06,4.69,9.09,9.82,17.77,15.36,25.97,38.37,58.53,97.5,90.32,155.49,85.78,51.17-3.03,112.57-42.39,113.71-116.56,2.27-98.4-60.27-174.09-112.57-239.18C442.1,18.04,352.26-.12,311.71,86.91c-4.99,10.21-9.18,21.27-12.58,32.81-6.79,23.09-10.42,48.13-10.92,72.33.03,13.65.93,27.2,2.7,40.48Z"/><path class="cls-18" d="m18.91,252.53c-8.17,29.36-11.72,59.65-10.5,88.4.41,9.58,1.34,19,2.81,28.15,9.49,64.87,46.88,114.76,97.47,133.07,44.26,17,111.3,6.77,141.18-56.38,40.27-83.48,17.13-172.31-1.53-248.14-18.52-71.06-87.07-121.03-155.14-61.95-8.19,6.84-16.02,14.72-23.38,23.31-14.72,17.19-27.53,37.27-37.39,57.82-5.29,11.72-9.82,23.67-13.51,35.73Z"/><path class="cls-62" d="m63.89,408.82c2.63,12.97-3.37,24.95-5.36,36.94-1.33,4.33-3.11,8.65-5.08,12.98-9.85,21.64-24.55,43.27-12.9,64.91,23.97,43.94,72.9,6.99,106.85-3.99,4.99-1,9.99-3,14.79-2.31,8.11-1.69,16.3-3,24.54-3.89,16.48-1.77,33.2-1.8,50.09.38,6.87.79,13.8,1.95,20.82,3.53,31.41,6.57,62.15,12.62,92.6,18.23,6.09,1.12,12.17,2.23,18.24,3.31,73.51,17.7,168.38,25.69,212.32-52.2,17.04-30.15,26.77-65.45,24.12-99.52-.44-5.68-1.23-11.32-2.37-16.9-2.78-17.39-8.77-33.36-19.75-45.35-57.92-55.92-90.87-123.83-112.06-199.77-2.4-6.16-4.92-12.24-7.65-18.23-8.16-17.97-18.06-35.09-31.32-50.69-4.74-5.65-9.87-10.94-15.35-15.84C383.56,11.03,338.46-4.16,294.01.99c-6.27.6-12.51,1.56-18.67,2.88-30.79,6.59-59.65,22.06-81.49,45.3-4.37,4.19-8.59,8.54-12.69,13.01-16.42,17.85-31.03,37.59-46.26,56.08-4.94,5.86-9.77,11.85-14.46,17.94-18.97,24.96-47.93,35.95-72.17,52.54-4.72,3.13-9.28,6.41-13.58,9.84-30.09,24-47.59,55.57-23.16,98.35,2.63,6.77,5.53,13.51,8.63,20.18,12.36,26.68,27.66,52.25,39.78,74.46,1.53,5.86,2.85,11.6,3.94,17.26Z"/><path class="cls-17" d="m361.1,495.6c-2.09,1.41-3.93.51-4.11-2-.18-2.52,1.38-5.71,3.47-7.12,2.09-1.41,3.93-.51,4.11,2.01.18,2.52-1.38,5.7-3.47,7.12Z"/><path class="cls-12" d="m376.73,485.07c-2.09,1.41-3.93.51-4.11-2-.18-2.52,1.38-5.71,3.47-7.12,2.09-1.41,3.93-.52,4.11,2,.17,2.52-1.38,5.71-3.47,7.12Z"/><path class="cls-13" d="m392.35,474.53c-2.1,1.41-3.93.51-4.11-2-.18-2.52,1.38-5.71,3.47-7.12,2.09-1.41,3.93-.51,4.11,2.01.18,2.52-1.38,5.7-3.47,7.12Z"/><path class="cls-16" d="m407.97,464c-2.09,1.41-3.93.51-4.11-2-.18-2.52,1.38-5.71,3.47-7.12,2.09-1.41,3.93-.51,4.11,2.01.18,2.52-1.38,5.7-3.47,7.12Z"/><path class="cls-15" d="m423.6,453.47c-2.09,1.41-3.93.52-4.11-2-.18-2.52,1.38-5.71,3.47-7.12,2.09-1.41,3.93-.51,4.11,2.01.17,2.52-1.38,5.7-3.47,7.12Z"/><path class="cls-14" d="m439.22,442.94c-2.09,1.41-3.93.51-4.11-2-.18-2.52,1.38-5.71,3.47-7.12,2.09-1.41,3.93-.51,4.11,2.01.18,2.52-1.38,5.71-3.47,7.12Z"/><path class="cls-14" d="m454.84,432.41c-2.09,1.41-3.93.51-4.11-2.01-.18-2.52,1.38-5.7,3.47-7.12,2.09-1.41,3.93-.51,4.11,2,.18,2.52-1.38,5.71-3.47,7.12Z"/><path class="cls-8" d="m359.7,303.7c7.13-4.11,18.78-4.11,25.91,0l114.26,65.97c7.12,4.11,7.12,10.85,0,14.96l-258.34,149.57c-7.12,4.12-18.78,4.12-25.91,0l-114.26-65.97c-7.13-4.11-7.13-10.85,0-14.96l258.34-149.57Z"/><path class="cls-56" d="m359.7,270.04c7.13-4.12,18.78-4.12,25.91,0l114.26,65.97c7.12,4.11,7.12,10.85,0,14.96l-258.34,149.57c-7.12,4.12-18.78,4.12-25.91,0l-114.26-65.97c-7.13-4.11-7.13-10.84,0-14.96l258.34-149.57Z"/><path class="cls-54" d="m101.37,434.57l114.26,65.97c7.12,4.12,18.78,4.12,25.91,0l258.34-149.57c3.46-2,5.23-4.62,5.33-7.25h.02v17.72c0,2.71-1.78,5.42-5.35,7.48l-258.34,149.57c-7.12,4.11-18.78,4.11-25.91,0l-114.26-65.97c-3.56-2.06-5.35-4.76-5.35-7.48v-17.95h0c0,2.71,1.79,5.42,5.35,7.47Z"/><polygon class="cls-65" points="112.59 413.12 252.76 494.04 498.74 351.63 358.57 270.7 112.59 413.12"/><polygon class="cls-58" points="250.29 492.62 252.76 494.04 498.74 351.63 496.27 350.2 250.29 492.62"/><polygon class="cls-44" points="252.76 504.88 498.74 362.46 498.74 351.63 252.76 494.04 252.76 504.88"/><path class="cls-9" d="m393.92,222.7v42.31c-33.92-18.84-81.46-24.71-123.87-17.61v-42.3c42.4-7.1,89.95-1.23,123.87,17.61Z"/><polygon class="cls-61" points="175.34 491.15 142.26 472.05 142.26 463.93 175.34 483.02 175.34 491.15"/><path class="cls-11" d="m219.24,376.97c.47,12.95,9.23,25.81,26.34,35.69,35.18,20.31,92.22,20.31,127.4,0,17.11-9.88,25.87-22.74,26.34-35.69l.04-311.14h-180.16l.05,311.14Z"/><path class="cls-43" d="m372.97,339.11c35.18,20.31,35.18,53.24,0,73.55-35.18,20.31-92.22,20.31-127.4,0-35.18-20.31-35.18-53.24,0-73.55,35.18-20.31,92.22-20.31,127.4,0Z"/><path class="cls-9" d="m359.23,347.04c27.59,15.93,27.59,41.76,0,57.69-27.6,15.93-72.33,15.93-99.92,0-27.59-15.93-27.59-41.76,0-57.69,27.6-15.93,72.33-15.93,99.92,0Z"/><path class="cls-35" d="m245.15,155.32c-1.84,0-3.32,1.49-3.32,3.32v116.4h6.65v-116.4c0-1.84-1.49-3.32-3.32-3.32Z"/><path class="cls-39" d="m379.93,159.52c-2.69,0-4.87,2.18-4.87,4.87v170.69h9.75v-170.69c0-2.69-2.18-4.87-4.87-4.87Z"/><path class="cls-30" d="m359.12,211.84c-1.41,0-2.56,1.14-2.56,2.56v148.16h5.11v-148.16c0-1.41-1.15-2.56-2.56-2.56Z"/><path class="cls-29" d="m231.42,76.95c-1.41,0-2.56,1.14-2.56,2.56v148.16h5.11V79.51c0-1.41-1.14-2.56-2.55-2.56Z"/><path class="cls-19" d="m347.35,71.64c-.74,0-1.34.6-1.34,1.34v150.32h2.67V72.97c0-.74-.6-1.34-1.33-1.34Z"/><path class="cls-25" d="m364.05,90.62c-.4,0-.73.33-.73.73v81.8h1.45v-81.8c0-.4-.33-.73-.73-.73Z"/><path class="cls-26" d="m309.27,252.57c-.4,0-.73.32-.73.73v81.8h1.45v-81.8c0-.4-.33-.73-.73-.73Z"/><path class="cls-28" d="m256.89,235.96c-.74,0-1.34.6-1.34,1.34v150.32h2.67v-150.32c0-.74-.6-1.34-1.34-1.34Z"/><path class="cls-7" d="m366.48,194.43c0,2.34-1.9,4.24-4.24,4.24s-4.24-1.9-4.24-4.24,1.9-4.24,4.24-4.24,4.24,1.9,4.24,4.24Z"/><path class="cls-7" d="m364.96,194.43c0,1.5-1.22,2.72-2.72,2.72s-2.72-1.22-2.72-2.72,1.21-2.72,2.72-2.72,2.72,1.22,2.72,2.72Z"/><path class="cls-23" d="m364.05,194.43c0,1-.81,1.81-1.81,1.81s-1.81-.81-1.81-1.81.81-1.81,1.81-1.81,1.81.81,1.81,1.81Z"/><path class="cls-7" d="m266.72,163.77c0,2.34-1.9,4.24-4.24,4.24s-4.24-1.9-4.24-4.24,1.9-4.24,4.24-4.24,4.24,1.9,4.24,4.24Z"/><path class="cls-7" d="m265.19,163.77c0,1.5-1.22,2.72-2.72,2.72s-2.72-1.22-2.72-2.72,1.21-2.72,2.72-2.72,2.72,1.22,2.72,2.72Z"/><path class="cls-23" d="m264.28,163.77c0,1-.81,1.81-1.81,1.81s-1.81-.81-1.81-1.81.81-1.81,1.81-1.81,1.81.81,1.81,1.81Z"/><path class="cls-7" d="m375.55,80.1c0,1.07-.87,1.95-1.95,1.95s-1.95-.87-1.95-1.95.87-1.95,1.95-1.95,1.95.87,1.95,1.95Z"/><path class="cls-7" d="m374.85,80.1c0,.69-.56,1.25-1.25,1.25s-1.24-.56-1.24-1.25.56-1.25,1.24-1.25,1.25.56,1.25,1.25Z"/><path class="cls-23" d="m374.43,80.1c0,.46-.37.83-.83.83s-.83-.37-.83-.83.37-.83.83-.83.83.37.83.83Z"/><path class="cls-7" d="m292.98,149.41c0,1.07-.87,1.95-1.95,1.95s-1.95-.87-1.95-1.95.87-1.95,1.95-1.95,1.95.87,1.95,1.95Z"/><path class="cls-7" d="m292.28,149.41c0,.69-.56,1.25-1.25,1.25s-1.24-.56-1.24-1.25.56-1.25,1.24-1.25,1.25.56,1.25,1.25Z"/><path class="cls-23" d="m291.86,149.41c0,.46-.37.83-.83.83s-.83-.37-.83-.83.37-.83.83-.83.83.37.83.83Z"/><path class="cls-7" d="m330.67,112.33c0,1.07-.87,1.95-1.94,1.95s-1.95-.87-1.95-1.95.87-1.95,1.95-1.95,1.94.87,1.94,1.95Z"/><path class="cls-7" d="m329.97,112.33c0,.69-.56,1.25-1.24,1.25s-1.25-.56-1.25-1.25.56-1.25,1.25-1.25,1.24.56,1.24,1.25Z"/><path class="cls-23" d="m329.55,112.33c0,.46-.37.83-.83.83s-.83-.37-.83-.83.37-.83.83-.83.83.37.83.83Z"/><path class="cls-7" d="m238.22,316.03c0,2.34-1.9,4.24-4.25,4.24s-4.24-1.9-4.24-4.24,1.9-4.24,4.24-4.24,4.25,1.9,4.25,4.24Z"/><path class="cls-7" d="m236.7,316.03c0,1.5-1.22,2.72-2.72,2.72s-2.72-1.22-2.72-2.72,1.22-2.72,2.72-2.72,2.72,1.22,2.72,2.72Z"/><path class="cls-23" d="m235.79,316.03c0,1-.81,1.81-1.81,1.81s-1.81-.81-1.81-1.81.81-1.81,1.81-1.81,1.81.81,1.81,1.81Z"/><path class="cls-7" d="m249.74,87.03c0,1.22-.99,2.22-2.22,2.22s-2.21-.99-2.21-2.22.99-2.22,2.21-2.22,2.22.99,2.22,2.22Z"/><path class="cls-7" d="m248.95,87.03c0,.78-.64,1.42-1.42,1.42s-1.42-.64-1.42-1.42.63-1.42,1.42-1.42,1.42.64,1.42,1.42Z"/><path class="cls-23" d="m248.47,87.03c0,.52-.42.95-.95.95s-.94-.42-.94-.95.42-.94.94-.94.95.42.95.94Z"/><path class="cls-7" d="m370.91,318.75c0,1.22-.99,2.22-2.22,2.22s-2.22-.99-2.22-2.22.99-2.22,2.22-2.22,2.22.99,2.22,2.22Z"/><path class="cls-7" d="m370.12,318.75c0,.78-.64,1.42-1.42,1.42s-1.42-.64-1.42-1.42.64-1.42,1.42-1.42,1.42.63,1.42,1.42Z"/><path class="cls-23" d="m369.64,318.75c0,.52-.42.94-.94.94s-.94-.42-.94-.94.42-.94.94-.94.94.42.94.94Z"/><path class="cls-7" d="m393.93,305.84c0,1.22-.99,2.22-2.21,2.22s-2.22-.99-2.22-2.22.99-2.22,2.22-2.22,2.21.99,2.21,2.22Z"/><path class="cls-7" d="m393.13,305.84c0,.78-.64,1.42-1.42,1.42s-1.42-.64-1.42-1.42.63-1.42,1.42-1.42,1.42.63,1.42,1.42Z"/><path class="cls-23" d="m392.66,305.84c0,.52-.42.95-.94.95s-.95-.42-.95-.95.42-.94.95-.94.94.42.94.94Z"/><path class="cls-7" d="m312.36,362.55c0,1.22-.99,2.22-2.21,2.22s-2.22-.99-2.22-2.22.99-2.22,2.22-2.22,2.21.99,2.21,2.22Z"/><path class="cls-7" d="m311.57,362.55c0,.78-.64,1.42-1.42,1.42s-1.42-.64-1.42-1.42.63-1.42,1.42-1.42,1.42.63,1.42,1.42Z"/><path class="cls-23" d="m311.09,362.55c0,.52-.42.94-.94.94s-.95-.42-.95-.94.42-.94.95-.94.94.42.94.94Z"/><path class="cls-7" d="m340.32,246.79c0,1.22-.99,2.22-2.22,2.22s-2.22-.99-2.22-2.22.99-2.22,2.22-2.22,2.22.99,2.22,2.22Z"/><path class="cls-7" d="m339.53,246.79c0,.78-.63,1.42-1.42,1.42s-1.42-.63-1.42-1.42.63-1.42,1.42-1.42,1.42.64,1.42,1.42Z"/><path class="cls-23" d="m339.05,246.79c0,.52-.42.94-.94.94s-.94-.42-.94-.94.42-.95.94-.95.94.42.94.95Z"/><rect class="cls-61" x="236.64" y="287.04" width="35.69" height="5.93" transform="translate(-76.23 91.28) rotate(-17.73)"/><path class="cls-53" d="m289.09,283.11c0,6.15-4.99,11.14-11.14,11.14s-11.14-4.99-11.14-11.14,4.99-11.14,11.14-11.14,11.14,4.99,11.14,11.14Z"/><path class="cls-21" d="m289.09,283.11c0,6.15-4.99,11.14-11.14,11.14s-11.14-4.99-11.14-11.14,4.99-11.14,11.14-11.14,11.14,4.99,11.14,11.14Z"/><path class="cls-59" d="m309.22,359.75s4.45-.11,8.81-2.35c4.36-2.25,9.84-9.43,14.18-16.29,12.2-19.26,12.96-36.34,8.66-47.85-4.3-11.51-16.08-17.79-31.66-17.79s-27.36,6.28-31.66,17.79c-4.3,11.51-3.54,28.59,8.67,47.85,4.35,6.86,9.82,14.04,14.18,16.29,4.36,2.25,8.81,2.35,8.81,2.35Z"/><path class="cls-20" d="m309.22,359.75s4.45-.11,8.81-2.35c4.36-2.25,9.84-9.43,14.18-16.29,12.2-19.26,12.96-36.34,8.66-47.85-4.3-11.51-16.08-17.79-31.66-17.79s-27.36,6.28-31.66,17.79c-4.3,11.51-3.54,28.59,8.67,47.85,4.35,6.86,9.82,14.04,14.18,16.29,4.36,2.25,8.81,2.35,8.81,2.35Z"/><path class="cls-10" d="m336.16,285.47c-5.87-6.52-15.35-10-26.94-10-10.56,0-19.37,2.89-25.29,8.34,6.68,7.27,16.27,11.84,26.93,11.84,9.82,0,18.73-3.88,25.3-10.18Z"/><path class="cls-60" d="m347.43,246.18c0,20.19-16.37,36.56-36.57,36.56s-36.56-16.37-36.56-36.56,16.37-36.56,36.56-36.56,36.57,16.37,36.57,36.56Z"/><path class="cls-24" d="m347.43,246.18c0,20.19-16.37,36.56-36.57,36.56s-36.56-16.37-36.56-36.56,16.37-36.56,36.56-36.56,36.57,16.37,36.57,36.56Z"/><path class="cls-61" d="m329.52,260.04c-.66,10.26-10.07,13.24-10.07,13.24-12.28,1.18-25.33-.97-34.81-6.44-2.89-1.67-5.25-3.53-7.07-5.52-2.11-4.62-3.29-9.74-3.29-15.14,0-4.12.69-8.08,1.95-11.78,1.94,2.59,4.74,5.01,8.4,7.13,9.47,5.47,22.52,7.62,34.81,6.44,0,0,10.9-.83,10.07,12.07Z"/><path class="cls-40" d="m329.52,260.04c-.66,10.26-10.07,13.24-10.07,13.24-12.28,1.18-25.33-.97-34.81-6.44-2.89-1.67-5.25-3.53-7.07-5.52-2.11-4.62-3.29-9.74-3.29-15.14,0-4.12.69-8.08,1.95-11.78,1.94,2.59,4.74,5.01,8.4,7.13,9.47,5.47,22.52,7.62,34.81,6.44,0,0,10.9-.83,10.07,12.07Z"/><path class="cls-48" d="m284.65,241.52c-3.66-2.11-6.46-4.54-8.4-7.13-1.26,3.7-1.95,7.65-1.95,11.78,0,5.4,1.18,10.53,3.29,15.14,1.82,1.98,4.17,3.85,7.07,5.52,1.27.73,2.61,1.4,4,2.02.28-6.01,1.56-15.22,6.28-23.04-3.71-1.08-7.19-2.5-10.28-4.29Z"/><path class="cls-46" d="m245.21,301.14c-5.37,3.1-26.25,10.13-31.63,7.03-5.37-3.1,6.8-15.16,12.17-18.26,5.37-3.1,14.09-3.1,19.46,0,5.37,3.1,5.37,8.13,0,11.23Z"/><path class="cls-61" d="m340.9,295.82c0,5.6-3.93,12.41-8.78,15.21-4.85,2.8-8.78.53-8.78-5.07s3.93-12.41,8.78-15.21c4.85-2.8,8.78-.53,8.78,5.07Z"/><rect class="cls-61" x="345.31" y="311.38" width="5.92" height="30.89" transform="translate(-99.1 159.58) rotate(-22.68)"/><path class="cls-45" d="m361.68,340.86c0,6.21-4.35,27.8-9.73,30.9-5.37,3.1-9.73-13.46-9.73-19.67,0-6.2,4.36-13.75,9.73-16.85,5.37-3.1,9.73-.59,9.73,5.62Z"/><path class="cls-50" d="m350.99,305.87c0,6.15-4.99,11.14-11.13,11.14s-11.14-4.99-11.14-11.14,4.98-11.14,11.14-11.14,11.13,4.98,11.13,11.14Z"/><path class="cls-22" d="m350.99,305.87c0,6.15-4.99,11.14-11.13,11.14s-11.14-4.99-11.14-11.14,4.98-11.14,11.14-11.14,11.13,4.98,11.13,11.14Z"/><path class="cls-6" d="m303.02,261.81c0,2.67-1.87,3.75-4.18,2.41-2.31-1.33-4.18-4.58-4.18-7.24,0-2.67,1.87-3.75,4.18-2.42,2.31,1.33,4.18,4.58,4.18,7.24Z"/><path class="cls-6" d="m302.09,261.27c0,2.07-1.46,2.91-3.25,1.88-1.79-1.04-3.25-3.56-3.25-5.63,0-2.07,1.46-2.91,3.25-1.88,1.8,1.04,3.25,3.56,3.25,5.63Z"/><path class="cls-6" d="m301.66,261.03c0,1.8-1.26,2.53-2.83,1.63-1.56-.9-2.83-3.09-2.83-4.89,0-1.8,1.26-2.53,2.83-1.63,1.56.9,2.83,3.09,2.83,4.89Z"/><path class="cls-27" d="m301.24,260.78c0,1.53-1.08,2.15-2.41,1.39-1.33-.77-2.4-2.63-2.4-4.16s1.08-2.15,2.4-1.39c1.33.77,2.41,2.63,2.41,4.16Z"/><path class="cls-27" d="m300.59,260.41c0,1.12-.79,1.57-1.75,1.01-.97-.56-1.75-1.92-1.75-3.04s.79-1.57,1.75-1.01c.97.56,1.75,1.92,1.75,3.04Z"/><path class="cls-27" d="m300.08,260.12c0,.8-.56,1.12-1.25.72-.69-.4-1.25-1.37-1.25-2.17s.56-1.12,1.25-.72c.69.4,1.25,1.37,1.25,2.17Z"/><path class="cls-6" d="m286.32,254.66c0,2.67-1.87,3.75-4.18,2.41-2.31-1.33-4.18-4.58-4.18-7.24,0-2.67,1.87-3.75,4.18-2.42,2.31,1.33,4.18,4.58,4.18,7.25Z"/><path class="cls-6" d="m285.39,254.13c0,2.08-1.46,2.91-3.25,1.88-1.8-1.04-3.26-3.56-3.25-5.64,0-2.07,1.46-2.91,3.25-1.88,1.79,1.04,3.25,3.56,3.25,5.63Z"/><path class="cls-6" d="m284.96,253.88c0,1.8-1.26,2.53-2.82,1.63-1.56-.9-2.83-3.09-2.83-4.89,0-1.8,1.26-2.53,2.83-1.63,1.56.9,2.82,3.09,2.82,4.89Z"/><path class="cls-27" d="m284.54,253.64c0,1.53-1.08,2.15-2.4,1.39-1.33-.77-2.41-2.63-2.41-4.16s1.08-2.16,2.41-1.39c1.33.77,2.4,2.63,2.4,4.16Z"/><path class="cls-27" d="m283.89,253.26c0,1.12-.79,1.57-1.75,1.01-.97-.56-1.75-1.92-1.75-3.04s.78-1.57,1.75-1.01c.97.56,1.75,1.92,1.75,3.04Z"/><path class="cls-27" d="m283.38,252.97c0,.8-.56,1.12-1.25.72-.69-.4-1.25-1.37-1.25-2.17s.56-1.12,1.25-.72c.69.4,1.25,1.37,1.25,2.17Z"/><path class="cls-33" d="m418.43,251.38c63.74,36.8,63.74,96.47,0,133.27-63.74,36.8-167.09,36.8-230.83,0-63.74-36.8-63.74-96.47,0-133.28,63.75-36.8,167.09-36.8,230.83,0Z"/><path class="cls-36" d="m418.43,251.38c-63.74-36.8-167.09-36.8-230.83,0-63.74,36.8-63.74,96.47,0,133.28,63.74,36.8,167.09,36.8,230.83,0,63.74-36.8,63.74-96.47,0-133.27Zm-1.21,132.57c-63.07,36.42-165.34,36.42-228.41,0-63.07-36.42-63.07-95.46,0-131.88,63.07-36.42,165.34-36.42,228.41,0,63.07,36.42,63.07,95.46,0,131.88Z"/><g class="cls-49"><path class="cls-37" d="m401.23,170.96c54.24,31.32,54.24,82.1,0,113.42-54.25,31.32-142.19,31.32-196.44,0-54.25-31.32-54.25-82.1,0-113.42,54.25-31.32,142.19-31.32,196.44,0Z"/><path class="cls-38" d="m401.23,170.96c-54.25-31.32-142.19-31.32-196.44,0-54.24,31.32-54.24,82.1,0,113.42,54.24,31.32,142.19,31.32,196.44,0,54.24-31.32,54.24-82.1,0-113.42Zm-1.03,112.82c-53.68,30.99-140.7,30.99-194.38,0-53.68-30.99-53.68-81.24,0-112.23,53.68-30.99,140.7-30.99,194.38,0,53.67,30.99,53.67,81.24,0,112.23Z"/></g><path class="cls-42" d="m286.31,335.74v54.97c-25.88-2.28-50.78-9.18-70.72-20.69-9.79-5.65-17.65-12-23.58-18.76v-54.98c5.92,6.76,13.78,13.11,23.58,18.77,19.93,11.51,44.84,18.41,70.72,20.69Z"/><path class="cls-41" d="m422.87,291.89v42.29c-6.21,8.42-15.25,16.3-27.13,23.16-6.57,3.8-13.7,7.1-21.22,9.88v-42.29c7.51-2.78,14.63-6.08,21.22-9.88,11.88-6.86,20.93-14.76,27.13-23.16Z"/><path class="cls-32" d="m221.27,323.92c-2.84-1.39-5.61-2.84-8.27-4.38-5.86-3.38-11.14-7.06-15.8-10.98v40.71c5.51,5.94,12.56,11.41,20.98,16.26,1.01.58,2.04,1.15,3.08,1.72v-43.32Z"/><path class="cls-34" d="m224.7,156.36v39.81c-6.85,2.75-13.39,5.89-19.51,9.42-15.13,8.73-26.13,18.94-32.99,29.81v-39.81c6.86-10.89,17.86-21.1,32.99-29.83,6.11-3.53,12.65-6.67,19.51-9.41Z"/><path class="cls-31" d="m442.72,202.13v39.81c-6.27-13.31-18.47-25.89-36.59-36.34-4.29-2.48-8.8-4.76-13.47-6.86v-39.82c4.67,2.1,9.18,4.38,13.47,6.86,18.12,10.46,30.32,23.04,36.59,36.35Z"/><path class="cls-63" d="m112.59,383.28c0,5.88-4.13,13.03-9.22,15.97-5.09,2.94-9.22.56-9.22-5.32s4.13-13.03,9.22-15.97c5.09-2.94,9.22-.56,9.22,5.32Z"/><path class="cls-55" d="m112.59,349.46c0,5.88-4.13,13.03-9.22,15.97-5.09,2.94-9.22.56-9.22-5.32s4.13-13.03,9.22-15.97c5.09-2.94,9.22-.56,9.22,5.32Z"/><path class="cls-52" d="m112.59,315.64c0,5.88-4.13,13.03-9.22,15.97-5.09,2.94-9.22.56-9.22-5.32s4.13-13.03,9.22-15.97c5.09-2.94,9.22-.56,9.22,5.32Z"/><path class="cls-64" d="m112.58,281.82c0,5.88-4.13,13.03-9.22,15.97-5.09,2.94-9.22.56-9.22-5.32s4.13-13.03,9.22-15.97c5.09-2.94,9.22-.56,9.22,5.32Z"/><path class="cls-47" d="m112.58,248c0,5.88-4.13,13.03-9.22,15.97-5.09,2.94-9.22.56-9.22-5.32s4.13-13.03,9.22-15.97c5.09-2.94,9.22-.56,9.22,5.32Z"/><polygon class="cls-3" points="498.74 258.51 492.28 260.25 492.28 263.37 498.74 261.63 505.2 270.83 505.2 267.71 498.74 258.51"/><polygon class="cls-5" points="498.74 272.12 492.28 273.85 492.28 276.98 498.74 275.24 505.2 284.44 505.2 281.32 498.74 272.12"/><polygon class="cls-4" points="498.74 285.72 492.28 287.46 492.28 290.59 498.74 288.85 505.2 298.05 505.2 294.92 498.74 285.72"/><polygon class="cls-1" points="498.74 299.33 492.28 301.07 492.28 304.19 498.74 302.46 505.2 311.65 505.2 308.53 498.74 299.33"/><polygon class="cls-2" points="498.74 312.94 492.28 314.68 492.28 317.8 498.74 316.06 505.2 325.26 505.2 322.14 498.74 312.94"/></g></g></g></svg>