<?xml version="1.0" encoding="UTF-8"?><svg xmlns="http://www.w3.org/2000/svg" viewBox="0 0 378.22 286.32"><defs><style>.cls-1{fill:#ff8a33;}.cls-2{fill:#cc684e;}.cls-3{fill:#fff;}.cls-4{fill:#c1d1e5;}.cls-5,.cls-6{fill:#dcdbfd;}.cls-5,.cls-7{mix-blend-mode:multiply;opacity:.5;}.cls-8{fill:#ed56a8;}.cls-9{fill:#51e5e1;}.cls-10,.cls-11,.cls-12{fill:none;}.cls-10,.cls-13{opacity:.58;}.cls-14{fill:#413d99;}.cls-15{fill:#8179fa;}.cls-16{fill:#3e1f66;}.cls-17{fill:#242754;}.cls-18{fill:#ffbf9f;}.cls-19{fill:#e4ecf7;}.cls-20{fill:#b25644;}.cls-21{fill:#bf3c8a;}.cls-11{isolation:isolate;}.cls-7{fill:#b6b6f2;}.cls-22{fill:#f9c041;}.cls-23{fill:#c96353;}.cls-24{fill:#4a9973;}.cls-25{fill:#ffdd50;}.cls-26{fill:#572987;}.cls-27,.cls-13{fill:#ed8772;}.cls-28{fill:#5679db;}.cls-29{fill:#82cc6d;}.cls-30{fill:#2c52a8;}.cls-31{fill:#5fa847;}.cls-32{fill:#2e2e89;}.cls-33{fill:#70bc57;}.cls-34{fill:#2e1359;}.cls-35{fill:#bce56c;}.cls-12{stroke:#000;stroke-miterlimit:10;stroke-width:.5px;}.cls-36{fill:#fefefe;}.cls-37{fill:#38c6bb;}</style></defs><g class="cls-11"><g id="Layer_2"><g id="Layer_2-2"><path class="cls-19" d="m347.71,145.32c-3.97-52.12-16.98-84.96-51.5-103.97-34.52-19.01-114.84,8.5-142.17-20.7C126.72-8.55,69.09-1.9,69.39,52.75c.3,54.65-60.92,51.17-60.01,88.08.91,36.91,34.65,66.6,13.26,82.41-21.39,15.81-31.28,34.93-13.26,56.74h358c31.66-55.18-15.7-82.54-19.67-134.66Z"/><path class="cls-8" d="m64.05,87.38v6.84c0,1-1.21,1.49-1.91.78l-9.66-9.87,11.57,2.26Z"/><path class="cls-8" d="m18.02,65.44h46.03c6.06,0,10.97,4.91,10.97,10.97h0c0,6.06-4.91,10.97-10.97,10.97H18.02c-6.06,0-10.97-4.91-10.97-10.97h0c0-6.06,4.91-10.97,10.97-10.97Z"/><path class="cls-3" d="m17.59,70.67h46.89c.61,0,1.11.5,1.11,1.11v1.01c0,.61-.5,1.11-1.11,1.11H17.59c-.61,0-1.11-.5-1.11-1.11v-1.01c0-.61.5-1.11,1.11-1.11Z"/><path class="cls-3" d="m17.59,78.93h31.87c.61,0,1.11.5,1.11,1.11v1.01c0,.61-.5,1.11-1.11,1.11h-31.87c-.61,0-1.11-.5-1.11-1.11v-1.01c0-.61.5-1.11,1.11-1.11Z"/><ellipse class="cls-4" cx="188.37" cy="279.98" rx="179" ry="6.34"/><path class="cls-24" d="m118.88,73.34c-2.01-3.35-22.68-12.22-17.34-25.12,5.33-12.9,10.45-13.9,5.39-18.57-5.06-4.67-6.78-5.67-3.59-11.33,3.19-5.67-.89-12-2.68-16-1.79-4,10.54-3.33,14.54,6s-1,9,8.33,12.33c9.33,3.33,5,10,11,12.33,6,2.33,6.33,27.78,6.33,27.78l-21.99,12.57Z"/><path class="cls-24" d="m243.67,178.26s-.86-25.29,12.92-27.45c13.78-2.16,13.95-.16,19.45-3.24s6.5-4.92,11.5-4.42,4.54-1.17,8.85-3.33c4.32-2.17,5.82,5,2.15,12-3.67,7-7,9.76-13,11.38-6,1.62-7.17,2.28-9.5,5.36-2.33,3.09-2.91,7.47-6.37,9.7-3.46,2.22-2.82,1.66-5.63,6.29-2.81,4.63-37.78,25.63-39.62,22.47-1.83-3.17,19.25-28.76,19.25-28.76Z"/><path class="cls-29" d="m260.54,95.99s-7.33-6.67-13,4.33c-5.67,11-5,8.68-5.92,13.84-.92,5.16-3.42,6.35-6.42,9.59s-4.67,6.85-6,14.38c-1.33,7.53.17,18.69-1.33,23.94s-4.46,9.75-1.48,16.75c2.98,7,3.48,15.67,7.65,12.84,4.17-2.83,15.99-18.69,15.25-25.43-.75-6.74-1.63-8.5,3.94-12.12s2.98-10.45,1.31-13.62c-1.67-3.17-1.17-11.81,4.67-16.74,5.83-4.93-1.17-11.93-1.83-17.09-.67-5.17,4.83-8.17,3.17-10.67Z"/><path class="cls-31" d="m232.42,166.35l-.44-.24c.05-.09,5.04-9.33,9.4-23.09,4.36-13.77,6.72-27.56,6.74-27.7l.49.08c-.02.14-2.39,13.97-6.76,27.77-4.37,13.8-9.39,23.08-9.44,23.17Z"/><path class="cls-35" d="m79.56,29.74s7.6-7.66,15.11,3c7.51,10.67,6.52,8.36,8.08,13.56,1.56,5.2,4.5,6.14,8.21,9.13,3.71,2.99,5.96,6.52,8.23,14.1,2.27,7.58,1.71,19.21,3.93,24.44,2.22,5.23,6.02,9.52,3.37,17.04-2.65,7.53-2.34,16.48-7.33,14.04s-19.94-17.42-19.78-24.42c.16-7.01.98-8.91-5.68-12.01-6.65-3.1-4.42-10.41-2.86-13.85,1.56-3.44.12-12.27-6.96-16.68-7.08-4.41.11-12.38.34-17.76.23-5.38-6.28-7.85-4.65-10.6Z"/><path class="cls-33" d="m118.41,98.89l.47-.29c-.07-.09-6.63-9.02-12.94-22.67-6.32-13.66-10.37-27.56-10.41-27.7l-.55.14c.04.14,4.11,14.08,10.44,27.77,6.33,13.69,12.93,22.67,12.99,22.76Z"/><path class="cls-35" d="m230.01,206.77s9.83,2.52,20.12-8.55c10.29-11.07,3.86-33.19,3.86-33.19,0,0-10.35,5.37-17.06,14.13-6.71,8.77-6.93,27.6-6.93,27.6Z"/><path class="cls-33" d="m231.38,203.98c-.08,0-.16-.04-.22-.11-.1-.13-.08-.31.04-.41.1-.08,9.67-8.34,14.62-18.53,4.9-10.1,5.14-12.59,5.14-12.61.01-.16.15-.3.3-.27.15.01.27.15.26.31,0,.1-.2,2.53-5.2,12.84-5,10.31-14.67,18.64-14.76,18.72-.05.04-.11.07-.18.07Z"/><path class="cls-29" d="m128.22,48.13s8.75,5.15,21.71-2.63c12.96-7.78,12.92-30.82,12.92-30.82,0,0-11.43,2.29-20.31,8.85-8.88,6.56-14.31,24.6-14.31,24.6Z"/><path class="cls-24" d="m130.31,45.83c-.08-.02-.15-.08-.18-.17-.06-.15.01-.32.15-.39.11-.05,11.6-5.33,19.18-13.75,7.51-8.34,8.43-10.67,8.44-10.69.06-.15.23-.25.36-.18.14.05.22.22.16.37-.03.09-.9,2.38-8.56,10.89-7.67,8.51-19.26,13.84-19.38,13.89-.06.03-.13.03-.19.01Z"/><rect class="cls-17" x="114.18" y="43.41" width="119.05" height="235.98" rx="10.11" ry="10.11"/><path class="cls-9" d="m222.44,48.57h-34.87c-2.33,0-4.55,1.25-5.57,3.35-1.49,3.07-4.64,5.19-8.29,5.19s-6.79-2.12-8.29-5.19c-1.02-2.1-3.24-3.35-5.57-3.35h-34.87c-3,0-5.44,2.44-5.44,5.44v214.77c0,3,2.44,5.44,5.44,5.44h97.45c3,0,5.44-2.44,5.44-5.44V54c0-3-2.43-5.43-5.43-5.43Z"/><path class="cls-15" d="m179.27,185.54c-21.45,0-41.72,2.65-59.73,7.36v75.89c0,3,2.43,5.44,5.44,5.44h97.45c3,0,5.44-2.44,5.44-5.44v-78.46c-15.08-3.08-31.47-4.78-48.6-4.78Z"/><path class="cls-6" d="m208.1,176.86c-.9,1.23-1.59,1.96-1.59,1.96l-1.64-2.16s4.79-7.74,3.48-13.46c-1.31-5.71-8.98-13.71-8.98-13.71v-4.17s2.08,1.7,4.61,4.42c2.77,2.97,6.07,7.17,7.72,11.66,2.26,6.13-1.35,12.38-3.6,15.46Z"/><path class="cls-6" d="m154.04,139.99l-3.84,3.67s-6.75-3-12.33-8.54c-5.58-5.53-6.33-12.3-6.33-12.3l3-3.66s.02,1.33.91,3.81c.72,1.99,1.99,4.72,4.25,8.1,2.54,3.78,6.1,6,9.04,7.29,2.97,1.29,5.3,1.63,5.3,1.63Z"/><path class="cls-5" d="m137.87,135.12c-5.58-5.53-6.33-12.3-6.33-12.3l3-3.66s.02,1.33.91,3.81c-.77.35-1.36.76-1.58,1.27-1.14,2.64,6.62,10.5,11,13.37,1.08.71,2.39.89,3.87.75,2.97,1.29,5.3,1.63,5.3,1.63l-3.84,3.67s-6.75-3-12.33-8.54Z"/><path class="cls-5" d="m210.12,168.87c-1.73,4.2-3.34,6.22-2.02,7.99-.9,1.23-1.59,1.96-1.59,1.96l-1.64-2.16s4.79-7.74,3.48-13.46c-1.31-5.71-8.98-13.71-8.98-13.71v-4.17s2.08,1.7,4.61,4.42c-.07,1.65.25,3.41,1.27,5.13,3.5,5.87,7.24,8.24,4.87,14Z"/><path class="cls-6" d="m206.51,110.15c-.03,2.5-.54,5.18-1.64,7.96-1.63,4.14-3.79,7.96-7.15,10.66-.91.75-1.92,1.4-3.03,1.96-3.45,1.74-7.15,3.01-10.95,3.73-3.16.59-6.38.8-9.58.57-1.73-.12-3.48-.32-5.22-.6-4.12-.67-8.2-1.8-11.94-3.56-8.75-4.13-14.25-16-10.01-29.13.51-1.57,1.3-2.91,2.31-4.06,1.54-1.79,3.59-3.11,5.86-4.09,8.54-3.69,20.21-2.48,20.21-2.48,0,0,10.5-.5,19.5,2.38.36.12.72.24,1.07.38,5.57,2.2,9.64,7.22,10.43,13.66.01.05.02.09.02.13.1.8.14,1.64.12,2.49Z"/><path class="cls-3" d="m168.94,134.43c-4.12-.67-8.2-1.8-11.94-3.56-8.75-4.13-14.25-16-10.01-29.13,1.3-4,4.43-6.54,8.17-8.15,1.28,3.09,3.42,7.85,4.83,9.52,2,2.38,2.88,19.13,5.26,24.26,1.57,3.4,1.94,5.09,3.69,7.06Z"/><path class="cls-3" d="m206.51,110.15c-.03,2.5-.54,5.18-1.64,7.96-2.07,5.27-5,10.01-10.18,12.62-3.45,1.74-7.15,3.01-10.95,3.73.94-1.58,1.45-3.29,2.65-6.04,2.43-5.54,3.33-23.6,5.37-26.16,1.19-1.49,2.89-5.25,4.18-8.39,5.57,2.2,9.64,7.22,10.43,13.66.01.05.02.09.02.13.08.84.12,1.67.12,2.49Z"/><path class="cls-14" d="m195,121.71c-.16.25-.33.47-.51.66-.56.59-1.2,1.04-1.9,1.38-1.11.54-2.38.79-3.77.81-.76,0-1.55-.06-2.37-.18-1.95-.29-4.05-.92-6.2-1.77-2.75-1.07-4.84-1.32-6.9-1.03-1.98.28-3.93,1.06-6.41,2.09-.35.14-.7.29-1.07.44-5.75,2.38-10.38-.74-12.38-9-1.56-6.42.53-10.27,1.53-11.65.28-.4.47-.59.47-.59,0,0,1.1-.58,3.23-1.3,2.51-.84,6.46-1.88,11.77-2.4.89-.09,1.81-.16,2.78-.22.65-.03,1.32-.06,2.01-.08,1.28-.04,2.51-.02,3.68.04,1.78.09,3.42.28,4.93.54,7.53,1.29,11.85,4.29,12.98,5.04,1.41.94.83,13.1-1.87,17.22Z"/><path class="cls-32" d="m194.68,121.54c-1.11.54-2.38.79-3.77.81-.76,0-1.55-.06-2.37-.18-1.95-.29-4.05-.92-6.2-1.77-2.75-1.07-4.84-1.32-6.9-1.03-1.98.28-3.93,1.06-6.41,2.09-.35.14-.7.29-1.07.44-5.75,2.38-10.38-.74-12.38-9-1.23-5.07-.19-8.53.8-10.45-.59.25-.89.41-.89.41,0,0-.19.19-.47.59-1,1.38-3.09,5.23-1.53,11.65,2,8.26,6.63,11.38,12.38,9,.37-.15.72-.3,1.07-.44,2.48-1.03,4.43-1.81,6.41-2.09,2.06-.29,4.15-.04,6.9,1.03,2.15.85,4.25,1.48,6.2,1.77.82.12,1.61.18,2.37.18,1.39-.02,2.66-.27,3.77-.81.7-.34,1.34-.79,1.9-1.38.18-.19.35-.41.51-.66.11-.17.21-.35.32-.54-.21.13-.41.27-.64.38Z"/><path class="cls-5" d="m190.87,131.49c2.65-.71,4.92-1.65,6.85-2.72-.91.75-1.92,1.4-3.03,1.96-3.45,1.74-7.15,3.01-10.95,3.73-3.16.59-6.38.8-9.58.57-1.73-.12-3.48-.32-5.22-.6-4.12-.67-8.2-1.8-11.94-3.56-8.75-4.13-14.25-16-10.01-29.13.51-1.57,1.3-2.91,2.31-4.06-1.43,5.67-1.8,13.35,2.69,20.93,8.76,14.76,24.5,16.75,38.88,12.88Z"/><path class="cls-14" d="m176.02,91.09s.35-4.35-.19-8.18c-.54-3.83-1.37-6.46-1.37-6.46h-.75s.76,2.75,1.21,6.58c.45,3.83.23,8.06.23,8.06h.87Z"/><path class="cls-14" d="m176.38,74.88c0,1.4-1.13,2.53-2.53,2.53s-2.53-1.13-2.53-2.53,1.13-2.53,2.53-2.53,2.53,1.13,2.53,2.53Z"/><path class="cls-3" d="m202.23,150.24c-2.12,11.04-6.91,35.08-10.94,41.69-.35.58-.69,1.02-1.03,1.31-4.02,3.47-9.1,4.08-14.88,4.56v.07l-.39-.03-.39.03v-.07c-5.79-.48-10.86-1.09-14.88-4.56-4.2-3.63-9.68-31-11.97-43s8.66-13.87,13.75-13c4.19.72,11.15,1.02,13.49,1.1,2.33-.08,9.29-.38,13.49-1.1,1.05-.18,2.35-.24,3.73-.12,5.32.45,11.84,3.6,10.02,13.12Z"/><path class="cls-5" d="m191.29,191.93c-.35.58-.69,1.02-1.03,1.31-4.02,3.47-9.1,4.08-14.88,4.56v.07l-.39-.03-.39.03v-.07c-5.79-.48-10.86-1.09-14.88-4.56-4.2-3.63-9.68-31-11.97-43s8.66-13.87,13.75-13c4.19.72,11.15,1.02,13.49,1.1,2.33-.08,9.29-.38,13.49-1.1,1.05-.18,2.35-.24,3.73-.12,0,0-9.53,6.68-16.93,5.19-7.41-1.49-18.58-2.65-20.58,3.18-2,5.83,1.31,43.83,21.32,47.5,5.38.99,10.56.37,15.27-1.06Z"/><path class="cls-14" d="m121.58,112.75c-.62.39-.88,1.17-.6,1.84.9,2.18,3.26,6.7,7.64,7.89,5.83,1.58,8.5-3.6,8.75-6.09.17-1.69-.39-4.8-.77-6.63-.17-.81-.95-1.33-1.76-1.17h0c-.82.16-1.36.96-1.19,1.78.53,2.48,1.14,7.34-1.79,8.78-3.81,1.87-6.35-3.25-7.42-6.09-.33-.89-1.4-1.23-2.2-.73l-.68.42Z"/><path class="cls-14" d="m205.45,189.71c.71.16,1.45-.2,1.72-.88.9-2.18,2.43-7.05.18-10.98-3.01-5.24-8.55-3.47-10.49-1.88-1.31,1.08-3.12,3.67-4.14,5.23-.45.69-.27,1.61.42,2.07h0c.7.47,1.64.29,2.1-.42,1.38-2.12,4.39-5.99,7.47-4.94,4.02,1.37,2.19,6.79.94,9.55-.39.86.12,1.86,1.04,2.07l.78.18Z"/><ellipse class="cls-7" cx="175.27" cy="219.23" rx="30.54" ry="6.19"/><circle class="cls-36" cx="164.62" cy="111.99" r="2.5"/><circle class="cls-36" cx="187.12" cy="111.99" r="2.5"/><path class="cls-6" d="m164.02,149.51s-.1,27.29,9.16,33.23c9.27,5.94,15.27-33.6,12.77-35.45-2.5-1.85-7.42,1.56-12.42.9-5-.67-8.87-3.34-9.52,1.33Z"/><path class="cls-14" d="m181.57,156.89c0,3.49-2.83,6.32-6.32,6.32s-6.32-2.83-6.32-6.32,2.83-6.32,6.32-6.32,6.32,2.83,6.32,6.32Z"/><path class="cls-3" d="m178.51,156.89c0,1.8-1.46,3.26-3.26,3.26s-3.26-1.46-3.26-3.26,1.46-3.26,3.26-3.26,3.26,1.46,3.26,3.26Z"/><path class="cls-14" d="m178.51,170.15c0,1.8-1.46,3.26-3.26,3.26s-3.26-1.46-3.26-3.26,1.46-3.26,3.26-3.26,3.26,1.46,3.26,3.26Z"/><path class="cls-18" d="m90.45,281.49c-3.08.42-10.5-.67-12.25-1.33-1.71-.65-1.43-2.33-1.03-6.52,0-.1.02-.21.03-.32.42-4.41.42-9.83.42-9.83l7.33-.67s-.83,3.25-1.25,5.25c-.41,2,1.17,4.75,2.41,5.84.45.39,1.86.89,3.53,1.42,2.9.93,6.57,1.98,7.31,2.83,1.17,1.33-3.41,2.91-6.5,3.33Z"/><path class="cls-8" d="m90.45,281.49c-3.08.42-10.5-.67-12.25-1.33-1.71-.65-1.43-2.33-1.03-6.52,2.4,1.66,5.8,3.63,8.2,3.43,1.87-.15,3.28-.93,4.27-1.74,2.9.93,6.57,1.98,7.31,2.83,1.17,1.33-3.41,2.91-6.5,3.33Z"/><path class="cls-18" d="m41.04,277.49c-3.59-1.08-10.84-4.42-12-6.58-1.05-1.94,1.24-3.95,3.17-6.14.23-.26.45-.52.66-.78,2-2.5,5.33-8.42,5.33-8.42l5.42,4.17s-1.58,1.83-2.75,3.42c-1.17,1.58-2,3.5-.67,6.33.35.74.87,1.43,1.46,2.09,1.68,1.88,3.94,3.49,4.38,4.91.58,1.92-1.42,2.08-5,1Z"/><path class="cls-8" d="m41.04,277.49c-3.59-1.08-10.84-4.42-12-6.58-1.05-1.94,1.24-3.95,3.17-6.14.32,1.91,1.15,4.11,3.16,5.47,2.54,1.73,4.87,1.66,6.29,1.34,1.68,1.88,3.94,3.49,4.38,4.91.58,1.92-1.42,2.08-5,1Z"/><path class="cls-26" d="m86.25,263.74c-.03.12-.08.23-.14.33-1.16,1.93-7.42.91-8.49.8-1.13-.13-1-.76-1-4.18s-1.37-21.58-.75-30.7c.59-8.62-1.28-15.88-1.48-16.64-.02-.05-.02-.07-.02-.07,0,0-.38,2.59-.88,6.71s-2.37,7.25-9.74,17.5c-7.38,10.25-18.26,22.5-19.26,23.12-1,.63-6.12-2.74-7.24-3.87-1.13-1.13,21-33.75,21.87-35.37.87-1.63-4-33-3.87-37,.12-4,6.31-18.5,6.31-18.5l18.39,1.53s7.92,36.59,8.42,49.34-1.5,44.63-2.12,47Z"/><path class="cls-2" d="m76.25,118.87s2.37-2.82,2.43-6.57c.06-3.75-2.94-4.12-3.06-4.38s-3.56-4.12-8.06-4.44-7.75,3.69-7.75,3.69c0,0-7.19-.63-8.62,4-1.44,4.63,1.81,6.44,0,10.88-1.81,4.44-2.87,9.19-.12,12s12.9,1.38,13.92-1.25c1.02-2.63.58-6.88,1.14-10.38.56-3.5,10.13-3.55,10.13-3.55Z"/><path class="cls-18" d="m64.45,130.66s.75-1.5.55-4.5c-.21-3-.58-5.54-1.46-6.17s-1.75-1.5-1.04-2.92c.71-1.42,1.74-1.29,2.54-1.08.8.21,4.63-1.62,6.71-4.33,2.08-2.71,2.83-2.5,3.71-1.5s.96,2.67.96,5.25-.33,7.5-1.58,9.33c-1.25,1.83-2.79,2.12-2.79,2.12,0,0,0,1.75.58,2.92.58,1.17.83,1.29.83,1.29,0,0,2.09,5.42-.58,7.13-2.67,1.71-4.04,1.17-6.12-1.92-2.08-3.08-2.3-5.62-2.3-5.62Z"/><path class="cls-18" d="m85,159.95c.2.62,2.58,5.12,5.08,5.79,2.5.67,3.58-1.4,4.79-2.74,1.21-1.34,8.12-18.34,9.54-20.01,1.42-1.67,4.29-4.12,5.25-6.62.96-2.5.96-4.75,0-4.88-.96-.12-4.17,3.08-4.75,3.29-.58.21-.37-1-.75-1.5s-1.83,1.5-2,3.17c-.17,1.67-.12,4.42-.58,5-.46.58-6.12,7.58-7.83,10.02-1.71,2.44-3.21,5.19-3.21,5.19l-.87-2.46-4.67,5.75Z"/><path class="cls-8" d="m89.2,156.66c-.21.26-.66.69-1.18,1.17h-.01c-1.09,1-2.53,2.23-2.81,2.74-.41.75-2.75-6.33-2.75-6.33,0,0-.16,1.5-.58,4.25s-1.17,6.67-1.17,8.42c0,.26-.01.47-.05.65-.16.83-.9.93-4,1.19-.77.06-1.69.14-2.78.24-6.42.58-12.08-.67-12.92-.92-.73-.22-1.08-1.35-.4-4.37.09-.4.2-.83.32-1.29,1.08-4-2.75-13.25-2.75-13.25,0,0,0,.01-.01.04-.15.6-2.05,8.06-3.49,8.54-.07.02-.16.04-.25.05-1.56.18-5.58-1.55-6.76-2.35-.17-.12-.28-.21-.32-.28-.34-.59,5.33-18.09,6.83-20.92,1.5-2.83,10.33-3.58,10.33-3.58.13,1.58,1.59,3.79,2.71,5.12,1.13,1.34,4.67,3.79,6,.96,1.34-2.83.29-5.67.29-5.67,0,0,6.59.67,8.5,1.17,1.92.5,7.09,18.08,7.5,19.5.42,1.42.59,2.42.84,3.25.25.83-.42.83-1.09,1.67Z"/><path class="cls-21" d="m80.65,167.56c-.2,1.04-1.3.93-6.78,1.43-6.42.58-12.08-.67-12.92-.92-.83-.25-1.16-1.66-.08-5.66s-2.75-13.25-2.75-13.25l1.94-5.73s-.63,7.75,1,11.44c1.62,3.68,1.31,9.37,6,9.18,4.69-.18,8.62-1.05,8.31.01-.31,1.05-.63,1.97,2.31,2.81.89.25,1.99.45,2.97.69Z"/><path class="cls-21" d="m88.01,157.83c-1.09,1-2.53,2.23-2.81,2.74-.41.75-2.75-6.33-2.75-6.33,0,0,.48-2.81.8-4.81.31-2-.34-4.25-.8-5.13-.43-.82-1.06-1.86-1.13-1.99.22.19,3.04,2.77,2.74,6.68-.31,4.06,1.72,9.87,3.95,8.84Z"/><path class="cls-18" d="m75.12,167.11c-1.25-.74-2.56-.31-1.63-1.37.94-1.06.57-1.69-.56-1.19-1.12.5-1.62,1.5-4.12,1.13-1.46-.22-5.12-1.12-8.26-1.98-2.24-.62-4.22-1.21-4.93-1.52-1.69-.75-2.31-1.11-2.19-1.55.08-.26.55-1.69.94-2.84-1.56.18-5.58-1.55-6.76-2.35-.59,2.27-1.74,7.36-.74,9.61,1.31,2.94,8.06,4.12,11.69,4.09,3.62-.03,9.5.1,11.87.73,2.38.62,4.52,1.17,5.69,0,.41-.41.56-.78.53-1.12-.05-.63-.72-1.15-1.53-1.64Z"/><polygon class="cls-27" points="90.54 156.65 89.87 158.53 90.21 155.44 90.54 156.65"/><path class="cls-27" d="m72.04,126.86s-2.67.08-3.83-.92c-1.17-1-2.08-2.29-2.08-2.29,0,0,3.46,7.04,4.42,6.54.96-.5,1.5-3.33,1.5-3.33Z"/><path class="cls-20" d="m64.84,124.31s-4.65.55-6.09-1.26c-1.44-1.81-.94-5.88-.62-7.62.31-1.75.44-2.56.44-2.56,0,0-1.25,1.69-1.5,7s4.37,5.88,5.75,5.94,2.16,0,2.16,0l-.13-1.49Z"/><path class="cls-34" d="m86.11,264.07c-1.16,1.93-7.42.91-8.49.8-1.13-.13-1-.76-1-4.18s-1.37-21.58-.75-30.7c.59-8.62-1.28-15.88-1.48-16.64-.02-.05-.02-.07-.02-.07,0,0,.5-8.91,0-15.79s-1-11.88-1-11.88c0,0,1.75,5.88,4.38,25.63,2.62,19.75-.76,39.13,0,47,.48,5.08,5.13,5.89,8.36,5.83Z"/><path class="cls-27" d="m356.03,272.49c.14,2.26,1.01,4.66.87,5.77-.17,1.28-2.03,1.86-5.12,2-3.1.14-10.01.51-11.19-.77-1.17-1.28,3.39-1.69,4.8-2.54.57-.34,1.36-.81,2.17-1.52,1.19-1.04,2.44-2.62,3.12-5.1,1.15-4.18-1.75-34.39-1.75-34.39l9.58-1.22s.2,2.88-.55,10.83c-.76,7.95-1.75,23.33-1.93,25.87-.03.36-.02.72,0,1.09Z"/><path class="cls-26" d="m356.9,278.26c-.17,1.28-2.03,1.86-5.12,2-3.1.14-10.01.51-11.19-.77-1.17-1.28,3.39-1.69,4.8-2.54.57-.34,1.36-.81,2.17-1.52.69.56,1.57.72,2.69.07,2.73-1.58,4.34-2.97,5.78-3,.14,2.26,1.01,4.66.87,5.77Z"/><path class="cls-27" d="m327.98,270.74c-.15,2.26.42,4.75.14,5.83-.33,1.25-2.25,1.59-5.33,1.34-3.09-.25-10-.75-11-2.17-1-1.42,3.58-1.25,5.08-1.92.61-.27,1.45-.63,2.34-1.24,1.31-.88,2.75-2.29,3.74-4.67,1.67-4,2.59-34.34,2.59-34.34h9.66s-.16,2.88-1.91,10.67c-1.75,7.79-4.67,22.92-5.17,25.42-.07.35-.11.71-.14,1.08Z"/><path class="cls-26" d="m328.12,276.57c-.33,1.25-2.25,1.59-5.33,1.34-3.09-.25-10-.75-11-2.17-1-1.42,3.58-1.25,5.08-1.92.61-.27,1.45-.63,2.34-1.24.61.64,1.47.91,2.66.41,2.91-1.22,4.68-2.4,6.11-2.25-.15,2.26.42,4.75.14,5.83Z"/><path class="cls-27" d="m332.5,168.57s-2.18,7.23,1.98,8.36,7.65-6.32,5.4-8.25c-2.25-1.94-7.38-.11-7.38-.11Z"/><path class="cls-26" d="m354.7,237.07c-5.91.25-10.25.09-11-.62-.75-.7-1.75-29.13-1.75-29.13,0,0-1.33,4.42-1.5,9.75-.16,5.34-.58,16.17-1.5,18.34-.91,2.16-11.16.41-15.66-.34-2-.33-2.77-1.34-2.87-2.79-.14-1.79.75-4.27,1.53-6.96,1.42-4.83,3.25-10.91,5.59-23.83,2.33-12.92,8.75-32.92,8.75-32.92l19.91.59s2.59,5.41,3.34,11.75c.75,6.33.41,23.16.66,28.91s2.59,20.92,3.17,24.84c.58,3.91-2.75,2.16-8.67,2.41Z"/><path class="cls-34" d="m341.95,207.32s-1.33,4.42-1.5,9.75c-.16,5.34-.58,16.17-1.5,18.34-.91,2.16-11.16.41-15.66-.34-2-.33-2.77-1.34-2.87-2.79,6.12,1.38,15.6-.7,18.12-10.79,3-12,2.5-41.58,2.5-41.58l.91,27.41Z"/><path class="cls-27" d="m338.75,110.61s-3.37,14.88.69,22.12c4.06,7.25,14.06,3.75,14.56-4.25s-1.05-20.75-7.34-20.75-6.04-1.62-7.91,2.88Z"/><path class="cls-17" d="m324.67,144.74h3.53c.27,0,.53.11.71.3l3.59,3.67c.62.63.17,1.7-.72,1.7h-3.97c-.29,0-.57-.13-.76-.35l-3.14-3.67c-.56-.65-.1-1.65.76-1.65Z"/><path class="cls-22" d="m356.56,138.22c-.3,4.49,1.14,11.39,1.14,11.39,0,0-1.5,6.13-2.75,9.13s1.5,8.75,1.25,10.42c-.25,1.66-13.75,1.75-17,1.41-.58-.06-1.07-.12-1.49-.19-1.94-.33-2.3-.72-2.3-.72,0,0-1.29.66-3.04.41-.63-.09-.94-.26-1.05-.64-.18-.69.26-2.08.63-5.02.21-1.65.59-5.87,1-10.71.21-2.42.42-4.99.63-7.47.53-6.42,1-12.23,1.12-13.16.25-2,4.84-4.58,4.84-4.58,0,0,.16,4.17,2.5,5.17,2.33,1,6.75-1,8.16-2.5,1.42-1.5,4.09-4.25,4.09-4.25,0,0,2.83.75,4.33,1.58,1.5.83,3.42,4.25,3.42,4.25,0,0-1.67-.08-4.34,2-.71.55-1.04,1.86-1.14,3.48Z"/><g class="cls-10"><path class="cls-1" d="m335.29,164.16c-.34,2.5-1.76,4.16.12,5.5,0,0-1.29.66-3.04.41-.63-.09-.94-.26-1.05-.64,1.1.27,2.15.11,2.47-1.27.75-3.25,2.5-11.67.66-13.42-.52-.49-1.03-.81-1.5-1.04.21-2.42.42-4.99.63-7.47.5.82.78,1.1.87-.32.17-2.42,1.84-8.25,3.17-7.75,0,0-2.33,4.08-2.33,7.41s.75,6.67.75,8.84-.42,7.25-.75,9.75Z"/></g><path class="cls-27" d="m342.31,151.67s-4.53-3.34-6.75-4.09c-2.22-.75-3.94-.06-2.94,1.03,1,1.09.88,1.12-.88.62s-4.81-2.15-4.34-.42c.47,1.73,4.34,3.86,6.69,4.51,2.34.66,6.72,1.03,6.72,1.03l1.5-2.69Z"/><path class="cls-17" d="m340.68,109.17s4.44-.69,6.5,1.44c2.06,2.12,1.69,6.31.82,10.56s-.19,8.79,3.68,8.83,6.19-1.83,6.75-6.83c.56-5-2.81-5.31-3.5-8.38-.69-3.06-3.05-10.88-8.27-10.88s-5.98,2.06-5.98,2.06c0,0-4.37.69-4.69,5.12-.31,4.44.62,5.12-1.19,9.19-1.81,4.06-4.85,7.19-3.49,10.56,1.36,3.38,3.15,4.65,3.15,4.65,0,0-.34-2.77,1.22-4.15,1.57-1.38,3.85-2.88,3.85-2.88,0,0,3.11-1.64,3.14-1.94.04-.34-.14-1.93-.14-1.93-1.95-.83-3.28-4.54-3.6-7.68-.74-7.28,1.74-7.77,1.74-7.77Z"/><path class="cls-23" d="m342.55,124.62s.33.37,1.76-.2c1.44-.56,2.75-2,2.75-2,0,0-.77,3.67-4.37,4.12,0-.65-.14-1.93-.14-1.93Z"/><g class="cls-10"><path class="cls-1" d="m356.2,169.16c-.25,1.66-13.75,1.75-17,1.41-.58-.06-1.07-.12-1.49-.19,1.86-1.95,8.89-1.8,13.16-3.39,5.38-2,0-4.38-6.13-7.38-6.14-3-5.3-4.84-5.3-4.5-.01.35,2.16-3.94,2.16-3.94,0,0,1.52-1.18,5.46.2,3.93,1.37,8.06,1.12,7.02-3.8-1.04-4.91,1.21-10.08,1.21-10.08,0,0,.48.26,1.27.73-.3,4.49,1.14,11.39,1.14,11.39,0,0-1.5,6.13-2.75,9.13s1.5,8.75,1.25,10.42Z"/></g><path class="cls-25" d="m362.04,132.74s5.33,16.67,5.33,21.5-2.58,8.5-4.83,8.92c-2.25.42-18.83-5-21.08-6.33s-2.5-1.67-1.33-3.83c1.17-2.17,2.25-2.5,3.83-1.83,1.58.67,15.42,4.42,15.08,3.5-.33-.92-3.7-13.45-3.75-17.17-.08-6.33,2.25-10.5,6.75-4.75Z"/><path class="cls-28" d="m275.49,231.68c0,1.69-4.93,2.56-5.81,3.56-.87,1-2.25,14-2.19,16v.05c-.04,2.06-6.24,8.7-12.81,9.51-6.62.81-18.19-5-21.56-7.31-3.15-2.16-1.55-3.29-.88-6.85.05-.24.09-.5.13-.77.56-4.19,2.62-10.38,2.62-10.38,0,0-8.12-5.12-8.56-5.81s2.75-8.07,6.44-12.44,15.62-4.19,15.62-4.19c0,0,0,.02-.02.06-.01.03-.02.07-.02.13-.02.22.04.64.42,1.37.62,1.19,4.69,4.5,6.62,4.19,1.94-.31,2.13-3.31,2.13-3.31,0,0,.31.12,2.06-.06.19-.02.35-.05.5-.09.83-.11,1.26-.34,1.7-1,1.23.43,4.72,1.72,6.24,2.84,1.87,1.37,7.37,12.81,7.37,14.5Z"/><path class="cls-30" d="m267.49,251.24v.05c-.04,2.06-6.24,8.7-12.81,9.51-6.62.81-18.19-5-21.56-7.31-3.15-2.16-1.55-3.29-.88-6.85.48-.78,1.02-1.43,1.63-1.9,3.12-2.37,28.63-5.49,28.63-5.49,0,0-21.91,7.86-18.83,11.12,3.08,3.24,4.67,5.24,12.31,1.87,7.64-3.37,8.52-5.62,8.52-5.62l2.99,4.62Z"/><path class="cls-17" d="m249.09,206.99s-2.72.75-2.72-5.25,1.85-14.08,10.22-13c8.37,1.08,13.62-.17,13.03,5.33-.58,5.5-3.69,4.73-3.69,4.73,0,0-6.89,2.77-10.31,4.44-3.42,1.67-6.53,3.75-6.53,3.75Z"/><path class="cls-18" d="m265.93,198.8s-.25,7.44-2.44,12.19c-.78,1.7-1.2,2.72-1.61,3.35-.44.66-.87.89-1.7,1-.6.07-1.4.09-2.56.15,0,0-.19,3-2.13,3.31-1.93.31-6-3-6.62-4.19-.38-.73-.44-1.15-.42-1.37,0-.04.01-.09.02-.13.01-.02.01-.04.02-.06,0,0,1.88-.5,1.5-3.37-.37-2.88-.37-2.19-1.5-3.13-1.12-.94-1.62-1.62-.93-2.94.69-1.31.78-2.43,2.48-.87,1.71,1.56,2.39,1.06,2.95-.25.57-1.31.19-2.94,1.13-4s2.56-.56,4.19,0c1.62.56,3.75,1.06,5.44.75,1.68-.31,2.18-.44,2.18-.44Z"/><path class="cls-27" d="m257.62,215.49s-3-.5-4.58-2l-1.58-1.5s2.05,3.98,3.83,4.75c1.78.77,2.33-1.25,2.33-1.25Z"/><path class="cls-30" d="m240.12,229.44s-1.46,4.22-2.83,5.42c-1.37,1.21-2.3.62-2.3.62,0,0-.53,1.7-.46,1.47.07-.23,2.55-.68,3.55-1.72,1-1.04,2.04-5.8,2.04-5.8Z"/><path class="cls-18" d="m275.29,246.97c-1.25,4.19-4.6,5.69-7.8,4.27-1.82-.81-2.66-2.68-2.91-4.79-.18-1.6-.03-3.34.29-4.88.75-3.58.8-5.12.8-5.12,0,0,1.58-.55,3.47-1.28,2.39-.92,5.28-2.13,6.15-2.93,0,0,1.26,10.54,0,14.73Z"/><path class="cls-18" d="m269.43,234.11c0,.08-.01.16-.03.23-.04.29-.13.56-.26.82h0c-.68,1.41-2.35,2.46-3.21,3.27-.22.21-.4.37-.56.51-.64.51-1.15.58-3.62.93-3.13.43-6.76,1.12-9.88,2.43s-19.12,6.75-19.12,6.75c0,0-1.08-.18-3.13-.71-2.05-.53-3.37-.29-4.37-.04s-3.69-.75-3.44-4.06,5.06-14.15,5.06-14.15l8.12,5.4-.76,2.45s18.52-2.64,19.7-3.26c1.19-.63,5.94-3.94,6.88-4.81.74-.69,1.24-.46,1.51.07.07.14.13.31.17.49.09.4-.25.79-.7,1.17-.46.39-1.04.76-1.42,1.14-.28.28.17.36.95.32,1.32-.06,3.59-.45,4.86-.76.83-.21,1.56-.26,2.11-.11h.01c.77.2,1.21.8,1.13,1.92Z"/><path class="cls-27" d="m234.23,237.94s-4.73.92-4.17.67c.56-.25,4.93-3.12,4.93-3.12l-.76,2.45Z"/><path class="cls-18" d="m286.41,279.82c-2.54,1.21-11.75,1.38-13.92.92-2.14-.46-3.48-1.69-4.67-3.41,0-.01-.02-.03-.03-.04-1.21-1.74-5.21-2.01-5.46-2.01l3.34-6.54s5.62,2.63,6.99,3.04c.8.24,3.3-.14,5.8-.54,1.79-.28,3.58-.58,4.74-.67,2.8-.2,5.21,1.34,5.96,3.84s-.21,4.2-2.75,5.41Z"/><path class="cls-28" d="m286.41,279.82c-2.54,1.21-11.75,1.38-13.92.92-2.14-.46-3.48-1.69-4.67-3.41.55.22,1.11.51,1.51.91,1.08,1.08,5.87,1.92,7.33,1,1.46-.92.08-2.35.63-4.38.34-1.27.5-2.68,1.17-3.62,1.79-.28,3.58-.58,4.74-.67,2.8-.2,5.21,1.34,5.96,3.84s-.21,4.2-2.75,5.41Z"/><path class="cls-16" d="m249.02,257.78s22.36-11.46,26.86-10.79c4.5.67,10.08,2.08,11.5,6.58,1.42,4.5-2.42,8.92-6.5,11.75-4.08,2.83-27.25,11.35-28.5,11.97-1.25.62-2.91,1.89-4.67.7-1.75-1.19-4.67-6.61-3.92-7.26.75-.65,13.35-8.68,13.35-8.68l-8.12-4.27Z"/><path class="cls-18" d="m272.95,233.78c-1.98,1.27-3.81,1.39-3.81,1.39h0c.13-.27.22-.54.26-.83.02-.07.03-.15.03-.23.08-1.12-.36-1.72-1.13-1.92.54-.09,1.47-.27,1.88-.58.59-.45.19-.95-2.52-1.91-2.71-.96,2.74-.68,3-.67.49.03,1.05.18,1.62.42,1.17.48,2.35,1.34,2.8,2.21.66,1.29-.14.86-2.13,2.12Z"/><path class="cls-13" d="m272.95,233.78c-1.98,1.27-3.81,1.39-3.81,1.39h0c.13-.27.22-.54.26-.83.02-.07.03-.15.03-.23.08-1.12-.36-1.72-1.13-1.92.54-.09,1.47-.27,1.88-.58.59-.45.19-.95-2.52-1.91-2.71-.96,2.74-.68,3-.67.49.03,1.05.18,1.62.42,1.17.48,2.35,1.34,2.8,2.21.66,1.29-.14.86-2.13,2.12Z"/><path class="cls-17" d="m273.99,225.56l-1.71,3.89c-.57-.24-1.13-.39-1.62-.42-.26-.01-5.71-.29-3,.67,2.71.96,3.11,1.46,2.52,1.91-.41.31-1.34.49-1.88.58h-.01c-.55-.15-1.28-.1-2.11.11-1.27.31-3.54.7-4.86.76l.47-1.46c.45-.38.79-.77.7-1.17-.04-.18-.1-.35-.17-.49l1.93-6c.14-.46.59-.74,1.07-.69l7.87.92c.67.07,1.07.78.8,1.39Z"/><path class="cls-12" d="m261.79,231.6l.53-1.66c.07.14.13.31.17.49.09.4-.25.79-.7,1.17Z"/><path class="cls-13" d="m266.96,245.89c.22-1.36,1.05-7.08-2.38.56-.18-1.6-.03-3.34.29-4.88.22-1.05.38-1.92.5-2.63.16-.14.34-.3.56-.51.86-.81,2.53-1.86,3.21-3.26l-2.18,10.72Z"/><path class="cls-26" d="m266.37,267.57s-.08,5.25-2.42,7.83c-2.33,2.58-4.08,1.92-5.92,1.42-1.83-.5-13,.67-22.08-.75-9.08-1.42-12.83-3.58-15.67-10.25-2.83-6.67-4.15-15.21,3.97-17.58,8.11-2.37,13.78,3.33,20.11,7,6.33,3.67,22.07,11.28,22,12.33Z"/><path class="cls-16" d="m243.69,271.35l-15.82-7.7s8.75,5.56,8.5,7.07c-.25,1.51-6.36,1.43-6.36,1.43,0,0,6.61.92,10.11.83,3.5-.08,3.92-.45,3.92-.45l-.35-1.18Z"/><path class="cls-18" d="m227.42,280.37c2.54,1.21,11.75,1.38,13.92.92,2.14-.46,3.48-1.69,4.67-3.41.01-.01.02-.03.03-.04,1.21-1.74,5.21-2.01,5.46-2.01l-3.34-6.54s-5.62,2.63-6.99,3.04c-.8.24-3.3-.14-5.8-.54-1.79-.28-3.58-.58-4.74-.67-2.8-.2-5.21,1.34-5.96,3.84s.21,4.2,2.75,5.41Z"/><path class="cls-28" d="m227.42,280.37c2.54,1.21,11.75,1.38,13.92.92,2.14-.46,3.48-1.69,4.67-3.41-.55.22-1.11.51-1.51.91-1.08,1.08-5.87,1.92-7.33,1-1.46-.92-.08-2.35-.63-4.38-.34-1.27-.5-2.68-1.17-3.62-1.79-.28-3.58-.58-4.74-.67-2.8-.2-5.21,1.34-5.96,3.84s.21,4.2,2.75,5.41Z"/><polygon class="cls-34" points="258.4 262.72 271.79 254.15 255.98 261.44 258.4 262.72"/><path class="cls-9" d="m279.09,103.56h39.53c5.2,0,9.42,4.22,9.42,9.42h0c0,5.2-4.22,9.42-9.42,9.42h-39.53c-5.2,0-9.42-4.22-9.42-9.42h0c0-5.2,4.22-9.42,9.42-9.42Z"/><path class="cls-9" d="m318.62,122.41v5.87c0,.86-1.04,1.28-1.64.67l-8.3-8.48,9.94,1.94Z"/><circle class="cls-3" cx="313.92" cy="112.98" r="2.04"/><circle class="cls-3" cx="303.55" cy="112.98" r="2.04"/><circle class="cls-3" cx="294.17" cy="112.98" r="2.04"/><path class="cls-3" d="m281.75,112.98c0,1.13.91,2.04,2.04,2.04s2.04-.91,2.04-2.04-.91-2.04-2.04-2.04-2.04.91-2.04,2.04Z"/><ellipse class="cls-15" cx="238.02" cy="63.67" rx="33.77" ry="18.23"/><path class="cls-15" d="m216,72.73c-1.47,6.86-4.91,11.4-9.52,15.48,15.27-.35,22.75-11.88,22.75-11.88,0,0-12.51-6.95-13.23-3.6Z"/><rect class="cls-3" x="215.74" y="58.4" width="44.88" height="3"/><rect class="cls-3" x="215.74" y="65.94" width="38.33" height="3"/><rect class="cls-37" x="140.9" y="242.1" width="65.62" height="18.51" rx="8.21" ry="8.21"/><rect class="cls-9" x="140.9" y="240.81" width="65.62" height="18.51" rx="8.21" ry="8.21"/></g></g></g></svg>