<?xml version="1.0" encoding="UTF-8"?><svg id="Layer_2" xmlns="http://www.w3.org/2000/svg" viewBox="0 0 6505.22 1283.98"><defs><style>.cls-1{fill:#a4d71c;}.cls-2{font-size:640px;}.cls-2,.cls-3{fill:#004a63;}.cls-4{letter-spacing:0em;}.cls-4,.cls-5{font-family:TitilliumWeb-Bold, 'Titillium Web';font-weight:700;}.cls-6{font-family:TitilliumWeb-Regular, 'Titillium Web';}</style></defs><g id="Layer_1-2"><path class="cls-3" d="m1305.9,653.81c0,268.02-161.2,498.28-391.92,599.16,45.47-193.22,32.27-347.92-2.55-466.14-30.74-104.39-94.31-191.3-176.83-251.69l80.03-123.96c26.53,4.08,54.27-7.33,69.76-31.31,20.98-32.59,11.61-76.07-20.98-97.05-32.59-21.04-76.01-11.67-97.05,20.92-15.43,24.04-14.41,53.88.25,76.39l-80.03,124.03c-89.02-50.25-194.36-72.31-302.13-57.26-111.34,15.5-242.83,59.88-384.46,159.36C24.36,267.31,307.04,0,652.09,0s653.81,292.69,653.81,653.81Z"/><path class="cls-1" d="m807.87,1181.74c-21.94,82.9-110.76,127.28-186.65,87.43-65.87-34.56-107.19-141.63-233.9-223.38-126.64-81.69-264.06-89.91-322.73-135.7-9.37-7.27-17.35-15.5-23.98-24.36-17.98-23.85-26.08-52.48-24.81-81.05,1.66-37.18,19.13-74.29,51.52-100.69,127.41-103.88,246.21-147.05,344.41-160.76,79.52-11.1,157.31,4.4,223.7,40.24,16.77,9.05,32.84,19.39,48.02,30.99,60.01,45.72,106.24,110.19,128.87,187.22,27.99,95.08,37.62,221.15-4.46,380.05Z"/><path class="cls-3" d="m402.74,741.6l-41.58,64.45c-9,13.95-27.58,17.96-41.48,9-13.95-9-17.96-27.58-8.96-41.54l41.58-64.45c8.97-13.9,27.55-17.91,41.5-8.91,6.95,4.48,11.43,11.37,13.04,18.87,1.62,7.5.38,15.62-4.11,22.57Z"/><path class="cls-3" d="m685.78,924.2l-41.58,64.45c-9,13.95-27.58,17.96-41.48,9-13.95-9-17.96-27.58-8.96-41.54l41.58-64.45c8.97-13.9,27.55-17.91,41.5-8.91,6.95,4.48,11.43,11.37,13.04,18.87,1.62,7.5.38,15.62-4.11,22.57Z"/><text class="cls-2" transform="translate(1505.01 806.63)"><tspan class="cls-5" x="0" y="0">DIA</tspan><tspan class="cls-4" x="976.62" y="0">L</tspan><tspan class="cls-5" x="1274.85" y="0">OGIX</tspan><tspan class="cls-6" x="2630.35" y="0" xml:space="preserve"> STUDIO </tspan></text></g></svg>