<?xml version="1.0" encoding="UTF-8"?><svg id="Layer_2" xmlns="http://www.w3.org/2000/svg" viewBox="0 0 857.58 865.89"><defs><style>.cls-1{fill:#a0c43a;}.cls-1,.cls-2{stroke-width:0px;}.cls-2{fill:#276858;}</style></defs><g id="Layer_1-2"><path class="cls-1" d="M266.84,149.41c-90.42,10.07-185.27,45.11-233.71,122.11-68.5,108.9-18.99,251.88,42.19,365.06-29.78,51.89-42.97,113.14-37.19,172.7,23.28-32.79,32.96-73.01,48.99-109.89,60.5-139.17,204.23-219.77,338.34-290.78,134.11-71.01,277.63-152.4,336.93-292.09-35.15,61.43-70.86,123.6-120.47,174.07-49.91,50.77-111.87,87.65-172.1,125.61-122,76.89-246.34,168.67-296.75,303.77,41.8-56.36,126.47-45.64,196.64-45.72,194.76-.21,380.14-145.24,427.23-334.22,27.95-112.19,11.92-235.2,60.64-340.05-73.64,62.54-161.43,126.69-258.1,145.68-112.33,22.06-220.68-8.74-332.64,3.74Z"/><path class="cls-2" d="M400.02,461.26c-61.45-23.48-134.02-32.4-190.67,1.04-80.11,47.29-95.66,155.59-93.85,248.6-36.34,23.48-65.11,58.48-81.12,98.67,25.83-13.36,45.38-36,67.9-54.39,85-69.4,204.08-73.57,313.8-74.77,109.72-1.2,228.93-5.96,313.33-76.08-42.94,27.83-86.5,55.96-135.1,71.96-48.9,16.09-100.94,19.27-152.23,23.71-103.88,8.99-214.21,26.78-291.38,96.91,45.54-22.38,96.41,12.57,141.53,35.77,125.24,64.4,292.44,32.61,385.32-73.24,55.14-62.84,85.6-147.21,151.65-198.45-68.05,15.79-145.73,27.93-214.15,8.1-79.51-23.04-138.94-78.74-215.02-107.82Z"/></g></svg>