<?xml version="1.0" encoding="UTF-8"?><svg xmlns="http://www.w3.org/2000/svg" xmlns:xlink="http://www.w3.org/1999/xlink" viewBox="0 0 172.42 262.32"><defs><style>.cls-1{fill:url(#linear-gradient-2);}.cls-2{fill:url(#linear-gradient-12);}.cls-2,.cls-3,.cls-4,.cls-5{mix-blend-mode:screen;}.cls-6{fill:#fff;}.cls-7{fill:url(#radial-gradient-7);}.cls-7,.cls-8,.cls-9,.cls-10,.cls-11,.cls-12,.cls-13,.cls-14{mix-blend-mode:color-dodge;}.cls-15{fill:url(#New_Gradient_Swatch_copy_9);}.cls-16{fill:url(#linear-gradient-14);}.cls-17{fill:url(#linear-gradient-6);}.cls-18{fill:#bcbec0;mix-blend-mode:multiply;}.cls-19{fill:url(#New_Gradient_Swatch_copy_8);}.cls-3{fill:url(#linear-gradient-10);}.cls-20{fill:url(#linear-gradient-11);}.cls-8{fill:url(#radial-gradient-3);}.cls-9{fill:url(#radial-gradient);}.cls-10{fill:url(#radial-gradient-5);}.cls-4{fill:url(#linear-gradient-8);}.cls-21{fill:none;isolation:isolate;}.cls-22{fill:url(#linear-gradient-5);}.cls-5{fill:url(#radial-gradient-2);opacity:.6;}.cls-11{fill:url(#radial-gradient-4);}.cls-12{fill:url(#radial-gradient-6);}.cls-13{fill:url(#radial-gradient-8);}.cls-23{fill:url(#linear-gradient-7);}.cls-14{fill:url(#radial-gradient-9);}.cls-24{fill:url(#linear-gradient-9);}.cls-25{fill:url(#linear-gradient-3);}.cls-26{fill:url(#linear-gradient);}.cls-27{fill:url(#linear-gradient-4);}.cls-28{fill:url(#linear-gradient-13);}</style><linearGradient id="linear-gradient" x1="61.27" y1="22.32" x2="144.78" y2="166.97" gradientUnits="userSpaceOnUse"><stop offset=".06" stop-color="#200041"/><stop offset=".26" stop-color="#210143"/><stop offset=".36" stop-color="#25084a"/><stop offset=".43" stop-color="#2c1357"/><stop offset=".47" stop-color="#311b61"/><stop offset=".48" stop-color="#351f65"/><stop offset=".5" stop-color="#422c72"/><stop offset=".51" stop-color="#574188"/><stop offset=".52" stop-color="#755fa6"/><stop offset=".53" stop-color="#8770b8"/><stop offset=".54" stop-color="#7d66ae"/><stop offset=".56" stop-color="#5c458c"/><stop offset=".59" stop-color="#442e74"/><stop offset=".61" stop-color="#351f66"/><stop offset=".63" stop-color="#311b61"/><stop offset=".67" stop-color="#2a1054"/><stop offset=".75" stop-color="#220446"/><stop offset=".81" stop-color="#200041"/><stop offset="1" stop-color="#200041"/></linearGradient><radialGradient id="radial-gradient" cx="191.05" cy="81.09" fx="191.05" fy="81.09" r="156.72" gradientUnits="userSpaceOnUse"><stop offset="0" stop-color="#711f56"/><stop offset=".16" stop-color="#6b1d51"/><stop offset=".36" stop-color="#5c1946"/><stop offset=".58" stop-color="#421232"/><stop offset=".82" stop-color="#1f0818"/><stop offset="1" stop-color="#000"/></radialGradient><radialGradient id="radial-gradient-2" cx="164.82" cy="69.89" fx="164.82" fy="69.89" r="92.33" gradientUnits="userSpaceOnUse"><stop offset="0" stop-color="#af8afc"/><stop offset="1" stop-color="#10054d"/></radialGradient><linearGradient id="linear-gradient-2" x1="172.27" y1="155.71" x2="-82.97" y2="75.81" gradientUnits="userSpaceOnUse"><stop offset=".19" stop-color="#3d065f"/><stop offset=".93" stop-color="#3d065f"/></linearGradient><linearGradient id="linear-gradient-3" x1="175.6" y1="254.49" x2="45.98" y2="-19.39" gradientUnits="userSpaceOnUse"><stop offset="0" stop-color="#311b61"/><stop offset=".2" stop-color="#290e52"/><stop offset=".49" stop-color="#200041"/><stop offset="1" stop-color="#0f001f"/></linearGradient><linearGradient id="linear-gradient-4" x1="80.6" y1="139.76" x2="161.99" y2="139.76" xlink:href="#linear-gradient-3"/><linearGradient id="linear-gradient-5" x1="71.4" y1="44.61" x2="195.24" y2="280.76" gradientUnits="userSpaceOnUse"><stop offset=".01" stop-color="#9f19ab"/><stop offset=".43" stop-color="#5f27bd"/><stop offset=".9" stop-color="#3d065f"/></linearGradient><linearGradient id="linear-gradient-6" x1="-486.01" y1="10339.89" x2="-471.45" y2="10339.89" gradientTransform="translate(8885.01 -4365.84) rotate(109.11) scale(1.53 .65) skewX(26.33)" xlink:href="#linear-gradient-3"/><linearGradient id="linear-gradient-7" x1="173.78" y1="113.28" x2="163.73" y2="112.84" gradientUnits="userSpaceOnUse"><stop offset="0" stop-color="#3d065f"/><stop offset="1" stop-color="#5f27bd"/></linearGradient><radialGradient id="radial-gradient-3" cx="168.73" cy="108.99" fx="168.73" fy="108.99" r="5.9" xlink:href="#radial-gradient"/><linearGradient id="linear-gradient-8" x1="10005.56" y1="201.29" x2="10036.8" y2="164.85" gradientTransform="translate(-9927.55)" gradientUnits="userSpaceOnUse"><stop offset="0" stop-color="#fdd65b"/><stop offset=".01" stop-color="#f6d058"/><stop offset=".13" stop-color="#bda044"/><stop offset=".25" stop-color="#8b7532"/><stop offset=".37" stop-color="#605122"/><stop offset=".49" stop-color="#3d3416"/><stop offset=".62" stop-color="#221d0c"/><stop offset=".74" stop-color="#0f0c05"/><stop offset=".87" stop-color="#030301"/><stop offset="1" stop-color="#000"/></linearGradient><linearGradient id="linear-gradient-9" x1="9969.35" y1="131.03" x2="10058.35" y2="240.1" gradientTransform="translate(-9927.55)" gradientUnits="userSpaceOnUse"><stop offset=".34" stop-color="#fbcd9c"/><stop offset=".81" stop-color="#feeca8"/><stop offset=".91" stop-color="#ffa98c"/></linearGradient><linearGradient id="New_Gradient_Swatch_copy_8" x1="14281.3" y1="-4808.14" x2="14744.72" y2="-4912.02" gradientTransform="translate(-10051.8 -51.28) rotate(30) skewX(49.11)" gradientUnits="userSpaceOnUse"><stop offset=".04" stop-color="#ffa98c"/><stop offset=".32" stop-color="#feb892"/><stop offset=".86" stop-color="#fee0a3"/><stop offset="1" stop-color="#feeca8"/></linearGradient><radialGradient id="radial-gradient-4" cx="10079.44" cy="184.67" fx="10079.44" fy="184.67" r="53.09" gradientTransform="translate(-9927.55)" gradientUnits="userSpaceOnUse"><stop offset="0" stop-color="#fff"/><stop offset="1" stop-color="#000"/></radialGradient><radialGradient id="radial-gradient-5" cx="21695.79" cy="4311.23" fx="21695.79" fy="4311.23" r="12.5" gradientTransform="translate(-8522.77 662.85) rotate(-22.34) scale(.38 .66)" gradientUnits="userSpaceOnUse"><stop offset="0" stop-color="#c211a1"/><stop offset=".01" stop-color="#bc109c"/><stop offset=".15" stop-color="#8b0c73"/><stop offset=".29" stop-color="#60084f"/><stop offset=".42" stop-color="#3d0533"/><stop offset=".56" stop-color="#22031c"/><stop offset=".7" stop-color="#0f010c"/><stop offset=".85" stop-color="#030003"/><stop offset="1" stop-color="#000"/></radialGradient><linearGradient id="linear-gradient-10" x1="10013.97" y1="73.05" x2="10044.23" y2="37.75" gradientTransform="translate(-9927.55)" gradientUnits="userSpaceOnUse"><stop offset="0" stop-color="#c211a1"/><stop offset=".01" stop-color="#bc109c"/><stop offset=".15" stop-color="#8b0c73"/><stop offset=".29" stop-color="#60084f"/><stop offset=".42" stop-color="#3d0533"/><stop offset=".56" stop-color="#22031c"/><stop offset=".7" stop-color="#0f010c"/><stop offset=".85" stop-color="#030003"/><stop offset="1" stop-color="#000"/></linearGradient><linearGradient id="linear-gradient-11" x1="9978.62" y1="3.17" x2="10067.14" y2="111.65" gradientTransform="translate(-9927.55)" gradientUnits="userSpaceOnUse"><stop offset=".17" stop-color="#dc48c1"/><stop offset=".43" stop-color="#de4ac2"/><stop offset=".6" stop-color="#e751c5"/><stop offset=".75" stop-color="#f65cca"/><stop offset=".81" stop-color="#ff63ce"/><stop offset=".91" stop-color="#9f19ab"/></linearGradient><linearGradient id="New_Gradient_Swatch_copy_9" x1="14359.88" y1="-4923.97" x2="14820.29" y2="-5027.18" gradientTransform="translate(-10051.8 -51.28) rotate(30) skewX(49.11)" gradientUnits="userSpaceOnUse"><stop offset=".04" stop-color="#9f19ab"/><stop offset=".24" stop-color="#ae24b0"/><stop offset=".65" stop-color="#d643bf"/><stop offset="1" stop-color="#ff63ce"/></linearGradient><radialGradient id="radial-gradient-6" cx="10087.99" cy="56.52" fx="10087.99" fy="56.52" r="52.89" xlink:href="#radial-gradient-4"/><radialGradient id="radial-gradient-7" cx="21846.24" cy="4137.35" fx="21846.24" fy="4137.35" r="12.5" xlink:href="#radial-gradient-5"/><linearGradient id="linear-gradient-12" x1="9988.66" y1="127.31" x2="10018.2" y2="92.85" gradientTransform="translate(-9927.55)" gradientUnits="userSpaceOnUse"><stop offset="0" stop-color="#43e8e1"/><stop offset=".09" stop-color="#36bcb6"/><stop offset=".22" stop-color="#288b86"/><stop offset=".34" stop-color="#1b605d"/><stop offset=".47" stop-color="#113d3b"/><stop offset=".6" stop-color="#092221"/><stop offset=".73" stop-color="#040f0e"/><stop offset=".86" stop-color="#010303"/><stop offset="1" stop-color="#000"/></linearGradient><linearGradient id="linear-gradient-13" x1="9939.94" y1="49.86" x2="10054.91" y2="179.54" gradientTransform="translate(-9927.55)" gradientUnits="userSpaceOnUse"><stop offset="0" stop-color="#4ec1de"/><stop offset=".24" stop-color="#4cc4de"/><stop offset=".45" stop-color="#49cfde"/><stop offset=".64" stop-color="#43e0de"/><stop offset=".65" stop-color="#43e2de"/><stop offset=".77" stop-color="#3cabc7"/><stop offset=".84" stop-color="#3a91bd"/><stop offset=".88" stop-color="#3a95be"/><stop offset="1" stop-color="#3ca0c3"/></linearGradient><linearGradient id="linear-gradient-14" x1="11332.74" y1="-4862.72" x2="11773.24" y2="-4961.47" gradientTransform="translate(-9940.43 12.82) rotate(30) skewX(30)" gradientUnits="userSpaceOnUse"><stop offset=".04" stop-color="#138bbd"/><stop offset=".23" stop-color="#169ac6"/><stop offset=".59" stop-color="#1ec2df"/><stop offset="1" stop-color="#2af6ff"/></linearGradient><radialGradient id="radial-gradient-8" cx="10057.46" cy="99.95" fx="10057.46" fy="99.95" r="63.23" xlink:href="#radial-gradient-4"/><radialGradient id="radial-gradient-9" cx="21711.93" cy="4181.58" fx="21711.93" fy="4181.58" r="12.5" gradientTransform="translate(-8522.77 662.85) rotate(-22.34) scale(.38 .66)" gradientUnits="userSpaceOnUse"><stop offset="0" stop-color="#972a74"/><stop offset=".04" stop-color="#8a266a"/><stop offset=".19" stop-color="#601a49"/><stop offset=".35" stop-color="#3d112f"/><stop offset=".51" stop-color="#22091a"/><stop offset=".67" stop-color="#0f040b"/><stop offset=".83" stop-color="#030102"/><stop offset="1" stop-color="#000"/></radialGradient></defs><g class="cls-21"><g id="Layer_2"><g id="Layer_1-2"><path class="cls-26" d="m159.37,257.87l-63.93-36.91c-7.21-4.16-13.06-15.33-13.06-24.95V25.74c0-4.89-4.02-5.97-1.59-7.73.09-.07,5.71-2.62,5.81-2.66,2.62-1,5.42-1.45,8.83.51l63.93,36.91c7.21,4.16,13.06,15.33,13.06,24.95v170.26c0,5.11-1.65,8.75-4.28,10.42-.16.1-6.92,3.32-7.09,3.37-2.33.78,1.47-2.1-1.68-3.92Z"/><path class="cls-9" d="m158.78,52.98l-63.93-36.91c-3.4-1.96,60.4,38.09,60.4,38.09,7.21,4.16,13.06,15.33,13.06,24.95,0,0,3.54,174.19,3.54,169.08V77.93c0-9.62-5.85-20.79-13.06-24.95Z"/><path class="cls-5" d="m154.4,260.14l-63.93-36.91c-7.21-4.16-13.06-15.33-13.06-24.95V28.02c0-9.62,5.84-14.04,13.06-9.87l63.93,36.91c7.21,4.16,13.06,15.33,13.06,24.95v170.26c0,9.62-5.85,14.04-13.06,9.87Z"/><path class="cls-1" d="m153.26,260.75l-63.93-36.91c-7.21-4.16-13.06-15.33-13.06-24.95V28.63c0-9.62,5.85-14.04,13.06-9.87l63.93,36.91c7.21,4.16,13.06,15.33,13.06,24.95v170.26c0,9.62-5.85,14.04-13.06,9.87Z"/><path class="cls-25" d="m78.05,200.02V29.55c0-8.43,5.13-12.3,11.45-8.65l63.59,36.72c6.32,3.65,11.45,13.44,11.45,21.87v170.47c0,8.43-5.12,12.3-11.45,8.65l-63.59-36.71c-6.32-3.65-11.45-13.44-11.45-21.87Z"/><path class="cls-27" d="m80.6,201.06V31.45c0-7.06,4.29-10.3,9.58-7.24l62.24,35.93c5.29,3.05,9.58,11.25,9.58,18.31v169.61c0,7.06-4.29,10.3-9.58,7.24l-62.24-35.93c-5.29-3.06-9.58-11.25-9.58-18.31Z"/><path class="cls-22" d="m144.3,56.92c0,3.55-2.51,4.97-5.6,3.19l-34.83-20.11c-3.09-1.79-5.6-6.11-5.6-9.65l-7.39-4.27c-4.99-2.88-9.03-.57-9.03,5.15v171.51c0,5.72,4.04,12.7,9.03,15.58l60.8,35.1c4.99,2.88,9.03.58,9.03-5.15V76.76c0-5.72-4.04-12.7-9.03-15.58l-7.39-4.27Z"/><path class="cls-17" d="m168.04,120.01v-11.49c0-1.47.89-3.18,2-3.81h0c1.1-.64,2,.04,2,1.51v11.49c0,1.47-.89,3.18-2,3.81h0c-1.1.64-2-.04-2-1.51Z"/><path class="cls-23" d="m169.24,121.33c-.57,0-.77-.71-.77-1.32v-11.49c0-1.31.81-2.88,1.78-3.44.2-.12.4-.18.58-.18.57,0,.77.71.77,1.32v11.49c0,1.31-.81,2.88-1.78,3.44-.21.12-.4.18-.57.18Z"/><path class="cls-8" d="m169.06,120.31v-11.49c0-1.31.82-2.88,1.78-3.44.18-.1.36-.16.51-.17-.12-.18-.29-.31-.52-.31-.17,0-.37.06-.58.18-.97.56-1.78,2.13-1.78,3.44v11.49c0,.61.2,1.32.77,1.32.02,0,.04,0,.06-.01-.18-.26-.25-.65-.25-1.01Z"/><path class="cls-18" d="m151.69,61.19l-7.39-4.27c0,3.55-2.51,4.97-5.6,3.19l-34.83-20.11c-3.09-1.79-5.6-6.11-5.6-9.65l-7.39-4.27c-4.99-2.88-9.03-.57-9.03,5.15v171.51c0,5.72,4.04,12.7,9.03,15.58l60.8,35.1c4.99,2.88,9.03.58,9.03-5.15V76.76c0-5.72-4.04-12.7-9.03-15.58Zm8.24,187.09c0,1.78-.42,3.24-1.21,4.22-.72.9-1.76,1.38-2.98,1.38h0c-1.11,0-2.38-.39-3.66-1.13l-60.8-35.1c-4.76-2.75-8.64-9.43-8.64-14.9V31.23c0-3.46,1.61-5.6,4.19-5.6,1.11,0,2.37.39,3.66,1.14l7.01,4.04c.2,3.75,2.75,8.01,5.97,9.87l34.83,20.11c1.01.58,1.98.87,2.91.87,1.98,0,3.37-1.32,3.76-3.45l6.32,3.65c4.76,2.75,8.64,9.43,8.64,14.9v171.51Z"/><path class="cls-4" d="m156.23,188l-105.36-60.95-17.11,10.02c-4.1,2.44-6.62,6.86-6.62,11.63v18.81c0,7.46,3.98,14.35,10.44,18.09l91.82,53.02c2.14,1.24,4.79,1.23,6.92-.03l19.91-11.58v-39Z"/><path class="cls-24" d="m133.6,235.92l-92.77-53.44c-5.06-2.92-9.16-10.76-9.16-17.51v-20.59c0-3.42-3.34-3.49-1.64-4.73.14-.1,4.68-2.61,4.83-2.69,1.6-.92,3.69-.82,5.97.5l92.77,53.44c5.06,2.92,9.16,10.76,9.16,17.5v20.59c0,3.69-1.23,6.29-3.17,7.41-.06.04-4.68,2.66-4.75,2.69-1.58.82.95-1.91-1.25-3.18Z"/><path class="cls-19" d="m129.01,238.52l-92.77-53.44c-5.06-2.92-9.16-10.76-9.16-17.5v-20.59c0-6.75,4.1-9.85,9.16-6.93l92.77,53.44c5.06,2.92,9.16,10.76,9.16,17.5v20.59c0,6.75-4.1,9.85-9.16,6.93Z"/><path class="cls-11" d="m130.45,192.57l-92.77-53.44c-2.57-1.49-4.89-1.41-6.56-.09,1.32-.22,2.84.09,4.45,1.03l92.77,53.44c5.06,2.92,9.16,10.76,9.16,17.51v20.59c0,3.32-1,5.75-2.6,7.02,2.81-.47,4.71-3.36,4.71-7.95v-20.59c0-6.75-4.1-14.58-9.16-17.51Z"/><polygon class="cls-6" points="67.4 169.19 67.4 171.4 126.47 205.21 126.47 202.99 67.4 169.19"/><polygon class="cls-6" points="91.02 201.01 67.4 187.6 67.4 189.82 91.02 203.23 91.02 201.01"/><polygon class="cls-6" points="104.05 199.33 67.4 178.4 67.4 180.61 104.05 201.54 104.05 199.33"/><polygon class="cls-6" points="82.32 191.38 67.4 183 67.4 185.22 82.32 193.6 82.32 191.38"/><polygon class="cls-6" points="84.5 192.64 84.5 194.86 114.67 212.2 114.67 209.99 84.5 192.64"/><polygon class="cls-6" points="93.2 202.27 93.2 204.49 110.13 214.26 110.13 212.04 93.2 202.27"/><polygon class="cls-6" points="106.23 202.8 126.47 214.41 126.47 212.2 106.23 200.58 106.23 202.8"/><polygon class="cls-6" points="116.85 213.46 126.47 219.02 126.47 216.8 116.85 211.25 116.85 213.46"/><polygon class="cls-6" points="67.4 176.01 126.47 209.81 126.47 207.59 67.4 173.79 67.4 176.01"/><polygon class="cls-6" points="112.31 215.52 126.47 223.62 126.47 221.41 112.31 213.3 112.31 215.52"/><polygon class="cls-6" points="67.4 194.42 126.47 228.23 126.47 226.01 67.4 192.21 67.4 194.42"/><path class="cls-6" d="m56.88,179.51c-1.45-1.23-2.75-2.8-3.78-4.53-.62-1.05-.6-2.18,0-2.54.79-.46,1.48-1.19,1.93-2.15.66.18,1.49-.06,1.49-.97s-.41-1.94-.96-2.45c-.16-3.97-1.52-8.05-6.08-10.68-4.57-2.64-5.92-.12-6.08,3.66-.55-.12-.96.41-.96,1.34s.82,2.1,1.48,2.69c.45,1.49,1.14,3.02,1.93,4.38.61,1.06.63,2.22,0,2.54-1.03.54-2.34.6-3.78.16-1.92-.58-3.34.58-3.34,2.94v4.09c0,.79.56,1.76,1.25,2.16l18.98,10.96c.69.4,1.25.08,1.25-.71v-4.09c0-2.36-1.42-5.16-3.34-6.8Z"/><path class="cls-10" d="m141.15,196.97c1.74,4.24,1.2,8.48-1.21,9.47-2.41.99-5.77-1.64-7.52-5.88-1.74-4.24-1.2-8.48,1.21-9.47,2.41-.99,5.77,1.64,7.52,5.88Z"/><path class="cls-3" d="m162.68,60.6L58.1,0l-14.93,9.09c-4.1,2.44-6.62,6.86-6.62,11.63v18.81c0,7.46,3.98,14.35,10.44,18.09l91.04,52.66c2.14,1.24,4.79,1.23,6.92-.03l17.73-10.65v-39Z"/><path class="cls-20" d="m142.23,107.58L50.25,54.5c-5.06-2.92-9.16-10.76-9.16-17.5v-20.59c0-3.42-3.34-3.49-1.64-4.73.14-.1,4.68-2.61,4.83-2.7,1.6-.91,3.69-.82,5.97.5l91.99,53.08c5.06,2.92,9.16,10.76,9.16,17.5v20.59c0,3.69-1.23,6.29-3.17,7.41-.06.04-4.68,2.66-4.74,2.7-1.58.81.95-1.91-1.25-3.18Z"/><path class="cls-15" d="m137.65,110.19L45.66,57.1c-5.06-2.92-9.16-10.76-9.16-17.5v-20.59c0-6.75,4.1-9.85,9.16-6.93l91.99,53.08c5.06,2.92,9.16,10.76,9.16,17.5v20.59c0,6.75-4.1,9.85-9.16,6.93Z"/><path class="cls-12" d="m139.09,64.23L47.1,11.15c-2.57-1.49-4.89-1.41-6.56-.09,1.32-.22,2.84.09,4.45,1.03l91.99,53.08c5.06,2.92,9.16,10.76,9.16,17.5v20.59c0,3.32-.99,5.75-2.6,7.02,2.81-.47,4.71-3.36,4.71-7.95v-20.59c0-6.75-4.1-14.58-9.16-17.5Z"/><polygon class="cls-6" points="76.82 41.21 76.82 43.42 135.11 76.87 135.11 74.65 76.82 41.21"/><polygon class="cls-6" points="100.44 73.03 76.82 59.62 76.82 61.84 100.44 75.25 100.44 73.03"/><polygon class="cls-6" points="113.47 71.34 76.82 50.41 76.82 52.63 113.47 73.56 113.47 71.34"/><polygon class="cls-6" points="91.73 63.4 76.82 55.02 76.82 57.23 91.73 65.62 91.73 63.4"/><polygon class="cls-6" points="93.91 64.66 93.91 66.88 123.3 83.86 123.3 81.65 93.91 64.66"/><polygon class="cls-6" points="102.62 74.29 102.62 76.51 119.54 86.28 119.54 84.06 102.62 74.29"/><polygon class="cls-6" points="115.65 74.82 135.11 86.08 135.11 83.86 115.65 72.6 115.65 74.82"/><polygon class="cls-6" points="125.48 85.12 135.11 90.68 135.11 88.47 125.48 82.91 125.48 85.12"/><polygon class="cls-6" points="76.82 48.03 135.11 81.47 135.11 79.26 76.82 45.81 76.82 48.03"/><polygon class="cls-6" points="121.72 87.54 135.11 95.29 135.11 93.07 121.72 85.32 121.72 87.54"/><polygon class="cls-6" points="76.82 66.44 135.11 99.89 135.11 97.67 76.82 64.23 76.82 66.44"/><path class="cls-6" d="m66.29,51.53c-1.45-1.23-2.75-2.8-3.78-4.53-.62-1.05-.6-2.18,0-2.54.79-.46,1.48-1.19,1.93-2.15.66.18,1.48-.06,1.48-.97s-.41-1.94-.96-2.45c-.16-3.97-1.52-8.05-6.08-10.68-4.56-2.64-5.92-.12-6.08,3.66-.55-.12-.96.42-.96,1.34s.82,2.1,1.49,2.68c.45,1.49,1.14,3.02,1.93,4.38.61,1.06.63,2.22,0,2.54-1.03.54-2.34.6-3.78.16-1.92-.58-3.34.58-3.34,2.94v4.09c0,.79.56,1.76,1.25,2.16l18.98,10.96c.69.4,1.25.08,1.25-.71v-4.09c0-2.36-1.42-5.16-3.34-6.8Z"/><path class="cls-7" d="m149.79,68.63c1.74,4.24,1.2,8.48-1.21,9.47-2.41.99-5.77-1.64-7.51-5.88-1.74-4.24-1.2-8.47,1.21-9.47,2.41-.99,5.77,1.64,7.52,5.88Z"/><path class="cls-2" d="m125.24,106.31L19.98,45.34l-13.36,7.92c-4.11,2.44-6.62,6.86-6.62,11.63v18.81c0,7.46,3.98,14.35,10.44,18.09l91.72,53.03c2.14,1.24,23.09,25.77,25.23,24.51l16.16-9.48-18.3-63.54Z"/><path class="cls-28" d="m130.27,177.67l-15.53-35.2v-19.47c0-5.81-4.1-12.88-9.16-15.8L13.6,53.99c-2.53-1.46-4.82-1.61-6.48-.66-.15.08-4.58,2.57-4.72,2.67-1.4,1.04,2.04.57,2.04,3.21v23.99c0,5.81,4.1,12.88,9.16,15.8l89.13,51.56,23.15,29.62,4.39-2.52Z"/><path class="cls-16" d="m125.88,180.19l-15.53-35.2v-19.47c0-5.81-4.1-12.88-9.16-15.8L9.22,56.51C4.16,53.59.05,55.93.05,61.73v23.99c0,5.81,4.1,12.88,9.16,15.8l89.13,51.57,27.54,27.1Z"/><path class="cls-13" d="m8.75,57.13l91.98,53.21c5.06,2.92,9.16,10,9.16,15.8v19.48l13.24,30.02,4.15,4.09-15.53-35.2v-19.47c0-5.81-4.1-12.88-9.16-15.8L10.62,56.04c-3.03-1.75-5.71-1.6-7.38.04,1.53-.44,3.44-.14,5.51,1.05Z"/><path class="cls-6" d="m21.22,77.65v-1.49l-1.48-.85v-4.12c.66.05,1.13-.43,1.13-1.31,0-1.18-.83-2.62-1.87-3.22-1.03-.6-1.87-.12-1.87,1.06,0,.88.46,1.91,1.13,2.62v4.12l-1.48-.85v1.49c-4.96-1.69-8.69,1.2-8.69,7.24,0,6.91,4.88,15.34,10.91,18.82,6.03,3.48,10.91.69,10.91-6.22,0-6.04-3.73-13.24-8.69-17.28Zm4.26,18.84c-4.24-1.54-8.58-4.05-12.82-7.38-1.17-.92-2.02-2.58-2.02-3.94v-2.85c0-1.19.94-1.54,1.96-.74,4.24,3.34,8.58,5.85,12.82,7.4,1.02.37,1.96,1.81,1.96,3v2.99c0,1.28-.79,1.92-1.89,1.52Zm-10.43-11.07c-.73-.42-1.32-.08-1.32.75s.59,1.86,1.32,2.28c.73.42,1.32.08,1.32-.75s-.59-1.86-1.32-2.28Zm7.9,4.56c-.73-.42-1.32-.08-1.32.75s.59,1.86,1.32,2.28c.73.42,1.32.08,1.32-.75s-.59-1.86-1.32-2.28Z"/><polygon class="cls-6" points="37.16 82.98 37.16 85.19 97.92 119.98 97.92 117.77 37.16 82.98"/><polygon class="cls-6" points="62.57 115.77 37.16 101.39 37.16 103.61 62.57 117.99 62.57 115.77"/><polygon class="cls-6" points="75.6 114.08 37.16 92.19 37.16 94.4 75.6 116.3 75.6 114.08"/><polygon class="cls-6" points="53.87 106.14 37.16 96.79 37.16 99 53.87 108.36 53.87 106.14"/><polygon class="cls-6" points="56.04 107.4 56.04 109.62 86.11 126.98 86.11 124.76 56.04 107.4"/><polygon class="cls-6" points="64.75 117.03 64.75 119.24 81.67 129.02 81.67 126.8 64.75 117.03"/><polygon class="cls-6" points="77.78 117.56 97.92 129.19 97.92 126.97 77.78 115.34 77.78 117.56"/><polygon class="cls-6" points="88.29 128.24 97.92 133.79 97.92 131.58 88.29 126.02 88.29 128.24"/><polygon class="cls-6" points="37.16 89.8 97.92 124.59 97.92 122.37 37.16 87.58 37.16 89.8"/><polygon class="cls-6" points="83.85 130.28 97.92 138.4 97.92 136.18 83.85 128.06 83.85 130.28"/><polygon class="cls-6" points="37.16 108.21 97.92 143 97.92 140.79 37.16 106 37.16 108.21"/><path class="cls-14" d="m114.07,115.05c1.74,4.24,1.2,8.48-1.21,9.47-2.41.99-5.77-1.64-7.51-5.88-1.74-4.24-1.2-8.48,1.21-9.47,2.41-.99,5.77,1.64,7.52,5.88Z"/></g></g></g></svg>