<?xml version="1.0" encoding="UTF-8"?><svg id="Layer_2" xmlns="http://www.w3.org/2000/svg" viewBox="0 0 1219.46 535.07"><defs><style>.cls-1{fill:#a0c43a;}.cls-1,.cls-2,.cls-3{stroke-width:0px;}.cls-2{fill:#276858;}.cls-3{fill:#a1c53a;}.cls-4{letter-spacing:-.08em;}.cls-5{letter-spacing:-.05em;}.cls-6{font-family:Europa-Bold, Europa-Bold;font-size:284px;font-weight:700;stroke:#000;stroke-miterlimit:10;stroke-width:4px;}.cls-7{font-family:DoppioOne-Regular, 'Doppio One';font-size:104px;letter-spacing:-.01em;}</style></defs><g id="Layer_1-2"><path class="cls-1" d="M163.49,390.75c5.95,3.76,13.54,6.06,20.69,3.27,10.11-3.96,15.07-16,17.68-26.6,4.65-2.03,8.82-5.49,11.77-9.78-3.2,1.06-6.01,3.29-9,4.98-11.31,6.38-24.34,4.74-36.26,2.93-11.93-1.81-24.99-3.39-36.25,3.09,5.49-2.4,11.06-4.83,16.81-5.78,5.79-.96,11.52-.4,17.21,0,11.53.82,24.02.76,34.5-5.85-5.61,1.74-10.07-3.14-14.25-6.58-11.62-9.55-30.7-8.9-43.97,1.49-7.87,6.17-13.73,15.22-22.43,19.88,7.85-.59,16.64-.59,23.45,2.88,7.92,4.03,12.67,11.42,20.04,16.08Z"/><path class="cls-1" d="M608.21,348.55c-.29-3.58.33-7.52,2.89-9.97,3.62-3.45,9.41-2.58,14.16-1.03,1.75-1.54,3.97-2.49,6.27-2.7-1.07,1.14-2.52,1.81-3.8,2.7-4.83,3.37-6.81,9.53-8.5,15.26-1.69,5.73-3.71,11.89-8.56,15.22,2.07-1.81,4.16-3.65,5.7-5.95,1.55-2.31,2.49-4.98,3.48-7.6,2-5.3,4.56-10.8,9.3-13.74-1.83,2.03-.79,5.24-.26,7.97,1.45,7.56-2.67,15.82-9.48,19.03-4.05,1.9-8.83,2.18-12.44,4.84,1.82-3.32,3.6-7.19,3.6-11.09,0-4.52-1.98-8.51-2.34-12.94Z"/><path class="cls-1" d="M664.17,305.72c-4.64,1.03-9.37,3.47-11.45,7.96-2.95,6.35.43,13.95,4.25,19.85-1.25,3.01-1.6,6.45-.96,9.7,1.02-1.93,1.3-4.19,1.93-6.3,2.36-7.98,9.37-13.17,15.94-17.79,6.57-4.62,13.56-9.86,15.86-17.85-1.48,3.56-2.98,7.17-5.28,10.21-2.31,3.06-5.32,5.42-8.23,7.82-5.9,4.88-11.85,10.59-13.7,18.28,1.85-3.32,6.31-3.18,9.96-3.56,10.12-1.05,18.93-10.01,20.31-20.65.82-6.32-.7-13,1.24-19.02-3.47,3.83-7.67,7.83-12.59,9.38-5.71,1.81-11.51.69-17.26,1.97Z"/><path class="cls-2" d="M141.7,197.71c20.96-.58,43.68,4.57,57.04,21.09,18.9,23.37,11.85,58.61,1.25,87.21,8.35,11.23,13.19,25.2,13.65,39.39-6.3-6.95-9.71-16.09-14.47-24.24-17.97-30.75-53.22-45.02-85.98-57.34-32.76-12.32-67.98-26.78-85.69-57.7,9.86,13.3,19.88,26.75,32.72,37,12.92,10.31,28.17,16.96,43.07,23.93,30.17,14.1,61.32,31.63,76.86,61.75-11.23-11.89-30.26-6.61-46.29-4.34-44.51,6.3-91.19-21.76-107.58-64.66-9.73-25.47-9.74-54.91-24-77.98,18.69,12.3,40.66,24.53,63.32,25.84,26.32,1.53,50.16-9.25,76.11-9.96Z"/><path class="cls-1" d="M196.88,125.21c-26.2,14.96-50.39,38.69-54.82,70.25-6.26,44.63,28,85.27,61.81,114.6-.79,7.84-.8,31.58,1.02,39.48,3.02,13.16,9.69,10.33,15.78,22.1,2.69-13.78-8.67-29.05-.89-42.61,26.65-46.45,28.86-98.4,60.19-139.02,31.33-40.62,64.14-85.87,63.47-139.43-2.47,24.72-5.01,49.77-13.36,72.75-8.4,23.12-22.33,43.23-35.59,63.47-26.86,40.99-52.43,87.19-49.66,138.1,5.17-23.92,32.41-31.3,53.78-40.36,59.31-25.15,96.33-96.71,85.33-164.92-6.53-40.49-27.91-78.87-27.13-119.62-14.05,30.05-32.19,62.45-59.09,81.14-31.26,21.72-68.4,25.55-100.84,44.07Z"/><text class="cls-6" transform="translate(209.38 370.73)"><tspan class="cls-4" x="0" y="0">L</tspan><tspan class="cls-5" x="120.7" y="0">eafline</tspan></text><text class="cls-7" transform="translate(125.84 509.68)"><tspan x="0" y="0">GARDEN DESIGN LLC</tspan></text><path class="cls-1" d="M269.08,353.88c1.1,4.61.88,9.97-2.58,13.99-4.89,5.68-13.9,6.35-21.43,5.82-2.38,2.57-5.61,4.53-9.08,5.53,1.42-1.84,3.52-3.18,5.31-4.75,6.75-5.94,8.65-14.66,10.19-22.71,1.53-8.05,3.48-16.77,10.29-22.66-2.82,3.03-5.68,6.11-7.62,9.6-1.95,3.52-2.89,7.32-3.92,11.07-2.09,7.58-4.98,15.6-11.69,20.96,2.41-3.25.24-7.13-1.05-10.54-3.59-9.47,1.18-21.6,11-27.96,5.83-3.78,13.08-5.65,18.11-10.28-2.17,4.93-4.18,10.57-3.46,15.68.83,5.93,4.58,10.53,5.95,16.24Z"/><path class="cls-1" d="M295.81,408.95c-3.96-2.38-7.59-6-8.2-10.57-.86-6.47,4.45-12.02,9.66-15.95-.28-3.02.41-6.13,1.93-8.75.38,2-.02,4.06-.06,6.11-.15,7.7,4.78,14.45,9.47,20.56,4.69,6.11,9.59,12.9,9.37,20.59-.32-3.58-.66-7.2-1.88-10.58-1.23-3.4-3.31-6.41-5.29-9.43-4-6.12-7.8-12.99-7.27-20.28.74,3.48,4.87,4.78,8.11,6.26,8.98,4.12,14.47,14.73,12.65,24.45-1.08,5.77-4.42,11.1-4.39,16.97-2.08-4.44-4.77-9.26-8.83-12.17-4.72-3.39-10.37-4.26-15.27-7.2Z"/><path class="cls-1" d="M316.07,310.17c-3.64,3.72-6.53,8.76-5.78,14.08,1.06,7.52,8.64,12.39,15.61,15.44.63,3.48,2.35,6.8,4.85,9.36-.2-2.36-1.28-4.58-1.96-6.87-2.55-8.64.8-17.56,4.08-25.68,3.28-8.12,6.59-17.07,3.97-25.69.75,4.12,1.51,8.29,1.2,12.42-.31,4.15-1.67,8.1-2.92,12.03-2.52,7.96-4.59,16.7-1.75,24.79-.27-4.12,3.9-6.67,7.01-9.2,8.64-7.02,11.42-20.43,6.39-30.9-2.98-6.22-8.32-11.36-10.11-17.98-.92,5.56-2.4,11.7-5.98,16.06-4.16,5.07-10.13,7.53-14.63,12.14Z"/><path class="cls-1" d="M436.96,412.73c-1.8-6.78-1.92-14.58,2.26-20.21,5.92-7.96,17.58-8.39,27.43-7.15,2.9-3.59,6.94-6.24,11.38-7.49-1.71,2.59-4.33,4.41-6.54,6.59-8.32,8.23-10.11,20.81-11.47,32.44-1.37,11.62-3.22,24.21-11.61,32.37,3.44-4.24,6.91-8.54,9.16-13.52,2.26-5,3.18-10.49,4.23-15.88,2.13-10.92,5.26-22.42,13.57-29.81-2.89,4.58.24,10.37,2.2,15.41,5.42,14.01.16,31.38-12.12,40.04-7.29,5.14-16.58,7.42-22.76,13.84,2.44-7.04,4.61-15.14,3.28-22.62-1.55-8.69-6.78-15.62-9.01-24.02Z"/><path class="cls-1" d="M477.73,344.79c1.64,3.67,2.38,8.11.36,11.81-2.85,5.23-9.75,6.81-15.71,7.23-1.42,2.38-3.6,4.36-6.14,5.58.8-1.68,2.2-3.01,3.33-4.51,4.25-5.66,4.25-13.05,4.08-19.85s-.13-14.21,4.17-19.83c-1.69,2.82-3.39,5.67-4.3,8.77-.92,3.12-1.01,6.36-1.18,9.56-.34,6.48-1.23,13.42-5.55,18.59,1.33-2.95-1.02-5.9-2.61-8.56-4.41-7.39-2.75-17.92,3.82-24.27,3.9-3.77,9.24-6.14,12.37-10.52-.86,4.3-1.46,9.18-.04,13.3,1.66,4.79,5.36,8.15,7.39,12.7Z"/><path class="cls-3" d="M329.44,342.25c-39.3,21.09-32.11,19.78-59.56,31.78-8.47,3.7-24.22,8.52-32,4.67-11.07-5.48-12.67-8.56-16.22-18.11-5.29-14.21-3.52-28.19-3.52-28.19l-14.53,4.6s-1.17,38.42,18.61,50.88c12.74,8.03,31.57,6.71,41.37,4.62,27.3-8.13,52.19-23.98,80.53-40.31,5.04-2.91,27.56-10.3,44.26-12.86,17.85-2.74,26.31,1.18,27.46,1.29,1.08.1,11.81-1.31,19.94-5.92,0,0-11.33-9.67-29.56-10.78-1.17-.07-16.85-1.29-34,2.86-18.22,4.4-37.81,12.81-42.78,15.47Z"/><path class="cls-3" d="M562.61,333.56c3.51-3.07,3.75-4.06,3.75-4.06v-12.07c-11.55,3.44-25.61,13.52-38.08,22.35-16.99,12.04-34.1,24.91-43.73,26.39-17.85,2.74-28.13-2.53-29.28-2.64,0,0-8.55,5.16-16.27,7.57,0,0,9.5,6.76,28.17,9.21,1.76.23,10.13,1.76,27.28-2.39,9.43-2.28,27.28-13.29,40.67-24.33,8.49-7.01,16.03-11.87,21.37-15.41.86-.57,2.96-1.85,6.13-4.62Z"/><path class="cls-3" d="M634.19,324.18c-10.52-9.63-29.89-9.41-29.89-9.41v14.93c12.43,0,22.26,3.89,29.89,12.41v-17.93Z"/><path class="cls-3" d="M698.49,399.14c48.45,17.79,362.25,3.66,397.14,5.81,0,0,9.39-.13,18.25,2.67l.34-6.62s-6.14-2.85-23.39-3.31c-3.67-.1-316.61,7.56-380.31-8.44-27.11-6.07-38.23-30.45-38.23-30.45l-.18,13.95-8.39-.05s10.65,17.59,34.76,26.44Z"/><path class="cls-3" d="M1183.9,407.3c-3.84-10.47-10.93-20.65-21.96-23.95-15.59-4.66-35.3,6.7-47.73,17.65-4.85-1.64-9.53-2.95-23.39-3.31l.69,6.99c11.41-.17,18.69,1.78,21.15,2.57,1.56.5,28.78,8.11,43.3,27.35,11.27,14.93,27,28.21,46.18,30.78-8.69-2.21-17.5-4.47-25.23-8.76-7.78-4.32-14.17-10.52-20.64-16.48-13.11-12.08-28.15-23.95-46.5-25.61,8.25,3.17,9.32,13.62,11.33,21.99,5.58,23.24,29.03,40.68,54.03,40.2,14.85-.29,29.79-6.17,44.31-3.74-9.93-6.77-20.47-15.18-25.6-26.1-5.97-12.69-5.2-26.62-9.95-39.58Z"/></g></svg>