<?xml version="1.0" encoding="UTF-8"?><svg xmlns="http://www.w3.org/2000/svg" xmlns:xlink="http://www.w3.org/1999/xlink" viewBox="0 0 898.64 718.98"><defs><style>.cls-1,.cls-2,.cls-3,.cls-4{fill:#8a003c;}.cls-1,.cls-5,.cls-6,.cls-7,.cls-8,.cls-9,.cls-10{fill-rule:evenodd;}.cls-1,.cls-3{opacity:.31;}.cls-11{fill:url(#_Áåçûìÿííûé_ãðàäèåíò_22-8);}.cls-12{fill:url(#_Áåçûìÿííûé_ãðàäèåíò_107-3);}.cls-13,.cls-14,.cls-9{opacity:.25;}.cls-13,.cls-9{fill:#663743;}.cls-15{fill:url(#_Áåçûìÿííûé_ãðàäèåíò_38);}.cls-15,.cls-16{mix-blend-mode:screen;}.cls-17,.cls-18,.cls-6,.cls-14,.cls-19{fill:#fff;}.cls-17,.cls-20{opacity:.45;}.cls-21{fill:url(#_Áåçûìÿííûé_ãðàäèåíò_51-2);}.cls-22{fill:#501d00;}.cls-23{fill:url(#_Áåçûìÿííûé_ãðàäèåíò_107-4);}.cls-24,.cls-5{opacity:.39;}.cls-24,.cls-25,.cls-26,.cls-27,.cls-28,.cls-29,.cls-30{fill:none;}.cls-31{fill:url(#_Áåçûìÿííûé_ãðàäèåíò_22-12);}.cls-32{fill:url(#_Áåçûìÿííûé_ãðàäèåíò_22-10);}.cls-33{fill:url(#_Áåçûìÿííûé_ãðàäèåíò_51-6);}.cls-34{fill:url(#_Áåçûìÿííûé_ãðàäèåíò_95-2);}.cls-2{opacity:.15;}.cls-35,.cls-5{fill:#830047;}.cls-36,.cls-26,.cls-37{opacity:.21;}.cls-36,.cls-38{fill:#8f6b57;}.cls-25,.cls-6{opacity:.4;}.cls-39{fill:url(#_Áåçûìÿííûé_ãðàäèåíò_22-2);}.cls-40{fill:url(#_Áåçûìÿííûé_ãðàäèåíò_51-3);}.cls-41{fill:#ffc5a8;}.cls-42{fill:url(#_Áåçûìÿííûé_ãðàäèåíò_51);}.cls-43{fill:url(#_Áåçûìÿííûé_ãðàäèåíò_66-6);}.cls-44{fill:url(#_Áåçûìÿííûé_ãðàäèåíò_73);}.cls-45{fill:url(#_Áåçûìÿííûé_ãðàäèåíò_107-2);}.cls-46{fill:url(#_Áåçûìÿííûé_ãðàäèåíò_22-9);}.cls-27{isolation:isolate;}.cls-47{fill:url(#_Áåçûìÿííûé_ãðàäèåíò_107);}.cls-28{opacity:.47;}.cls-48{fill:url(#_Áåçûìÿííûé_ãðàäèåíò_66-2);}.cls-49{fill:url(#_Áåçûìÿííûé_ãðàäèåíò_95);}.cls-50{fill:url(#_Áåçûìÿííûé_ãðàäèåíò_66-3);}.cls-20{fill:#91e0ff;}.cls-29{opacity:.6;}.cls-51{fill:url(#_Áåçûìÿííûé_ãðàäèåíò_22-4);}.cls-52{fill:url(#_Áåçûìÿííûé_ãðàäèåíò_22-7);}.cls-53{fill:#1a2f47;}.cls-54{fill:url(#_Áåçûìÿííûé_ãðàäèåíò_22-3);}.cls-55{fill:url(#_Áåçûìÿííûé_ãðàäèåíò_51-5);}.cls-56{fill:#fc9767;}.cls-19{opacity:.35;}.cls-57{fill:url(#_Áåçûìÿííûé_ãðàäèåíò_66-7);}.cls-30{opacity:.55;}.cls-7{fill:#ff7366;opacity:.24;}.cls-37{fill:#a66142;}.cls-58{fill:url(#_Áåçûìÿííûé_ãðàäèåíò_22-5);}.cls-8{fill:url(#_Áåçûìÿííûé_ãðàäèåíò_66);}.cls-59{fill:url(#_Áåçûìÿííûé_ãðàäèåíò_22-11);}.cls-60{fill:url(#_Áåçûìÿííûé_ãðàäèåíò_66-4);}.cls-61{fill:#fcbd9f;}.cls-62{fill:#b6e66c;}.cls-63{fill:#a7e2ff;}.cls-64{fill:url(#_Áåçûìÿííûé_ãðàäèåíò_46);}.cls-65{fill:url(#_Áåçûìÿííûé_ãðàäèåíò_51-4);}.cls-66{fill:url(#_Áåçûìÿííûé_ãðàäèåíò_46-2);}.cls-67{fill:#8ae3ff;}.cls-68{fill:url(#_Áåçûìÿííûé_ãðàäèåíò_22-6);}.cls-10{fill:#99e6ff;}.cls-69{fill:url(#_Áåçûìÿííûé_ãðàäèåíò_22);}.cls-70{fill:url(#_Áåçûìÿííûé_ãðàäèåíò_66-5);}.cls-16{fill:url(#_Áåçûìÿííûé_ãðàäèåíò_38-2);}</style><linearGradient id="_Áåçûìÿííûé_ãðàäèåíò_51" x1="2841.05" y1="253.44" x2="2889.65" y2="165.17" gradientTransform="translate(666.08 -2325.51) rotate(90)" gradientUnits="userSpaceOnUse"><stop offset="0" stop-color="#f0c7a8"/><stop offset="1" stop-color="#ffd9c4"/></linearGradient><linearGradient id="_Áåçûìÿííûé_ãðàäèåíò_51-2" x1="2974.46" y1="680.99" x2="3040.92" y2="560.28" gradientTransform="translate(-2601.33)" xlink:href="#_Áåçûìÿííûé_ãðàäèåíò_51"/><linearGradient id="_Áåçûìÿííûé_ãðàäèåíò_22" x1="484.56" y1="632.2" x2="641.93" y2="632.2" gradientTransform="translate(898.64) rotate(-180) scale(1 -1)" gradientUnits="userSpaceOnUse"><stop offset="0" stop-color="#f7decb"/><stop offset="1" stop-color="#fff0e8"/></linearGradient><linearGradient id="_Áåçûìÿííûé_ãðàäèåíò_22-2" x1="2991.05" y1="686.68" x2="3001.25" y2="686.68" gradientTransform="translate(-2601.33)" xlink:href="#_Áåçûìÿííûé_ãðàäèåíò_22"/><linearGradient id="_Áåçûìÿííûé_ãðàäèåíò_66" x1="2822.4" y1="531.32" x2="2892.92" y2="531.32" gradientTransform="translate(-2601.33)" gradientUnits="userSpaceOnUse"><stop offset="0" stop-color="#145775"/><stop offset="1" stop-color="#381621"/></linearGradient><linearGradient id="_Áåçûìÿííûé_ãðàäèåíò_66-2" x1="264.37" y1="711.72" x2="300.63" y2="711.72" gradientTransform="translate(898.64) rotate(-180) scale(1 -1)" xlink:href="#_Áåçûìÿííûé_ãðàäèåíò_66"/><linearGradient id="_Áåçûìÿííûé_ãðàäèåíò_22-3" x1="327.97" y1="602.6" x2="335.05" y2="602.6" gradientTransform="translate(772.38 79.32) rotate(-177.17) scale(1 -1)" xlink:href="#_Áåçûìÿííûé_ãðàäèåíò_22"/><linearGradient id="_Áåçûìÿííûé_ãðàäèåíò_66-3" x1="395.99" y1="711.72" x2="432.25" y2="711.72" gradientTransform="translate(898.64) rotate(-180) scale(1 -1)" xlink:href="#_Áåçûìÿííûé_ãðàäèåíò_66"/><linearGradient id="_Áåçûìÿííûé_ãðàäèåíò_66-4" x1="348.05" y1="743.89" x2="349.57" y2="648.38" gradientTransform="translate(898.64) rotate(-180) scale(1 -1)" xlink:href="#_Áåçûìÿííûé_ãðàäèåíò_66"/><linearGradient id="_Áåçûìÿííûé_ãðàäèåíò_66-5" x1="343.73" y1="776.52" x2="345.92" y2="638.97" gradientTransform="translate(898.64) rotate(-180) scale(1 -1)" xlink:href="#_Áåçûìÿííûé_ãðàäèåíò_66"/><linearGradient id="_Áåçûìÿííûé_ãðàäèåíò_22-4" x1="336.78" y1="758.42" x2="342.49" y2="416.22" xlink:href="#_Áåçûìÿííûé_ãðàäèåíò_22"/><linearGradient id="_Áåçûìÿííûé_ãðàäèåíò_66-6" x1="339.14" y1="577.46" x2="342.49" y2="375.99" gradientTransform="translate(898.64) rotate(-180) scale(1 -1)" xlink:href="#_Áåçûìÿííûé_ãðàäèåíò_66"/><linearGradient id="_Áåçûìÿííûé_ãðàäèåíò_51-3" x1="428.52" y1="664.56" x2="430.82" y2="526.59" gradientTransform="translate(818.48 -227.3) rotate(180) scale(1 -1)" xlink:href="#_Áåçûìÿííûé_ãðàäèåíò_51"/><linearGradient id="_Áåçûìÿííûé_ãðàäèåíò_51-4" x1="3050.42" y1="204.02" x2="3052.72" y2="66.05" gradientTransform="translate(839.7 -2708.5) rotate(90)" xlink:href="#_Áåçûìÿííûé_ãðàäèåíò_51"/><linearGradient id="_Áåçûìÿííûé_ãðàäèåíò_107" x1="353.62" y1="117.3" x2="388.97" y2="244.71" gradientTransform="translate(898.64) rotate(-180) scale(1 -1)" gradientUnits="userSpaceOnUse"><stop offset="0" stop-color="#da3900"/><stop offset="1" stop-color="#b03c62"/></linearGradient><linearGradient id="_Áåçûìÿííûé_ãðàäèåíò_107-2" x1="361.52" y1="149.72" x2="376.31" y2="218.77" xlink:href="#_Áåçûìÿííûé_ãðàäèåíò_107"/><linearGradient id="_Áåçûìÿííûé_ãðàäèåíò_107-3" x1="415.68" y1="185.2" x2="444" y2="185.2" xlink:href="#_Áåçûìÿííûé_ãðàäèåíò_107"/><linearGradient id="_Áåçûìÿííûé_ãðàäèåíò_107-4" x1="259.5" y1="138.1" x2="299.78" y2="265.52" xlink:href="#_Áåçûìÿííûé_ãðàäèåíò_107"/><linearGradient id="_Áåçûìÿííûé_ãðàäèåíò_51-5" x1="427.02" y1="251.78" x2="498.81" y2="251.78" gradientTransform="translate(898.64) rotate(-180) scale(1 -1)" xlink:href="#_Áåçûìÿííûé_ãðàäèåíò_51"/><linearGradient id="_Áåçûìÿííûé_ãðàäèåíò_51-6" x1="184.36" y1="251.78" x2="256.15" y2="251.78" gradientTransform="translate(898.64) rotate(-180) scale(1 -1)" xlink:href="#_Áåçûìÿííûé_ãðàäèåíò_51"/><linearGradient id="_Áåçûìÿííûé_ãðàäèåíò_66-7" x1="339.5" y1="483.47" x2="341.97" y2="335.51" gradientTransform="translate(898.64) rotate(-180) scale(1 -1)" xlink:href="#_Áåçûìÿííûé_ãðàäèåíò_66"/><linearGradient id="_Áåçûìÿííûé_ãðàäèåíò_22-5" x1="163.78" y1="311.39" x2="515.97" y2="311.39" xlink:href="#_Áåçûìÿííûé_ãðàäèåíò_22"/><radialGradient id="_Áåçûìÿííûé_ãðàäèåíò_46" cx="429.66" cy="315.09" fx="429.66" fy="315.09" r="46.18" gradientTransform="translate(838.54 698.91) rotate(-97.66) scale(1 -1)" gradientUnits="userSpaceOnUse"><stop offset="0" stop-color="#328eb8"/><stop offset=".28" stop-color="#318bb5"/><stop offset=".45" stop-color="#2f84ad"/><stop offset=".59" stop-color="#2b779f"/><stop offset=".71" stop-color="#25668a"/><stop offset=".82" stop-color="#1e4e70"/><stop offset=".92" stop-color="#153251"/><stop offset="1" stop-color="#0d1732"/></radialGradient><radialGradient id="_Áåçûìÿííûé_ãðàäèåíò_46-2" cx="249.14" fx="249.14" r="46.18" gradientTransform="translate(938.41 36.02) rotate(-172.34) scale(1 -1)" xlink:href="#_Áåçûìÿííûé_ãðàäèåíò_46"/><linearGradient id="_Áåçûìÿííûé_ãðàäèåíò_22-6" x1="197.52" y1="245.17" x2="193.61" y2="259.15" xlink:href="#_Áåçûìÿííûé_ãðàäèåíò_22"/><radialGradient id="_Áåçûìÿííûé_ãðàäèåíò_38" cx="250.27" cy="315.09" fx="250.27" fy="315.09" r="53.56" gradientTransform="translate(1036.75 420.34) rotate(-113.3) scale(1 -1)" gradientUnits="userSpaceOnUse"><stop offset="0" stop-color="#83cbff"/><stop offset=".66" stop-color="#2a4253"/><stop offset="1" stop-color="#000"/></radialGradient><radialGradient id="_Áåçûìÿííûé_ãðàäèåíò_38-2" cx="434.35" cy="312.42" fx="434.35" fy="312.42" r="53.56" gradientTransform="translate(898.64) rotate(-180) scale(1 -1)" xlink:href="#_Áåçûìÿííûé_ãðàäèåíò_38"/><linearGradient id="_Áåçûìÿííûé_ãðàäèåíò_73" x1="340.58" y1="555.52" x2="340.58" y2="659.91" gradientTransform="translate(898.64) rotate(-180) scale(1 -1)" gradientUnits="userSpaceOnUse"><stop offset="0" stop-color="#edc6a8"/><stop offset="1" stop-color="#ffe1d1"/></linearGradient><linearGradient id="_Áåçûìÿííûé_ãðàäèåíò_22-7" x1="341.15" y1="562.93" x2="341.15" y2="649.21" xlink:href="#_Áåçûìÿííûé_ãðàäèåíò_22"/><linearGradient id="_Áåçûìÿííûé_ãðàäèåíò_95" x1="337.84" y1="576.81" x2="348.8" y2="659.28" gradientTransform="translate(898.64) rotate(-180) scale(1 -1)" gradientUnits="userSpaceOnUse"><stop offset="0" stop-color="#f7f1ed"/><stop offset="1" stop-color="#fce9d9"/></linearGradient><linearGradient id="_Áåçûìÿííûé_ãðàäèåíò_95-2" x1="338.91" y1="577" x2="349.79" y2="658.93" xlink:href="#_Áåçûìÿííûé_ãðàäèåíò_95"/><linearGradient id="_Áåçûìÿííûé_ãðàäèåíò_22-8" x1="348.47" y1="723.1" x2="348.47" y2="701.32" xlink:href="#_Áåçûìÿííûé_ãðàäèåíò_22"/><linearGradient id="_Áåçûìÿííûé_ãðàäèåíò_22-9" x1="188.65" y1="682" x2="246.11" y2="682" xlink:href="#_Áåçûìÿííûé_ãðàäèåíò_22"/><linearGradient id="_Áåçûìÿííûé_ãðàäèåíò_22-10" x1="2974.83" y1="733.25" x2="2981.9" y2="733.25" gradientTransform="translate(-2311.55 79.32) rotate(-2.83)" xlink:href="#_Áåçûìÿííûé_ãðàäèåíò_22"/><linearGradient id="_Áåçûìÿííûé_ãðàäèåíò_22-11" x1="633.77" y1="508.41" x2="760.75" y2="508.41" xlink:href="#_Áåçûìÿííûé_ãðàäèåíò_22"/><linearGradient id="_Áåçûìÿííûé_ãðàäèåíò_22-12" x1="607.38" y1="522.21" x2="677.57" y2="522.21" xlink:href="#_Áåçûìÿííûé_ãðàäèåíò_22"/></defs><g class="cls-27"><g id="Layer_2"><g id="_Ñëîé_5"><path class="cls-67" d="m90.94,492.38h807.69v181.89H90.94C40.72,674.27,0,633.55,0,583.32h0c0-50.23,40.72-90.94,90.94-90.94Z"/><path class="cls-18" d="m22.72,580.97c0-40.03,32.57-72.61,72.61-72.61,40.03,0,72.61,32.57,72.61,72.61,0,40.03-32.57,72.61-72.61,72.61-40.03,0-72.61-32.57-72.61-72.61Zm4.66,0c0,37.47,30.48,67.95,67.95,67.95,37.47,0,67.95-30.48,67.95-67.95,0-37.47-30.48-67.95-67.95-67.95-37.47,0-67.95,30.48-67.95,67.95Z"/><ellipse class="cls-42" cx="452.35" cy="537.37" rx="37.52" ry="22.13" transform="translate(-184.11 834.54) rotate(-74.94)"/><polygon class="cls-21" points="430.27 587.46 422.12 584.99 376.14 665.28 384.63 670.27 430.27 587.46"/><path class="cls-53" d="m489.7,494.47c-5.43-1.02-15.16-2-25.47,2.12-20.53,8.21-27.49,30.31-30.42,39.62-4.97,15.79-3.91,30.07-2.12,39.62-8.56,16.43-17.96,33.45-28.3,50.94-10.85,18.35-21.77,35.57-32.54,51.64,9.9,5.9,19.81,11.79,29.71,17.69,11.6-13.79,24-30.25,36.08-49.52,10.35-16.51,18.71-32.28,25.47-46.69,9.2-35.14,18.39-70.27,27.59-105.41Z"/><path class="cls-69" d="m256.71,576.6c4,23.77,14.21,64.01,43.4,104.12.13.19.27.36.4.55,11.32,15.48,23.26,27.89,34.3,37.71h62.93c3.81-3.46,6.73-7.24,8.99-10.94,5.9-9.7,7.13-18.93,7.36-20.82-12.66-20.68-28.28-43.38-47.51-66.81-25.28-30.81-50.75-55.53-73.5-74.98-12.12,10.39-24.24,20.79-36.37,31.18Z"/><path class="cls-2" d="m300.11,680.72c.13.19.27.36.4.55,11.32,15.48,23.26,27.89,34.3,37.71h62.93c3.81-3.46,6.73-7.24,8.99-10.94-14,1.18-16.89,1.01-16.89,1.01-5.63-.34-13.3-1.83-22.35-6.94-47.12-46.31-73.81-66.98-80.09-61.98-4,3.19.24,16.72,12.72,40.6Z"/><ellipse class="cls-38" cx="396.24" cy="686.68" rx="6.96" ry="16.51"/><ellipse class="cls-39" cx="394.82" cy="686.68" rx="5.1" ry="11.08"/><path class="cls-8" d="m291.59,546.17c-.45,3.65-1.68,8.92-5.2,14.1-9.76,14.39-28.21,14.83-30.44,14.85-5.89-2.54-14.63-7.21-23.01-15.59-5.54-5.54-9.33-11.12-11.88-15.59.37-6.02,1.98-18.52,10.39-31.18,11.46-17.26,28-23.46,33.41-25.24,5.17,5.88,11.65,14.49,17.07,25.98,6.04,12.8,8.54,24.44,9.65,32.66Z"/><g class="cls-30"><path class="cls-38" d="m340.16,714.64c-4.41-4.43-8.7-8.98-12.77-13.72-2.04-2.36-4.01-4.78-5.97-7.21-1.95-2.43-3.85-4.9-5.7-7.41-3.7-5.02-7.19-10.18-10.45-15.49-1.65-2.64-3.24-5.32-4.78-8.02-.74-1.34-1.57-2.74-2.21-4.05-.66-1.39-1.29-2.81-1.91-4.24-2.48-5.71-4.83-11.5-7.11-17.31-2.27-5.82-4.56-11.63-6.77-17.47l-6.62-17.54-6.57-17.56-.65,1.1c1.98-.33,3.92-.85,5.82-1.5.94-.33,1.88-.69,2.79-1.09.92-.39,1.82-.83,2.7-1.31.89-.46,1.74-.98,2.58-1.52.83-.55,1.66-1.11,2.44-1.73l1.17-.93,1.11-1c.76-.64,1.41-1.41,2.11-2.11.65-.76,1.29-1.51,1.9-2.31l.87-1.19.82-1.25c.52-.85,1.03-1.7,1.47-2.58.24-.44.45-.88.65-1.33.21-.45.41-.9.59-1.36.38-.91.72-1.84,1.02-2.78.31-.94.56-1.89.78-2.85.43-1.92.7-3.88.81-5.83-.22,1.95-.59,3.88-1.12,5.76-.27.94-.55,1.87-.89,2.79-.33.92-.7,1.82-1.11,2.7-.2.45-.41.88-.64,1.31-.22.43-.44.86-.69,1.28-.47.85-1,1.66-1.54,2.47l-.84,1.17-.91,1.15c-.61.74-1.28,1.45-1.93,2.15-.71.66-1.36,1.37-2.11,1.98l-1.1.94-1.15.87c-.77.58-1.58,1.1-2.4,1.61-.83.49-1.66.97-2.52,1.4-.86.43-1.73.84-2.63,1.19-.89.37-1.8.69-2.71.98-1.83.58-3.7,1.03-5.6,1.3l-.98.14.33.96c2.04,5.91,4.11,11.81,6.25,17.69,2.11,5.89,4.26,11.76,6.47,17.62,2.2,5.86,4.42,11.71,6.75,17.52,1.16,2.91,2.33,5.81,3.53,8.7,1.21,2.89,2.41,5.78,3.7,8.65.65,1.43,1.3,2.86,2,4.28.75,1.49,1.54,2.77,2.33,4.15,1.59,2.71,3.23,5.39,4.92,8.03,3.42,5.26,7.07,10.38,10.91,15.34,1.92,2.48,3.9,4.92,5.92,7.31,2.01,2.4,4.12,4.73,6.25,7.02,4.28,4.58,8.73,8.99,13.4,13.15Z"/></g><path class="cls-63" d="m205.91,295.9h692.73v181.89H205.91c-50.23,0-90.94-40.72-90.94-90.94h0c0-50.23,40.72-90.94,90.94-90.94Z"/><path class="cls-62" d="m153.65,101.07h744.98v181.89H153.65c-50.23,0-90.94-40.72-90.94-90.94h0c0-50.23,40.72-90.94,90.94-90.94Z"/><path class="cls-48" d="m608.42,715.61c-3.47.03-6.94.06-10.41.09.34-3.47.67-6.95,1.01-10.42,3.36-.63,7.65-1.06,12.6-.66,10.23.84,17.85,4.85,21.99,7.48.24,2.24.47,4.54.67,6.88h-25.97c.04-1.12.08-2.25.12-3.38Z"/><path class="cls-38" d="m405.76,664.57c-.31,6.32,1.6,11.54,4.26,11.67,2.66.13,5.08-4.88,5.39-11.2.31-6.32-1.6-11.54-4.26-11.67-2.66-.13-5.08,4.88-5.39,11.2Z"/><path class="cls-54" d="m408.03,664.68c-.21,4.24,1.2,7.76,3.15,7.85,1.95.1,3.7-3.26,3.91-7.5.21-4.24-1.2-7.76-3.15-7.85-1.95-.1-3.7,3.26-3.91,7.5Z"/><g class="cls-29"><path class="cls-38" d="m420.69,709.18c-.16-4.45-.26-8.82-.32-13.06-.11-8.47.12-16.38.37-23.15.25-6.77.69-12.4.98-16.34.31-3.94.54-6.18.54-6.18,0,0-.08,2.25-.23,6.2-.16,3.94-.27,9.58-.38,16.35-.11,6.76-.03,14.65.13,23.1.1,4.22.23,8.6.43,13.02.15,3.26.34,6.56.54,9.86h-1.61c-.18-3.28-.34-6.56-.46-9.8Z"/></g><path class="cls-14" d="m472.64,501.04c1.27,2.06-4.89,6.42-9.56,14.5-5.18,8.98-6.04,18.27-5.89,24.97-2.59-.94-6.24-1.96-10.69-2.27-3.92-.27-7.28.1-9.79.56.95-7.25,3.16-12.81,5-16.49,2.19-4.4,6.55-12.87,15.79-18.05,5.97-3.35,13.89-5.28,15.15-3.22Z"/><path class="cls-20" d="m455.51,544.28c-.19-1.88-4.87-3.09-8.26-3.08-5.55.02-11.26,3.31-10.98,5.49.22,1.77,4.37,2.67,6.57,2.87,6.21.56,12.91-2.94,12.67-5.28Z"/><path class="cls-50" d="m467.05,712.1c4.14-2.63,11.76-6.64,21.99-7.48,4.94-.41,9.24.03,12.6.66.34,3.47.67,6.95,1.01,10.42-3.47-.03-6.94-.06-10.41-.09.04,1.12.08,2.25.12,3.38h-25.97c.2-2.34.43-4.64.67-6.88Z"/><ellipse class="cls-18" cx="669.96" cy="541.73" rx="13.84" ry="28.55" transform="translate(-42.92 57.87) rotate(-4.79)"/><path class="cls-53" d="m642.43,502.09c4.07.03,11.12.68,18.08,4.93,13.06,7.97,16.02,22.61,17.26,28.77,3.74,18.54-3.78,33.62-6.58,38.63,2.54,9.38,5.01,18.97,7.4,28.77,4.39,18.03,8.2,35.59,11.51,52.61-6.03.82-12.06,1.64-18.08,2.47-1.93-5.91-12.86-39.3-14.8-45.21-2.14-6.54-13.48-41.14-15.62-47.68.27-21.1.55-42.2.82-63.29Z"/><path class="cls-60" d="m495.01,712.25c.16-8.08,3.36-13.93,4.93-16.44,7.31.73,14.61,1.46,21.92,2.19.55-9.32,1.1-18.63,1.64-27.95,19.55.18,39.09.37,58.64.55-.73,9.68-1.46,19.36-2.19,29.04,6.76-.18,13.52-.37,20.28-.55,1.32,1.85,5.48,8.16,4.93,16.99-.06,1.01-.19,1.98-.35,2.9h-109.21c-.39-2.01-.64-4.26-.58-6.74Z"/><path class="cls-70" d="m498.85,649.77c-.18,6.58-.37,13.15-.55,19.73,7.85,3.53,17,6.87,27.4,9.32,34.14,8.04,63.68,2.33,81.1-2.74.37-6.58.73-13.15,1.1-19.73-36.35-2.19-72.7-4.38-109.05-6.58Z"/><path class="cls-51" d="m480.49,493.04c8.19-5.03,17.48-9.6,27.95-13.15,58.99-20,114.93,6.34,133.99,16.44,2.01,17.32,3.14,36.91,2.47,58.36-1.34,42.82-9.43,79.12-18.08,106.86-19.86,4.27-47.28,7.97-79.73,5.75-26.39-1.8-48.68-7-65.76-12.33-4.3-18.69-7.93-41.12-9.04-66.58-1.67-38.06,2.82-70.62,8.22-95.35Z"/><path class="cls-36" d="m486.24,499.62c-.67,11.81,35.98,25.65,67.4,27.95,39.01,2.85,82.21-11.2,82.2-23.84,0-12.09-39.56-23-69.87-24.66-35.89-1.96-79.02,7.96-79.73,20.55Z"/><path class="cls-43" d="m513.37,411.67c3.49,6.69,7.07,14.94,9.86,24.66,5.08,17.69,5.55,33.31,4.93,44.39-5.21,2.47-10.41,4.93-15.62,7.4,4.85,20.68,23.01,35.56,43.84,36.17,21.8.64,41.48-14.49,46.58-36.17-5.11-2.37-10.23-4.75-15.34-7.12-1.34-10.48-2.05-27.01,3.29-46.03,3.07-10.93,7.33-19.84,11.23-26.58-29.59,1.1-59.18,2.19-88.78,3.29Z"/><ellipse class="cls-40" cx="388.42" cy="343.41" rx="16.71" ry="39.44" transform="translate(-53.54 72.36) rotate(-9.96)"/><ellipse class="cls-65" cx="729.4" cy="343.41" rx="39.44" ry="16.71" transform="translate(265.01 1002.42) rotate(-80.04)"/><path class="cls-47" d="m461.58,239.87c-2.32-7.08.64-14.17,6.58-28.36,4.83-11.56,16.21-38.77,36.17-40.69,6.06-.58,11.2,1.33,14.39,2.88,3.93-3.66,10.04-8.46,18.5-11.92,12.63-5.16,32.59-8.17,38.22,0,1.83,2.66,2.26,6.66.82,7.81-2.38,1.9-8.61-4.98-11.92-3.29-4.16,2.13-.72,16.3.41,21.78,4.17,20.2,3.47,50.83-7.81,64.53-19.91,24.18-86.95,12.85-95.35-12.74Z"/><path class="cls-45" d="m492.41,236.58c-3.23-6.44,3.51-15.79,5.75-18.91,14-19.42,45.24-27.85,52.61-18.91,6.15,7.46-2.54,29.14-18.08,38.63-14.36,8.77-35.89,7.93-40.28-.82Z"/><path class="cls-12" d="m469.39,228.77c-3.4-6.14-6.74-14.15-8.22-23.84-5.2-34.13,17.04-60.74,21.78-66.17-6.06,4.64-16.58,14.12-23.02,29.59-12.62,30.34.93,58.58,3.29,63.29,2.06-.96,4.11-1.92,6.17-2.88Z"/><path class="cls-23" d="m510.9,236.58c1.62-6.52,5.08-17.22,13.15-27.54,40.61-51.9,152.22-35.81,152.48-31.24.05.83-3.52,2.19-19.73,4.52,9.63,3.46,17.68,6.77,23.84,9.45,14.96,6.51,18.9,9.36,19.32,13.15.38,3.46-2.29,6.69-4.93,9.04,7.06,1.07,11.98,3.18,11.92,4.93-.06,1.72-4.91,3.43-11.51,4.11.7.21,6.31,1.97,8.63,7.81,2.63,6.61-1.37,12.36-1.64,12.74-63.84-2.33-127.69-4.66-191.53-6.99Z"/><path class="cls-5" d="m465.97,220.14c2.54-.75,4.67,3.17,9.86,4.93,6.88,2.33,14.15-.83,19.18-3.84,1.59,1.15,4.19,2.67,7.67,3.29,8.27,1.46,14.68-3.43,15.89-4.38,14.64,2.26,33.07,3.84,54.25,2.74,20.95-1.09,38.93-4.51,53.16-8.22.68,5.37,2.71,8.25,4.38,9.86,11.82,11.41,37.08-9.49,59.73,2.19,2.56,1.32,10.07,5.33,13.15,13.7,4.11,11.15-2.55,22.08-3.84,24.11-79.1-7.31-158.19-14.61-237.29-21.92-.75-17.54,1.58-21.81,3.84-22.47Z"/><path class="cls-55" d="m400.34,278.09c-.44-4.2-.67-9.04-.41-14.39.39-8.08,1.77-15.03,3.29-20.55,4.86-3.81,11.41-8.1,19.73-11.51,18.39-7.53,35.13-6.56,43.98-5.34,1.04,1.98,2.06,4.32,2.88,6.99,2.41,7.86,1.96,14.85,1.23,19.32-23.56,8.49-47.13,16.99-70.69,25.48Z"/><path class="cls-33" d="m713.75,278.09c.44-4.2.67-9.04.41-14.39-.39-8.08-1.77-15.03-3.29-20.55-4.86-3.81-11.41-8.1-19.73-11.51-18.39-7.53-35.13-6.56-43.98-5.34-1.04,1.98-2.06,4.32-2.88,6.99-2.41,7.86-1.96,14.85-1.23,19.32,23.56,8.49,47.13,16.99,70.69,25.48Z"/><path class="cls-57" d="m408.97,383.44c1.98,5.14,3.95,10.28,5.93,15.42,3.14,8.17,10.3,14.16,18.93,15.69,34,6.03,74.79,10.61,120.91,10.54,48.44-.07,91.04-5.27,126.13-11.88,7.54-1.42,13.99-6.25,17.54-13.05,2.52-4.84,5.05-9.68,7.57-14.52-20.73-13.62-71.42-42.93-142.48-44.94-77.78-2.2-133.89,29.62-154.54,42.74Z"/><path class="cls-58" d="m384.68,330.29c2.2,19.7,6.05,37.15,10.29,52.08,0,0,.03-.03.03,0,.59,2.07,1.18,4.11,1.78,6.08,1.09,3.65,4.31,6.21,8.09,6.51,14.43,1.22,31.17,1.61,49.68.26,20.39-1.48,38.34-4.73,53.46-8.42,3.55-.85,6.51-3.39,7.89-6.77,1.45-3.55,2.89-7.14,4.34-10.69,1.64-4.01,5.13-6.9,9.34-7.83,8.09-1.74,17.95-3.16,29.16-3.29,11.24.13,21.11,1.55,29.16,3.29,4.24.92,7.73,3.81,9.37,7.83,1.45,3.55,2.89,7.14,4.34,10.69,1.38,3.39,4.31,5.92,7.89,6.77,15.09,3.68,33.08,6.94,53.46,8.42,18.51,1.35,35.25.95,49.68-.26,3.78-.3,6.97-2.86,8.09-6.51.72-2.37,1.45-4.83,2.17-7.37,4.11-14.63,7.79-31.66,9.93-50.8,1.81-15.98,2.24-30.68,1.91-43.73-.13-4.54-2.56-8.71-6.51-10.98-6.54-3.75-14.04-7.56-22.52-11.05-8.88-3.65-17.23-6.28-24.66-8.22-2.56-3.95-5.13-7.89-7.69-11.84-1.94-2.96-4.9-5.1-8.32-5.92-27.72-6.58-63.92-12.3-106.3-11.8-42.38-.49-78.55,5.23-106.27,11.8-3.42.82-6.41,2.96-8.32,5.92-2.56,3.95-5.13,7.89-7.69,11.84-7.43,1.94-15.78,4.57-24.66,8.22-8.48,3.49-16.01,7.3-22.56,11.05-3.95,2.27-6.38,6.44-6.48,10.98-.33,13.05.1,27.75,1.91,43.73Z"/><ellipse class="cls-3" cx="464.05" cy="312.9" rx="47.13" ry="45.21" transform="translate(92.08 731.1) rotate(-82.34)"/><ellipse class="cls-3" cx="653.74" cy="312.9" rx="47.13" ry="45.21" transform="translate(256.49 919.1) rotate(-82.34)"/><ellipse class="cls-64" cx="468.98" cy="315.09" rx="47.13" ry="45.21" transform="translate(94.18 737.88) rotate(-82.34)"/><ellipse class="cls-66" cx="649.49" cy="315.09" rx="45.21" ry="47.13" transform="translate(-36.2 89.38) rotate(-7.66)"/><g class="cls-28"><path class="cls-22" d="m556.94,353.3s.08-.46.22-1.32c.14-.86.36-2.12.59-3.72.48-3.21,1.12-7.81,1.71-13.34.31-2.77.61-5.77.88-8.95.27-3.18.55-6.53.75-10.01.2-3.47.43-7.06.54-10.72.12-3.65.23-7.37.3-11.07.03-3.71.04-7.43,0-11.08,0-3.65-.14-7.25-.24-10.73-.1-3.48-.28-6.84-.47-10.02-.17-3.18-.4-6.19-.62-8.97-.22-2.77-.46-5.31-.69-7.56-.22-2.25-.46-4.21-.65-5.82-.18-1.61-.38-2.88-.49-3.74-.12-.86-.18-1.32-.18-1.32,0,0,0,1.86.01,5.1.03,3.24.07,7.87.11,13.43.02,5.55.05,12.02.08,18.96-.01,3.46-.03,7.05-.04,10.68,0,3.64-.06,7.33-.12,11.02-.03,3.71-.1,7.39-.18,11.03-.09,3.64-.17,7.22-.26,10.68-.22,6.93-.43,13.4-.61,18.95-.2,5.55-.37,10.18-.49,13.42-.1,3.25-.16,5.1-.16,5.1Z"/></g><polygon class="cls-10" points="443.83 308.21 449.87 308.21 457.27 308.21 480.33 308.21 488.95 308.21 493.77 308.21 500.49 316.35 493.77 324.48 488.95 324.48 480.33 324.48 457.27 324.48 449.87 324.48 443.83 324.48 437.11 316.35 443.83 308.21"/><polygon class="cls-10" points="623.95 308.21 630 308.21 637.39 308.21 660.45 308.21 669.08 308.21 673.89 308.21 680.61 316.35 673.89 324.48 669.08 324.48 660.45 324.48 637.39 324.48 630 324.48 623.95 324.48 617.23 316.35 623.95 308.21"/><path class="cls-19" d="m507.62,236.58c13.79-2.92,30.84-5.34,50.42-5.48,25.57-.19,47.25,3.56,63.57,7.67-1.2,1.72-22.91,31.78-60.28,29.59-34.03-1.99-51.94-29.01-53.7-31.78Z"/><path class="cls-18" d="m478.02,240.41c-.28-2.33,12.14-6.09,22.47-7.67,14.5-2.21,30.96-1.04,31.24,1.64.28,2.71-15.84,7.14-30.14,8.22-10.03.75-23.28.16-23.56-2.19Z"/><path class="cls-18" d="m544.33,233.84c-6.4-2.99-14.3,4.12-13.7,7.12.76,3.83,16.27,5.88,18.63,1.64,1.32-2.38-1.3-7.07-4.93-8.77Z"/><circle class="cls-13" cx="702.59" cy="251.94" r="8.07"/><circle class="cls-68" cx="702.81" cy="251.22" r="8.07"/><ellipse class="cls-18" cx="435.72" cy="367.28" rx="14.65" ry="2.6"/><path class="cls-18" d="m422.54,294.32s-.1.21-.3.62c-.19.4-.48.99-.79,1.77-.32.77-.68,1.72-1.06,2.83-.37,1.11-.77,2.36-1.09,3.77-.35,1.4-.63,2.94-.86,4.57-.2,1.64-.38,3.38-.39,5.19-.03,1.81.02,3.68.24,5.57.05.47.11.95.16,1.42l.24,1.42c.16.93.31,1.87.56,2.82.44,1.91,1.02,3.75,1.68,5.53.65,1.79,1.44,3.49,2.28,5.09.43.8.82,1.59,1.3,2.33.45.75.89,1.47,1.37,2.15.46.69.91,1.35,1.39,1.96.46.63.93,1.21,1.39,1.76.9,1.12,1.81,2.08,2.63,2.91.82.83,1.56,1.53,2.18,2.08.61.57,1.13.97,1.48,1.25.35.28.54.43.54.43,0,0-.67-.68-1.79-1.91-.56-.61-1.23-1.37-1.95-2.27-.36-.45-.75-.92-1.13-1.45-.39-.51-.81-1.05-1.21-1.63-.42-.57-.83-1.18-1.24-1.82-.43-.63-.85-1.29-1.26-1.99-.43-.68-.83-1.41-1.22-2.16-.42-.74-.79-1.51-1.18-2.3-.77-1.58-1.45-3.26-2.08-4.99-.62-1.73-1.16-3.53-1.57-5.33-.25-.88-.41-1.83-.58-2.76l-.25-1.37c-.06-.46-.12-.92-.17-1.37-.13-.91-.17-1.82-.27-2.72-.04-.9-.11-1.79-.1-2.67-.03-1.76.05-3.45.17-5.06.16-1.61.32-3.13.57-4.52.47-2.79,1.05-5.09,1.53-6.68.47-1.59.78-2.49.78-2.49Z"/><path class="cls-18" d="m695.65,293.91s.27.92.68,2.53c.42,1.61.92,3.94,1.29,6.76.2,1.41.32,2.94.43,4.55.06,1.62.11,3.33.03,5.09,0,.88-.11,1.77-.16,2.68-.11.9-.18,1.82-.32,2.73-.07.46-.14.92-.2,1.38-.06.41-.18.91-.26,1.37-.19.93-.35,1.88-.62,2.77-.43,1.8-.98,3.61-1.62,5.34-.64,1.73-1.32,3.42-2.1,5.01-.38.8-.77,1.57-1.18,2.32-.39.75-.79,1.48-1.22,2.17-.4.7-.83,1.37-1.25,2.01-.4.65-.82,1.26-1.23,1.84-1.63,2.32-3.13,4.18-4.24,5.42-1.1,1.25-1.77,1.94-1.77,1.94,0,0,.18-.15.53-.44.34-.29.85-.7,1.46-1.28,1.22-1.15,2.95-2.82,4.77-5.07.91-1.12,1.86-2.37,2.76-3.76.47-.68.92-1.41,1.36-2.16.47-.74.87-1.53,1.29-2.34.84-1.61,1.63-3.31,2.29-5.1.67-1.78,1.26-3.63,1.73-5.53.27-.95.41-1.88.6-2.82.09-.48.19-.9.26-1.43.07-.48.13-.95.2-1.42.25-1.89.34-3.77.35-5.58.04-1.81-.11-3.57-.25-5.22-.19-1.65-.42-3.2-.72-4.61-.28-1.42-.62-2.7-.96-3.82-.34-1.12-.66-2.09-.95-2.88-.28-.79-.54-1.4-.71-1.81-.18-.41-.27-.63-.27-.63Z"/><g class="cls-24"><path class="cls-35" d="m628.18,213.56s.91-.53,2.5-1.46c1.59-.92,3.88-2.18,6.68-3.56,1.4-.69,2.94-1.37,4.56-2.08,1.63-.7,3.38-1.35,5.2-2.02.44-.15.89-.31,1.34-.46.48-.15.96-.29,1.44-.44.97-.28,1.96-.63,2.91-.87.97-.25,1.93-.54,2.92-.77,1-.22,2-.43,3-.65,1.01-.19,2.02-.38,3.02-.57,1.01-.15,2.02-.29,3.02-.43,1.01-.11,2-.22,2.99-.33.99-.11,1.97-.16,2.93-.24,1.93-.1,3.8-.18,5.58-.2,1.78,0,3.46.02,5.02.08,1.56.08,2.99.15,4.26.25,1.27.1,2.38.2,3.29.29,1.84.19,2.88.3,2.88.3,0,0-.25-.09-.71-.26-.47-.17-1.15-.41-2.04-.68-.89-.27-1.97-.6-3.23-.89-1.26-.31-2.68-.62-4.26-.88-1.57-.27-3.29-.51-5.12-.66-1.83-.16-3.76-.27-5.77-.25-2.01.03-4.08.08-6.18.31-1.05.13-2.1.26-3.16.4-1.05.18-2.11.36-3.17.54-1.04.25-2.09.49-3.13.74-1.04.26-2.07.59-3.1.88-1.05.27-1.98.66-2.94,1-.48.17-.95.35-1.42.52-.48.2-.96.39-1.44.59-1.86.76-3.59,1.64-5.21,2.51-1.62.86-3.1,1.77-4.44,2.65-2.67,1.75-4.73,3.44-6.12,4.66-.7.6-1.22,1.12-1.58,1.46-.35.35-.54.53-.54.53Z"/></g><g class="cls-24"><path class="cls-35" d="m519.53,216.85s.55-.64,1.51-1.77c.95-1.12,2.32-2.71,4-4.55.84-.92,1.77-1.89,2.75-2.92.49-.5,1.02-1.05,1.53-1.53.56-.51,1.1-1.07,1.66-1.62,1.14-1.07,2.27-2.11,3.51-3.17,1.21-1.07,2.48-2.11,3.77-3.13,1.28-1.03,2.6-2,3.9-2.96.67-.46,1.32-.92,1.96-1.39.66-.45,1.31-.89,1.95-1.32,1.3-.83,2.55-1.66,3.77-2.4,1.22-.73,2.37-1.43,3.45-2.05,1.09-.62,2.09-1.18,2.97-1.68.9-.49,1.68-.92,2.32-1.27,1.3-.71,2.04-1.12,2.04-1.12,0,0-.21.04-.6.12-.39.09-.97.19-1.68.39-.72.18-1.59.41-2.58.72-.99.3-2.1.66-3.29,1.13-1.2.44-2.48.97-3.8,1.59-1.33.61-2.72,1.3-4.11,2.09-1.39.8-2.83,1.63-4.22,2.57-1.4.94-2.78,1.95-4.13,3.01-1.33,1.08-2.65,2.18-3.86,3.35-.62.56-1.22,1.15-1.79,1.77-.57.6-1.17,1.19-1.68,1.78-.52.59-1.04,1.16-1.52,1.75-.53.62-.97,1.2-1.42,1.78-.9,1.16-1.69,2.3-2.39,3.37-1.41,2.13-2.4,4.01-3.06,5.35-.65,1.34-.96,2.13-.96,2.13Z"/></g><path class="cls-35" d="m497.75,218.49s.5-.37,1.33-1.04c.83-.67,2-1.62,3.42-2.76,1.42-1.12,3.05-2.43,4.82-3.78.89-.67,1.81-1.36,2.75-2.07.92-.68,1.89-1.39,2.86-2.07,3.85-2.75,7.86-5.29,10.92-7.22,1.54-.97,2.82-1.77,3.72-2.33.91-.57,1.42-.92,1.42-.92,0,0-.15.03-.44.07-.28.06-.71.12-1.23.25-1.05.23-2.55.62-4.29,1.24-1.75.59-3.75,1.43-5.81,2.48-.52.26-1.04.54-1.55.83-.52.28-1.05.59-1.56.91-1.05.62-2.07,1.31-3.08,2.02-1.01.72-1.99,1.45-2.93,2.25-.98.79-1.79,1.54-2.67,2.36-1.68,1.6-3.12,3.21-4.26,4.67-1.15,1.44-2.01,2.73-2.57,3.65-.57.92-.85,1.47-.85,1.47Z"/><path class="cls-7" d="m482.13,194.66c2.23-.47,6.51-1.04,11.51.41,7.37,2.14,11.44,7.26,12.74,9.04,2.17-1.06,9.09-4.08,16.85-1.64,2.38.75,4.3,1.84,5.75,2.88,4.78-2.61,9.98-4.99,15.62-6.99,40.18-14.22,78.9-.58,97,7.4-6.45-5.44-15.58-11.68-27.54-16.03-33.71-12.27-64.48-.25-73.57,3.7-2.24-1.22-5.6-2.67-9.86-3.29-7.83-1.14-14.06,1.2-16.85,2.47-2.28-4.15-5.1-5.86-6.58-6.58-7.15-3.45-17.5-.19-25.07,8.63Z"/><circle class="cls-15" cx="648.37" cy="315.09" r="53.56" transform="translate(102.54 785.98) rotate(-66.7)"/><circle class="cls-16" cx="464.28" cy="312.42" r="53.56"/><path class="cls-1" d="m395,382.37c.59,2.07,1.18,4.11,1.78,6.08,1.09,3.65,4.31,6.21,8.09,6.51,14.43,1.22,31.17,1.61,49.68.26,20.39-1.48,38.34-4.73,53.46-8.42,3.55-.85,6.51-3.39,7.89-6.77,1.45-3.55,2.89-7.14,4.34-10.69,1.64-4.01,5.13-6.9,9.34-7.83,8.09-1.74,17.95-3.16,29.16-3.29,11.24.13,21.11,1.55,29.16,3.29,4.24.92,7.73,3.81,9.37,7.83,1.45,3.55,2.89,7.14,4.34,10.69,1.38,3.39,4.31,5.92,7.89,6.77,15.09,3.68,33.08,6.94,53.46,8.42,18.51,1.35,35.25.95,49.68-.26,3.78-.3,6.97-2.86,8.09-6.51.72-2.37,1.45-4.83,2.17-7.37-.33.26-.66.49-.99.72-9.21,6.28-19.27,8.48-46.03,8.22-39.32-.43-59.22-.85-70.13-12.07-5.42-5.57-6.17-9.9-10.14-14.98h0s-1.89-2.27-5.26-3.38c-13.45-4.43-33.15-4.11-33.15-4.11-12.7.21-23.6.89-32.33,4.93-1.7.79-3.08,1.59-4.4,2.56-7.04,5.16-8.27,13.07-10.14,14.98-10.92,11.21-30.81,11.64-70.13,12.07-25.98.26-36.2-1.81-45.21-7.66Z"/><g class="cls-26"><path class="cls-22" d="m407.74,266.38l7.08-2.48c2.36-.81,4.73-1.59,7.1-2.35,2.38-.74,4.75-1.48,7.15-2.14l3.59-1,3.61-.94.32-.08.15-.25c.69-1.15,1.4-2.28,2.08-3.44.68-1.16,1.37-2.3,2.03-3.47,1.34-2.32,2.64-4.67,3.88-7.06-1.64,2.13-3.22,4.3-4.75,6.5-.78,1.09-1.52,2.21-2.29,3.31-.77,1.1-1.49,2.23-2.24,3.34l.47-.34c-1.23.25-2.45.55-3.67.86-1.22.31-2.44.62-3.64.97-2.41.71-4.81,1.47-7.17,2.34-2.36.85-4.69,1.81-6.98,2.84-2.29,1.03-4.54,2.15-6.72,3.4Z"/></g><g class="cls-26"><path class="cls-22" d="m709.64,265.96c-2.18-1.25-4.43-2.37-6.72-3.4-2.29-1.03-4.62-1.99-6.98-2.84-2.36-.87-4.76-1.63-7.17-2.34-1.21-.35-2.43-.66-3.64-.98-1.22-.31-2.44-.6-3.67-.86l.47.34c-.75-1.11-1.47-2.24-2.24-3.34-.76-1.1-1.51-2.22-2.29-3.31-1.54-2.2-3.11-4.37-4.75-6.5,1.23,2.39,2.54,4.74,3.88,7.06.66,1.17,1.35,2.31,2.03,3.47.67,1.16,1.39,2.29,2.08,3.44l.15.25.32.08,3.61.94,3.59,1c2.4.67,4.77,1.4,7.15,2.14,2.37.76,4.74,1.54,7.1,2.35l7.08,2.48Z"/></g><path class="cls-9" d="m701.61,244.8c-.55.1-.44,3.71.1,6.68.57,3.11,1.8,6.58,2.36,6.47.55-.1.44-3.71-.1-6.68-.57-3.11-1.8-6.58-2.36-6.47Z"/><circle class="cls-44" cx="558.05" cy="598.26" r="45.46"/><circle class="cls-52" cx="557.48" cy="598.26" r="37.57"/><path class="cls-18" d="m484.05,518.25c-.57.86,8.37,9.85,21.37,14.25,8.48,2.86,16.94,3.19,17.12,2.37.15-.69-5.59-2-14.93-5.66-15.75-6.17-23.08-11.7-23.56-10.96Z"/><path class="cls-18" d="m529.81,536.2c-.1,1.7,6.75,5.3,11.92,2.47,1.87-1.02,4.24-3.29,3.7-4.52-1.15-2.64-15.47-.35-15.62,2.05Z"/><path class="cls-53" d="m528.99,481.54c1.1,4.01,3.73,11.41,10.27,18.08,3.12,3.19,11.67,11.9,22.19,11.1,16.95-1.29,25.93-26.24,24.25-27.54-1.66-1.28-13.3,20.93-29.59,20.55-11.22-.26-20.43-11.14-27.13-22.19Z"/><path class="cls-14" d="m648.53,505.81c-1.08,1.57,3.6,5.24,6.95,11.77,3.73,7.26,4.04,14.6,3.66,19.86,2.07-.64,4.98-1.3,8.49-1.37,3.09-.06,5.71.36,7.67.82-.47-5.74-1.99-10.19-3.29-13.15-1.55-3.55-4.65-10.37-11.71-14.8-4.56-2.87-10.71-4.69-11.78-3.12Z"/><path class="cls-20" d="m660.32,540.46c.22-1.47,3.95-2.24,6.61-2.1,4.36.23,8.72,3.04,8.42,4.74-.25,1.39-3.54,1.93-5.28,2-4.9.2-10.03-2.81-9.75-4.64Z"/><g class="cls-25"><path class="cls-41" d="m558.78,631.47c14.59,0,26.47-13.06,26.47-29.11,0-5.51-1.41-10.88-4.07-15.52-1.57-2.73-4.85-3.55-7.34-1.82s-3.22,5.34-1.66,8.07c1.59,2.77,2.43,5.97,2.43,9.27,0,9.6-7.1,17.41-15.83,17.41s-15.84-7.81-15.84-17.41c0-3.3.84-6.5,2.43-9.27,1.57-2.73.83-6.34-1.66-8.07-2.48-1.73-5.77-.91-7.34,1.82-2.67,4.64-4.07,10.01-4.07,15.52,0,16.05,11.88,29.11,26.47,29.11Z"/></g><g class="cls-25"><path class="cls-41" d="m558.77,612.81c2.94,0,5.32-2.62,5.32-5.85v-24.79c0-3.23-2.38-5.85-5.32-5.85s-5.32,2.62-5.32,5.85v24.79c0,3.23,2.38,5.85,5.32,5.85Z"/></g><path class="cls-49" d="m557.4,631.47c14.59,0,26.47-13.06,26.47-29.11,0-5.51-1.41-10.88-4.07-15.52-1.57-2.73-4.85-3.55-7.34-1.82-2.48,1.73-3.22,5.34-1.66,8.07,1.59,2.77,2.43,5.97,2.43,9.27,0,9.6-7.1,17.41-15.83,17.41s-15.84-7.81-15.84-17.41c0-3.3.84-6.5,2.43-9.27,1.57-2.73.83-6.34-1.66-8.07-2.48-1.73-5.77-.91-7.34,1.82-2.67,4.64-4.07,10.01-4.07,15.52,0,16.05,11.88,29.11,26.47,29.11Z"/><path class="cls-34" d="m557.4,612.81c2.94,0,5.32-2.62,5.32-5.85v-24.79c0-3.23-2.38-5.85-5.32-5.85s-5.32,2.62-5.32,5.85v24.79c0,3.23,2.38,5.85,5.32,5.85Z"/><path class="cls-18" d="m541.35,625.3s-.32-.37-.88-1.02c-.56-.64-1.32-1.59-2.17-2.76-.85-1.17-1.78-2.58-2.64-4.15-.4-.78-.86-1.65-1.22-2.49-.2-.42-.39-.85-.55-1.3-.17-.44-.36-.88-.5-1.34-.33-.9-.6-1.81-.83-2.72-.11-.46-.22-.91-.32-1.36-.09-.45-.18-.9-.26-1.34-.14-.89-.27-1.74-.36-2.57-.07-.82-.14-1.6-.17-2.32-.06-1.45-.04-2.66-.01-3.51.04-.85.06-1.34.06-1.34,0,0-.03.12-.09.34-.06.22-.14.55-.23.97-.17.84-.38,2.06-.48,3.53-.05.74-.07,1.54-.05,2.39.02.43.04.86.06,1.31.04.45.09.9.13,1.36.13.92.27,1.87.5,2.83.23.95.5,1.91.83,2.85.15.47.36.93.54,1.39.18.46.38.91.6,1.36.41.92.9,1.69,1.36,2.52.98,1.59,2.05,2.95,3.05,4.04.99,1.1,1.92,1.91,2.57,2.47.66.55,1.05.84,1.05.84Z"/><path class="cls-18" d="m552.08,606.96s.22-1.36.37-3.4c.08-1.02.15-2.21.2-3.48.05-1.27.06-2.63.08-3.99-.01-1.36-.02-2.72-.08-3.99-.04-1.27-.11-2.46-.2-3.48-.15-2.04-.37-3.4-.37-3.4,0,0-.22,1.36-.37,3.4-.08,1.02-.15,2.21-.2,3.48-.05,1.27-.06,2.63-.08,3.99.01,1.36.02,2.72.08,3.99.05,1.27.11,2.46.2,3.48.15,2.04.37,3.4.37,3.4Z"/><path class="cls-18" d="m566.98,615.88s.3-.19.79-.57c.49-.38,1.17-.96,1.9-1.75.73-.79,1.5-1.8,2.15-2.98.09-.15.16-.3.24-.45.04-.09.07-.13.13-.25l.1-.23c.14-.31.28-.62.41-.94.24-.69.48-1.39.65-2.09.16-.71.28-1.43.34-2.14.05-.35.06-.71.06-1.06,0-.35,0-.69-.01-1.03-.02-.68-.1-1.33-.2-1.94-.09-.61-.23-1.18-.38-1.69-.29-1.03-.64-1.86-.9-2.42-.27-.56-.46-.86-.46-.86,0,0,.08.34.21.94.13.6.29,1.46.42,2.48.06.51.11,1.07.15,1.65.03.59.04,1.2.02,1.84,0,.64-.07,1.29-.15,1.95-.07.66-.2,1.32-.36,1.98-.14.67-.34,1.29-.54,1.91-.12.32-.25.64-.37.95l-.09.24-.09.2c-.07.15-.13.3-.2.44-.53,1.15-1.15,2.18-1.72,3.04-.58.85-1.11,1.55-1.5,2.02-.39.48-.61.75-.61.75Z"/><path class="cls-6" d="m526.9,579.77c.33,9.56,26.61,14.58,27.78,14.79,10.69,1.96,30.32,2.85,33.46-3.91,3.48-7.49-12.91-25.13-32-25.99-13.92-.63-29.5,7.66-29.24,15.11Z"/><path class="cls-11" d="m505.42,703.48c12.53,2.39,27.27,4.34,43.84,4.93,17.85.63,33.75-.47,47.13-2.19.28,3.48.34,7.83-.26,12.76h-92.38c-.09-6.25.74-11.55,1.67-15.5Z"/><path class="cls-18" d="m505.15,704.3s.35.1,1,.28c.65.18,1.6.46,2.83.77,2.45.63,5.97,1.47,10.23,2.26,2.13.41,4.45.81,6.91,1.17,2.46.36,5.06.73,7.76.99,2.7.27,5.49.57,8.34.72,2.85.18,5.73.3,8.64.39,2.86.05,5.79.05,8.64,0,2.85-.03,5.65-.19,8.36-.35,2.71-.14,5.32-.4,7.8-.64,2.47-.25,4.81-.54,6.95-.86,4.3-.6,7.85-1.29,10.32-1.8,1.24-.25,2.2-.49,2.86-.64.66-.15,1.01-.24,1.01-.24,0,0-1.44.08-3.96.23-2.52.15-6.11.36-10.41.57-2.15.09-4.48.19-6.94.29-2.46.06-5.06.13-7.74.2-2.68.07-5.46.04-8.28.07-2.83,0-5.65-.03-8.55-.11-2.85-.05-5.72-.13-8.53-.27-2.81-.14-5.59-.25-8.26-.43-2.68-.19-5.27-.37-7.73-.55-2.46-.21-4.78-.41-6.92-.6-2.15-.21-4.11-.4-5.86-.57-1.75-.18-3.27-.34-4.52-.47-2.51-.26-3.95-.41-3.95-.41Z"/><path class="cls-4" d="m482.41,655.25s.54.2,1.54.57c1,.37,2.47.92,4.37,1.56,3.79,1.29,9.23,3.03,15.88,4.75,3.33.84,6.94,1.74,10.8,2.51,3.85.81,7.94,1.58,12.19,2.21,4.25.66,8.65,1.23,13.14,1.68,4.49.4,9.07.79,13.65.97,4.55.21,9.19.23,13.69.22,4.51-.05,8.95-.24,13.24-.53,4.29-.25,8.42-.69,12.33-1.13,3.91-.47,7.59-1,10.98-1.58,3.39-.55,6.48-1.15,9.2-1.73,2.73-.56,5.09-1.13,7.03-1.6,1.94-.47,3.46-.89,4.49-1.17,1.03-.28,1.58-.43,1.58-.43,0,0-2.25.35-6.2.96-1.97.3-4.37.64-7.12,1-1.37.19-2.84.37-4.38.55-1.54.19-3.17.38-4.86.56-3.39.37-7.07.68-10.96,1-3.89.27-8,.52-12.25.68-4.25.2-8.64.2-13.11.25-4.48-.03-8.97-.09-13.52-.33-4.54-.15-9.05-.49-13.5-.85-4.44-.43-8.82-.82-13.04-1.39-4.22-.55-8.29-1.12-12.14-1.76-3.85-.63-7.48-1.31-10.83-1.94-3.34-.68-6.41-1.31-9.11-1.91-2.71-.61-5.07-1.15-7-1.62-3.88-.95-6.09-1.5-6.09-1.5Z"/><path class="cls-46" d="m652.53,651.13c3.81-1.97,8.71-3.95,14.57-5.1,17.59-3.49,32.19,2.79,38.14,5.79,2.33,11.34,4.11,24.13,4.6,38.21.37,10.09.03,19.76-.82,28.95h-51.25c-1.72-22.05-3.63-46.84-5.24-67.85Z"/><path class="cls-38" d="m705.2,664.57c.31,6.32-1.6,11.54-4.26,11.67-2.66.13-5.08-4.88-5.39-11.2-.31-6.32,1.6-11.54,4.26-11.67,2.66-.13,5.08,4.88,5.39,11.2Z"/><path class="cls-32" d="m702.93,664.68c.21,4.24-1.2,7.76-3.15,7.85-1.95.1-3.7-3.26-3.91-7.5-.21-4.24,1.2-7.76,3.15-7.85,1.95-.1,3.7,3.26,3.91,7.5Z"/><g class="cls-29"><path class="cls-38" d="m688.73,709.12c.2-4.42.33-8.8.43-13.02.17-8.45.25-16.34.13-23.1-.11-6.76-.22-12.4-.38-16.35-.14-3.95-.23-6.2-.23-6.2,0,0,.23,2.24.54,6.18.29,3.94.73,9.57.98,16.34.25,6.77.47,14.68.37,23.15-.06,4.24-.16,8.6-.32,13.06-.12,3.24-.28,6.52-.46,9.8h-1.61c.21-3.3.39-6.6.54-9.86Z"/></g><path class="cls-17" d="m428.98,648.68c-10.42,7.68,3.31,53.84,13.43,53.43,9.05-.37,19.02-38.16,7.4-49.59-5.28-5.2-11.51-5.75-11.51-5.75-3.31-.3-7.25.4-9.32,1.92Z"/><path class="cls-18" d="m429.7,651.94c0,1.83,3.27,3.31,7.3,3.31s7.3-1.48,7.3-3.31-3.27-3.31-7.3-3.31-7.3,1.48-7.3,3.31Z"/><path class="cls-17" d="m682.62,650.29c10.42,7.68-3.31,53.84-13.43,53.43-9.05-.37-19.02-38.16-7.4-49.59,5.28-5.2,11.51-5.75,11.51-5.75,3.31-.3,7.25.4,9.32,1.92Z"/><path class="cls-18" d="m681.9,653.56c0,1.83-3.27,3.31-7.3,3.31s-7.3-1.48-7.3-3.31,3.27-3.31,7.3-3.31,7.3,1.48,7.3,3.31Z"/><path class="cls-18" d="m141.44,385.63c0-40.03,32.57-72.61,72.61-72.61s72.61,32.57,72.61,72.61c0,40.03-32.57,72.61-72.61,72.61s-72.61-32.57-72.61-72.61Zm4.66,0c0,37.47,30.48,67.95,67.95,67.95,37.47,0,67.95-30.48,67.95-67.95,0-37.47-30.48-67.95-67.95-67.95-37.47,0-67.95,30.48-67.95,67.95Z"/><path class="cls-56" d="m404.17,597.59c0-10.67,8.65-19.31,19.31-19.31h332.1c10.67,0,19.31,8.65,19.31,19.31v121.39h-370.72v-121.39Z"/><path class="cls-61" d="m545.38,704.3c0-22.64,18.35-40.99,40.99-40.99,22.64,0,40.99,18.35,40.99,40.99,0,5.18-.97,10.12-2.72,14.68h-76.54c-1.75-4.56-2.72-9.51-2.72-14.68Z"/><path class="cls-37" d="m404.17,718.98h370.72s0-46.45,0-46.45c-30.94,11.89-67.14,22.97-108.15,30.61-108.4,20.19-201.28,7.18-262.57-7.39v23.22Z"/><path class="cls-59" d="m264.87,487.52s-69.5-15.96-85.52-18.13c-11.96-1.62-27.2-9.13-34.15-12.83-1.96-1.04-4.38-.03-5.03,2.09l-1.8,5.85c-1.47,4.8.51,9.98,4.82,12.56,8.44,5.05,22.17,12.88,29.95,15.32,11.8,3.71,40.91,3.77,40.91,3.77l-21.04,7.23s-2.02,35.51,7.37,41.73c9.39,6.23,24.92,15.57,24.92,15.57l9.93-7.89-4.97-14.45s9.93,1.93,10.55-3.09c.62-5.02-.62-22-.62-22,0,0,14.9-2.61,19.87-8.03,4.97-5.42,4.81-17.71,4.81-17.71Z"/><path class="cls-2" d="m210.39,508.5c.21,2.94,1.23,11.93,8.38,19.56,1.9,2.03,6.91,7.21,15.37,8.85,9.18,1.77,16.38-1.81,18.47-2.95,3.31-10.76,6.62-21.52,9.93-32.29-6.17-1.47-16.45-3.09-28.87-1.09-10.22,1.65-18.14,5.14-23.28,7.92Z"/><path class="cls-31" d="m278.93,507.59s-58.36-5.1-57.86,5.67,6.71,22.06,10.43,22c3.73-.06,50.94,6.27,58.06,0,7.13-6.27-10.64-27.67-10.64-27.67Z"/><path class="cls-14" d="m425.53,582.08c23.28.38,46.57.69,69.85.93,86.91.91,173.83.91,260.77,0-53.59,11.94-124.65,21.7-207.68,16.76-46.28-2.75-87.57-9.56-122.93-17.7Z"/><path class="cls-18" d="m420.87,589.53c-.07,1.67,22.18,4.02,37.25,4.66,31.54,1.34,62.52-3.52,62.4-5.59-.21-3.69-99.51-2.58-99.65.93Z"/><circle class="cls-18" cx="240.19" cy="152.74" r="109.9"/><path class="cls-18" d="m284.32,231.09c9.89-.12,78.8,20.28,78.8,20.28l-50.29-59.36-28.51,39.08Z"/><path class="cls-18" d="m631.53,83.47c0-9.04,7.35-16.39,16.39-16.39s16.39,7.35,16.39,16.39-7.35,16.39-16.39,16.39-16.39-7.35-16.39-16.39Zm1.98,0c0,7.95,6.47,14.41,14.41,14.41s14.41-6.47,14.41-14.41-6.47-14.41-14.41-14.41-14.41,6.47-14.41,14.41Z"/><path class="cls-18" d="m645.51,104.99l.29-2.6c.7.08,1.41.12,2.11.12h.02l-.02,2.61c-.8,0-1.61-.04-2.4-.13Zm4.55-2.6c.71-.08,1.41-.2,2.1-.36l.58,2.55c-.79.18-1.59.32-2.39.41l-.29-2.6Zm-9.28,1.53l.86-2.47c.67.23,1.36.43,2.05.59l-.58,2.55c-.79-.18-1.58-.4-2.34-.67Zm13.43-2.48c.67-.23,1.33-.51,1.97-.82l1.14,2.35c-.73.35-1.48.67-2.24.93l-.87-2.47Zm-17.8.38l1.39-2.21c.6.38,1.23.73,1.87,1.03l-1.13,2.36c-.73-.35-1.44-.74-2.12-1.17Zm21.64-2.23c.6-.38,1.18-.79,1.74-1.24l1.63,2.04c-.63.5-1.3.98-1.98,1.41l-1.39-2.21Zm-25.43-.79l1.85-1.85c.5.5,1.04.98,1.59,1.42l-1.63,2.05c-.63-.5-1.24-1.05-1.81-1.62Zm28.76-1.88c.5-.5.98-1.04,1.42-1.59l2.04,1.63c-.5.63-1.05,1.24-1.62,1.81l-1.85-1.85Zm-31.79-1.91l2.21-1.4c.38.6.79,1.18,1.24,1.74l-2.04,1.63c-.51-.63-.98-1.3-1.41-1.98Zm34.45-1.43c.38-.6.73-1.23,1.03-1.87l2.36,1.14c-.35.73-.75,1.44-1.18,2.12l-2.21-1.39Zm-36.56-2.94l2.47-.87c.24.67.51,1.33.82,1.97l-2.35,1.14c-.35-.73-.67-1.48-.93-2.24Zm38.41-.9c.23-.67.43-1.36.59-2.05l2.55.58c-.18.79-.41,1.57-.67,2.33l-2.47-.86Zm-39.5-3.82l2.6-.29c.08.7.2,1.41.36,2.1l-2.55.58c-.18-.79-.32-1.59-.41-2.39Zm40.44-.33c.08-.71.12-1.42.12-2.13v-.08l2.61.08c0,.81-.04,1.62-.13,2.42l-2.6-.29Zm-40.58-2.13c0-.8.04-1.6.13-2.38l2.6.29c-.08.69-.11,1.39-.11,2.09v.04l-2.61-.04Zm40.21-4.31l2.55-.59c.18.79.32,1.59.41,2.39l-2.6.3c-.08-.7-.2-1.41-.36-2.1Zm-39.68-.46c.18-.79.4-1.57.67-2.34l2.47.86c-.23.67-.43,1.36-.59,2.05l-2.55-.57Zm38.26-3.55l2.35-1.14c.35.73.67,1.48.94,2.24l-2.46.87c-.24-.67-.51-1.33-.82-1.97Zm-36.67-1.03c.35-.73.74-1.44,1.17-2.13l2.21,1.39c-.38.6-.72,1.23-1.03,1.87l-2.36-1.13Zm34.38-2.57l2.04-1.64c.5.63.98,1.29,1.41,1.97l-2.21,1.4c-.38-.6-.8-1.18-1.24-1.74Zm-31.81-1.54c.5-.63,1.04-1.24,1.61-1.81l1.85,1.84c-.5.5-.98,1.04-1.42,1.59l-2.05-1.63Zm28.78-1.46l1.62-2.05c.63.5,1.24,1.04,1.81,1.61l-1.84,1.85c-.5-.5-1.04-.98-1.6-1.42Zm-25.37-1.97c.63-.51,1.29-.98,1.97-1.41l1.4,2.21c-.6.38-1.18.8-1.74,1.24l-1.64-2.04Zm21.75-.29l1.13-2.36c.73.35,1.44.74,2.13,1.17l-1.39,2.22c-.6-.38-1.23-.72-1.87-1.03Zm-17.66-2.3c.73-.35,1.48-.67,2.24-.94l.87,2.47c-.67.24-1.33.51-1.97.82l-1.14-2.35Zm13.63.91l.57-2.55c.79.18,1.58.4,2.34.66l-.86,2.47c-.67-.23-1.36-.43-2.05-.58Zm-9.06-2.52c.78-.18,1.59-.32,2.39-.41l.3,2.6c-.71.08-1.41.2-2.1.36l-.59-2.55Zm4.88,2.06h-.06l.06-2.61c.79,0,1.58.04,2.36.13l-.28,2.6c-.68-.07-1.38-.11-2.08-.11Z"/><path class="cls-18" d="m687.25,149.37c0-9.04,7.35-16.39,16.39-16.39s16.39,7.35,16.39,16.39-7.35,16.39-16.39,16.39-16.39-7.35-16.39-16.39Zm1.98,0c0,7.95,6.47,14.41,14.41,14.41s14.41-6.47,14.41-14.41-6.47-14.41-14.41-14.41-14.41,6.47-14.41,14.41Z"/><path class="cls-18" d="m719.16,96.39l.43-3.89c1.05.12,2.11.17,3.16.17h.03l-.03,3.91c-1.2,0-2.41-.07-3.59-.2Zm6.81-3.9c1.06-.12,2.12-.3,3.15-.53l.87,3.81c-1.17.27-2.38.47-3.58.61l-.44-3.89Zm-13.89,2.29l1.29-3.7c1,.35,2.03.64,3.07.88l-.86,3.82c-1.18-.27-2.35-.6-3.49-1Zm20.1-3.71c1-.35,1.99-.76,2.95-1.23l1.7,3.52c-1.09.53-2.22,1-3.36,1.39l-1.29-3.69Zm-26.65.57l2.08-3.31c.9.56,1.84,1.08,2.8,1.54l-1.7,3.53c-1.09-.52-2.16-1.11-3.18-1.76Zm32.39-3.34c.9-.57,1.77-1.19,2.6-1.85l2.44,3.06c-.94.75-1.94,1.46-2.96,2.1l-2.09-3.31Zm-38.06-1.18l2.76-2.77c.75.75,1.56,1.47,2.39,2.13l-2.44,3.06c-.94-.75-1.85-1.57-2.71-2.42Zm43.04-2.81c.75-.75,1.47-1.56,2.13-2.38l3.06,2.44c-.75.94-1.56,1.85-2.42,2.71l-2.77-2.77Zm-47.57-2.85l3.31-2.09c.57.9,1.19,1.77,1.85,2.6l-3.05,2.45c-.75-.94-1.46-1.94-2.11-2.96Zm51.55-2.13c.57-.9,1.09-1.84,1.55-2.79l3.52,1.7c-.52,1.09-1.12,2.16-1.76,3.18l-3.31-2.09Zm-54.72-4.39l3.69-1.3c.35,1,.77,1.99,1.23,2.95l-3.52,1.71c-.53-1.09-1-2.22-1.4-3.35Zm57.49-1.35c.35-1,.65-2.03.88-3.07l3.82.87c-.27,1.18-.61,2.36-1,3.49l-3.69-1.29Zm-59.11-5.72l3.89-.44c.12,1.06.3,2.12.54,3.15l-3.81.87c-.27-1.17-.47-2.38-.61-3.58Zm60.52-.5c.12-1.05.18-2.12.18-3.17v-.14s3.91.12,3.91.12c0,1.21-.07,2.43-.2,3.62l-3.89-.43Zm-60.73-3.19c0-1.19.06-2.39.19-3.56l3.89.42c-.11,1.03-.17,2.09-.17,3.14v.06l-3.91-.06Zm60.17-6.45l3.81-.88c.27,1.18.48,2.38.62,3.58l-3.89.45c-.12-1.05-.3-2.11-.54-3.15Zm-59.38-.69c.27-1.18.6-2.35,1-3.5l3.7,1.28c-.35,1-.64,2.04-.88,3.07l-3.82-.86Zm57.25-5.31l3.52-1.71c.53,1.09,1,2.21,1.4,3.35l-3.69,1.31c-.35-1-.77-1.99-1.23-2.94Zm-54.87-1.54c.52-1.09,1.11-2.16,1.75-3.18l3.32,2.08c-.56.9-1.08,1.84-1.54,2.8l-3.53-1.69Zm51.46-3.84l3.05-2.45c.76.94,1.47,1.93,2.11,2.95l-3.3,2.1c-.57-.9-1.19-1.77-1.86-2.6Zm-47.6-2.31c.75-.94,1.56-1.86,2.41-2.71l2.77,2.76c-.75.75-1.46,1.56-2.12,2.39l-3.06-2.43Zm43.08-2.19l2.43-3.07c.95.75,1.86,1.56,2.72,2.41l-2.76,2.78c-.75-.75-1.56-1.46-2.39-2.12Zm-37.96-2.95c.94-.76,1.93-1.47,2.95-2.11l2.09,3.31c-.9.57-1.77,1.19-2.6,1.86l-2.45-3.05Zm32.55-.43l1.69-3.53c1.09.52,2.16,1.11,3.18,1.75l-2.07,3.32c-.9-.56-1.84-1.08-2.8-1.54Zm-26.43-3.45c1.09-.53,2.21-1,3.35-1.4l1.3,3.69c-1,.35-1.99.77-2.95,1.23l-1.71-3.52Zm20.4,1.36l.85-3.82c1.18.26,2.35.6,3.5.99l-1.28,3.7c-1-.35-2.04-.64-3.07-.87Zm-13.56-3.78c1.18-.27,2.38-.48,3.58-.62l.44,3.89c-1.06.12-2.11.3-3.15.54l-.88-3.81Zm7.3,3.09h-.09l.09-3.91c1.18,0,2.37.06,3.53.19l-.42,3.89c-1.02-.11-2.07-.17-3.11-.17Z"/><path class="cls-18" d="m630.98,27.66l.18-1.66c.45.05.9.07,1.35.07h.01v1.67c-.53,0-1.04-.03-1.55-.08Zm2.92-1.67c.45-.05.9-.13,1.35-.23l.37,1.63c-.5.12-1.02.2-1.53.26l-.19-1.66Zm-5.94.98l.55-1.58c.43.15.87.28,1.31.38l-.37,1.63c-.5-.11-1.01-.26-1.5-.43Zm8.6-1.59c.43-.15.85-.33,1.26-.52l.73,1.51c-.46.22-.95.43-1.44.6l-.56-1.58Zm-11.4.24l.89-1.42c.38.24.79.46,1.2.66l-.73,1.51c-.47-.22-.92-.48-1.36-.75Zm13.86-1.43c.38-.24.76-.51,1.11-.79l1.05,1.31c-.4.32-.83.63-1.27.9l-.89-1.42Zm-16.29-.5l1.18-1.19c.32.32.67.63,1.02.91l-1.04,1.31c-.4-.32-.79-.67-1.16-1.03Zm18.42-1.2c.32-.32.63-.66.91-1.02l1.31,1.04c-.32.4-.67.79-1.04,1.16l-1.18-1.18Zm-20.36-1.22l1.42-.89c.24.38.51.76.79,1.11l-1.31,1.05c-.32-.4-.63-.83-.9-1.27Zm22.06-.91c.24-.38.46-.78.66-1.2l1.51.73c-.23.47-.48.93-.75,1.36l-1.42-.89Zm-23.42-1.88l1.58-.56c.15.43.33.85.53,1.26l-1.51.73c-.23-.47-.43-.95-.6-1.44Zm24.6-.58c.15-.43.28-.87.38-1.31l1.63.37c-.11.5-.26,1.01-.43,1.5l-1.58-.55Zm-25.3-2.45l1.66-.19c.05.45.13.9.23,1.35l-1.63.37c-.12-.5-.2-1.02-.26-1.53Zm25.9-.21c.05-.45.08-.91.08-1.37v-.05l1.67.05c0,.52-.03,1.04-.09,1.55l-1.66-.19Zm-25.99-1.37c0-.51.03-1.02.08-1.52l1.66.18c-.05.44-.07.89-.07,1.34v.03l-1.67-.03Zm25.75-2.76l1.63-.38c.12.5.21,1.02.26,1.53l-1.66.19c-.05-.45-.13-.9-.23-1.35Zm-25.41-.3c.11-.5.26-1.01.43-1.5l1.58.55c-.15.43-.28.87-.37,1.32l-1.63-.37Zm24.5-2.27l1.51-.73c.23.47.43.95.6,1.44l-1.58.56c-.15-.43-.33-.85-.53-1.26Zm-23.48-.66c.22-.47.48-.93.75-1.36l1.42.89c-.24.38-.46.79-.66,1.2l-1.51-.72Zm22.02-1.64l1.3-1.05c.33.41.63.83.9,1.26l-1.41.9c-.24-.38-.51-.75-.79-1.11Zm-20.37-.99c.32-.41.67-.8,1.03-1.16l1.19,1.18c-.32.32-.63.66-.91,1.02l-1.31-1.04Zm18.44-.94l1.04-1.31c.4.32.79.67,1.16,1.03l-1.18,1.19c-.32-.32-.67-.63-1.02-.91Zm-16.25-1.26c.4-.32.83-.63,1.26-.9l.9,1.42c-.38.24-.76.51-1.11.79l-1.05-1.31Zm13.93-.18l.72-1.51c.46.22.92.47,1.36.75l-.89,1.42c-.39-.24-.79-.46-1.2-.66Zm-11.31-1.48c.47-.23.95-.43,1.44-.6l.56,1.58c-.43.15-.85.33-1.26.53l-.73-1.51Zm8.73.58l.37-1.63c.5.11,1.01.26,1.5.42l-.55,1.58c-.43-.15-.87-.27-1.32-.37Zm-5.8-1.62c.5-.12,1.02-.2,1.53-.26l.19,1.66c-.45.05-.9.13-1.35.23l-.38-1.63Zm3.15,1.32h-.07s.04-1.67.04-1.67c.5,0,1.01.03,1.51.08l-.18,1.67c-.44-.05-.89-.07-1.3-.07Z"/></g></g></g></svg>