<?xml version="1.0" encoding="UTF-8"?><svg id="Layer_2" xmlns="http://www.w3.org/2000/svg" viewBox="0 0 1892 1174"><defs><style>.cls-1{fill:#253a58;}.cls-2,.cls-3{fill:#fff;}.cls-4{fill:#83ccdd;}.cls-5{fill:#f7ffff;}.cls-6{fill:#badee0;}.cls-7{fill:#3f5f8a;}.cls-3{opacity:.2;}.cls-8{fill:#111e6c;}.cls-9{fill:#f2f2f2;}</style></defs><g id="Artwork"><rect class="cls-1" x="651" width="590" height="1070" rx="30" ry="30"/><path class="cls-4" d="m1875,1104H121c-9.39,0-17-7.61-17-17h0c0-9.39,7.61-17,17-17h1754c9.39,0,17,7.61,17,17h0c0,9.39-7.61,17-17,17Z"/><path class="cls-4" d="m1615,1173H351c-9.39,0-17-7.61-17-17h0c0-9.39,7.61-17,17-17h1264c9.39,0,17,7.61,17,17h0c0,9.39-7.61,17-17,17Z"/><path class="cls-4" d="m1452,1121h0c0-9.39,7.61-17,17-17h-940c9.39,0,17,7.61,17,17s-7.61,17-17,17h940c-9.39,0-17-7.61-17-17Z"/><path class="cls-4" d="m62,1104H17c-9.35,0-17-7.65-17-17h0c0-9.35,7.65-17,17-17h45c9.35,0,17,7.65,17,17h0c0,9.35-7.65,17-17,17Z"/><path class="cls-4" d="m292,1174h-45c-9.35,0-17-7.65-17-17h0c0-9.35,7.65-17,17-17h45c9.35,0,17,7.65,17,17h0c0,9.35-7.65,17-17,17Z"/><path class="cls-4" d="m1732,1174h-45c-9.35,0-17-7.65-17-17h0c0-9.35,7.65-17,17-17h45c9.35,0,17,7.65,17,17h0c0,9.35-7.65,17-17,17Z"/><rect class="cls-6" x="665" y="109" width="560" height="843" rx="20" ry="20"/><path class="cls-8" d="m1241,170h5c3.86,0,7,3.14,7,7v37c0,3.86-3.14,7-7,7h-5v-51h0Z"/><path class="cls-8" d="m1241,240h5c3.86,0,7,3.14,7,7v37c0,3.86-3.14,7-7,7h-5v-51h0Z"/><path class="cls-3" d="m1205,109h-259v843h259c11.05,0,20-8.95,20-20V129c0-11.05-8.95-20-20-20Z"/><rect class="cls-2" x="1398" y="422" width="330" height="530" rx="165" ry="165"/><path class="cls-6" d="m1563,422h0c-10.25,0-20.27.94-30,2.73,76.8,14.11,135,81.39,135,162.27v200c0,80.88-58.2,148.16-135,162.27,9.73,1.79,19.75,2.73,30,2.73h0c91.13,0,165-73.87,165-165v-200c0-91.13-73.87-165-165-165Z"/><rect class="cls-1" x="1445" y="531" width="236" height="176" rx="60" ry="60"/><path class="cls-7" d="m1650.16,634v-53.55c0-14.61-11.84-26.45-26.45-26.45h-121.42c-14.61,0-26.45,11.84-26.45,26.45v53.55h174.32Z"/><circle class="cls-2" cx="1511" cy="621" r="20"/><circle class="cls-2" cx="1611" cy="621" r="20"/><polygon class="cls-2" points="1461.43 917.04 1418 987 1491 1070 1525.97 1070 1452 986 1503 932 1461.43 917.04"/><polygon class="cls-2" points="1547 1070 1440 1070 1465 1042 1501 1042 1547 1070"/><polygon class="cls-6" points="1709 1070 1602 1070 1638 1042 1651 1042 1709 1070"/><polygon class="cls-6" points="1610 933 1638 1042 1650 1042 1681 884 1610 933"/><polygon class="cls-2" points="1241 530.71 1274 580 1274 619 1398 702.06 1398 764.77 1241 607.74 1258 616 1241 588.52 1241 530.71"/><polygon class="cls-6" points="1721 634.74 1840 753 1721 873 1726 929 1712 922 1702 890.93 1693 860 1792 754 1721 714 1721 634.74"/><path class="cls-2" d="m1402.74,274h-429.47c-8.72,0-15.79,7.07-15.79,15.79v168.95c0,8.72,7.07,15.79,15.79,15.79h320.59l44.93,69.47-10.86-69.47h74.8c8.72,0,15.79-7.07,15.79-15.79v-168.95c0-8.72-7.07-15.79-15.79-15.79Z"/><rect class="cls-4" x="1029.32" y="332.42" width="305.53" height="11.05"/><rect class="cls-4" x="1029.32" y="364" width="305.53" height="11.05"/><rect class="cls-4" x="1029.32" y="395.58" width="305.53" height="11.05"/><path class="cls-2" d="m520.26,533h429.47c8.72,0,15.79,7.07,15.79,15.79v168.95c0,8.72-7.07,15.79-15.79,15.79h-320.59l-44.93,69.47,10.86-69.47h-74.8c-8.72,0-15.79-7.07-15.79-15.79v-168.95c0-8.72,7.07-15.79,15.79-15.79Z"/><rect class="cls-4" x="588.16" y="591.42" width="305.53" height="11.05" transform="translate(1481.84 1193.89) rotate(180)"/><rect class="cls-4" x="588.16" y="623" width="305.53" height="11.05" transform="translate(1481.84 1257.05) rotate(180)"/><rect class="cls-4" x="588.16" y="654.58" width="305.53" height="11.05" transform="translate(1481.84 1320.21) rotate(180)"/><circle class="cls-4" cx="806" cy="375" r="92"/><circle class="cls-2" cx="806" cy="354" r="30"/><path class="cls-2" d="m806,467c27.85,0,52.81-12.38,69.68-31.93-15.09-22.37-40.67-37.07-69.68-37.07s-54.59,14.71-69.68,37.07c16.87,19.55,41.83,31.93,69.68,31.93Z"/><path class="cls-9" d="m543.44,295.89h-6.4c2.44-8.99,3.76-18.43,3.76-28.19,0-59.36-48.12-107.49-107.49-107.49-50.84,0-93.41,35.31-104.59,82.74-4.31-1.09-8.82-1.68-13.47-1.68-30.17,0-54.63,24.46-54.63,54.63,0,.17.01.34.01.52-30.81,3.89-54.64,30.17-54.64,62.04h0c0,34.55,28.01,62.56,62.56,62.56h274.89c34.55,0,62.56-28.01,62.56-62.56h0c0-34.55-28.01-62.56-62.56-62.56Z"/><path class="cls-5" d="m543.44,295.89h-6.4c2.44-8.99,3.76-18.43,3.76-28.19,0-59.36-48.12-107.49-107.49-107.49-2.8,0-5.57.13-8.31.34v260.46h118.44c34.55,0,62.56-28.01,62.56-62.56h0c0-34.55-28.01-62.56-62.56-62.56Z"/></g></svg>