<?xml version="1.0" encoding="UTF-8"?><svg xmlns="http://www.w3.org/2000/svg" xmlns:xlink="http://www.w3.org/1999/xlink" viewBox="0 0 378.32 442.12"><defs><style>.cls-1,.cls-2,.cls-3,.cls-4,.cls-5,.cls-6{opacity:.3;}.cls-1,.cls-7,.cls-8,.cls-9,.cls-10,.cls-11{fill:#2580d3;}.cls-12{opacity:.8;}.cls-12,.cls-13,.cls-14,.cls-15,.cls-16,.cls-17{fill:#48d8f5;}.cls-18{fill:url(#linear-gradient-2);}.cls-19{fill:url(#radial-gradient-7);}.cls-20{fill:url(#linear-gradient-4);}.cls-20,.cls-2,.cls-21,.cls-22,.cls-23,.cls-24,.cls-25,.cls-26,.cls-27{mix-blend-mode:screen;}.cls-20,.cls-21,.cls-28,.cls-9{opacity:.5;}.cls-29{fill:url(#linear-gradient-11);}.cls-29,.cls-30,.cls-31,.cls-32,.cls-33,.cls-3,.cls-4,.cls-34,.cls-35,.cls-36,.cls-37,.cls-38{mix-blend-mode:color-dodge;}.cls-29,.cls-30,.cls-22,.cls-23,.cls-36,.cls-10,.cls-37{opacity:.7;}.cls-39,.cls-40,.cls-5{fill:#51ffff;}.cls-39,.cls-7,.cls-15{opacity:.2;}.cls-2{fill:url(#linear-gradient-3);}.cls-40{opacity:.55;}.cls-30{fill:url(#linear-gradient-10);}.cls-13{opacity:.6;}.cls-31{fill:url(#linear-gradient-15);}.cls-32,.cls-4,.cls-41{fill:#1ed6fe;}.cls-42{fill:url(#radial-gradient-5);}.cls-43{fill:url(#radial-gradient-4);}.cls-44{fill:#fff;}.cls-44,.cls-14,.cls-41{opacity:.1;}.cls-33{fill:url(#linear-gradient-13);}.cls-3,.cls-38{fill:#07b3fa;}.cls-21{fill:url(#linear-gradient-5);}.cls-45{fill:url(#radial-gradient-6);}.cls-34{fill:url(#_2);}.cls-46{fill:url(#radial-gradient);}.cls-35{fill:url(#linear-gradient-12);}.cls-22{fill:url(#linear-gradient-7);}.cls-47{fill:#034aa2;}.cls-48{fill:#5da5fd;}.cls-23{fill:url(#linear-gradient-6);}.cls-36{fill:url(#linear-gradient-8);}.cls-49{isolation:isolate;}.cls-49,.cls-28{fill:none;}.cls-24{fill:url(#linear-gradient-17);}.cls-24,.cls-25,.cls-26,.cls-27{opacity:.14;}.cls-16{opacity:.4;}.cls-25{fill:url(#_2-2);}.cls-50{fill:url(#radial-gradient-2);}.cls-51{fill:url(#radial-gradient-3);}.cls-6,.cls-52{fill:#0a208f;}.cls-6,.cls-11,.cls-53{mix-blend-mode:multiply;}.cls-26{fill:url(#_2-3);}.cls-54{fill:url(#linear-gradient);}.cls-53{fill:url(#linear-gradient-14);}.cls-37{fill:url(#linear-gradient-9);}.cls-27{fill:url(#linear-gradient-16);}</style><radialGradient id="radial-gradient" cx="188.5" cy="280.66" fx="188.5" fy="280.66" r="158.7" gradientUnits="userSpaceOnUse"><stop offset="0" stop-color="#328de0"/><stop offset="1" stop-color="#172d9c"/></radialGradient><linearGradient id="linear-gradient" x1="319.77" y1="228.39" x2="42.43" y2="675.44" gradientUnits="userSpaceOnUse"><stop offset="0" stop-color="#328de0"/><stop offset="1" stop-color="#172d9c"/></linearGradient><linearGradient id="linear-gradient-2" x1="323.29" y1="223.32" x2="80.27" y2="641.06" gradientUnits="userSpaceOnUse"><stop offset="0" stop-color="#004ea1"/><stop offset="1" stop-color="#00005d"/></linearGradient><linearGradient id="linear-gradient-3" x1="197.99" y1="-.48" x2="197.99" y2="365.63" gradientUnits="userSpaceOnUse"><stop offset="0" stop-color="#000"/><stop offset="1" stop-color="#48d8f5"/></linearGradient><linearGradient id="linear-gradient-4" x1="138.97" y1="192.22" x2="138.97" y2="75.27" xlink:href="#linear-gradient-3"/><linearGradient id="linear-gradient-5" x1="263.01" y1="247.33" x2="263.01" y2="75.83" xlink:href="#linear-gradient-3"/><linearGradient id="linear-gradient-6" x1="243.86" y1="272.67" x2="243.86" y2="125.45" xlink:href="#linear-gradient-3"/><linearGradient id="linear-gradient-7" x1="126.34" y1="148.53" x2="126.34" y2="1.31" xlink:href="#linear-gradient-3"/><linearGradient id="linear-gradient-8" x1="233.03" y1="144.51" x2="233.03" y2="-3.64" xlink:href="#linear-gradient-3"/><linearGradient id="linear-gradient-9" x1="248.4" y1="98.54" x2="248.4" y2="17.93" xlink:href="#linear-gradient-3"/><linearGradient id="linear-gradient-10" y1="247.58" x2="197.99" y2="166.97" xlink:href="#linear-gradient-3"/><linearGradient id="linear-gradient-11" x1="149.78" y1="295.74" x2="149.78" y2="147.59" xlink:href="#linear-gradient-3"/><radialGradient id="radial-gradient-2" cx="166.45" cy="196.21" fx="166.45" fy="196.21" r="21.67" gradientUnits="userSpaceOnUse"><stop offset="0" stop-color="#5abeff"/><stop offset="1" stop-color="#243aa9"/></radialGradient><linearGradient id="linear-gradient-12" x1="162.09" y1="218.07" x2="170.63" y2="196.21" gradientUnits="userSpaceOnUse"><stop offset="0" stop-color="#fff"/><stop offset=".1" stop-color="#cfcfcf"/><stop offset=".23" stop-color="#999"/><stop offset=".37" stop-color="#6a6a6a"/><stop offset=".5" stop-color="#444"/><stop offset=".63" stop-color="#262626"/><stop offset=".76" stop-color="#111"/><stop offset=".88" stop-color="#040404"/><stop offset="1" stop-color="#000"/></linearGradient><radialGradient id="radial-gradient-3" cx="199.42" cy="213.18" fx="199.42" fy="213.18" r="63.09" xlink:href="#radial-gradient-2"/><linearGradient id="linear-gradient-13" x1="177.15" y1="283.22" x2="200.95" y2="214.12" gradientUnits="userSpaceOnUse"><stop offset="0" stop-color="#fff"/><stop offset=".15" stop-color="#dedede"/><stop offset=".48" stop-color="#8c8c8c"/><stop offset=".97" stop-color="#090909"/><stop offset="1" stop-color="#000"/></linearGradient><radialGradient id="radial-gradient-4" cx="190.54" cy="153.64" fx="190.54" fy="153.64" r="71.15" xlink:href="#radial-gradient-2"/><linearGradient id="_2" x1="176.23" y1="225.41" x2="199.38" y2="166.16" gradientUnits="userSpaceOnUse"><stop offset="0" stop-color="#fff"/><stop offset="1" stop-color="#000"/></linearGradient><linearGradient id="linear-gradient-14" x1="187.88" y1="188.31" x2="192.91" y2="162.28" gradientUnits="userSpaceOnUse"><stop offset="0" stop-color="#fff"/><stop offset="1" stop-color="#0a208f"/></linearGradient><radialGradient id="radial-gradient-5" cx="130.86" cy="207.25" fx="130.86" fy="207.25" r="48.05" gradientUnits="userSpaceOnUse"><stop offset="0" stop-color="#40a4ff"/><stop offset=".51" stop-color="#2767cb"/><stop offset="1" stop-color="#0a208f"/></radialGradient><radialGradient id="radial-gradient-6" cx="241.71" cy="253.91" fx="241.71" fy="253.91" r="65.33" gradientUnits="userSpaceOnUse"><stop offset="0" stop-color="#40a4ff"/><stop offset="1" stop-color="#0a208f"/></radialGradient><radialGradient id="radial-gradient-7" cx="223.42" cy="217.15" fx="223.42" fy="217.15" r="21.67" xlink:href="#radial-gradient-2"/><linearGradient id="linear-gradient-15" x1="219.06" y1="239.01" x2="227.6" y2="217.15" xlink:href="#linear-gradient-12"/><linearGradient id="linear-gradient-16" x1="192.23" y1="315.4" x2="192.23" y2="117.45" gradientUnits="userSpaceOnUse"><stop offset="0" stop-color="#1ed6fe"/><stop offset="1" stop-color="#000"/></linearGradient><linearGradient id="_2-2" x1="192.23" y1="313.43" x2="192.23" y2="126.57" xlink:href="#_2"/><linearGradient id="linear-gradient-17" x1="192.23" y1="219.83" x2="192.23" y2="51.37" xlink:href="#linear-gradient-16"/><linearGradient id="_2-3" x1="192.23" y1="218.15" x2="192.23" y2="59.13" xlink:href="#_2"/></defs><g class="cls-49"><g id="Layer_2"><g id="Layer_1-2"><path class="cls-17" d="m234.89,398.54c-2.01,1.16-3.64.22-3.64-2.11,0-2.33,1.63-5.15,3.65-6.31,2.01-1.16,3.64-.22,3.64,2.11,0,2.32-1.64,5.15-3.65,6.31Z"/><path class="cls-12" d="m249.91,389.88c-2.01,1.16-3.64.22-3.64-2.11,0-2.33,1.63-5.15,3.65-6.31,2.01-1.16,3.64-.22,3.64,2.11,0,2.32-1.64,5.15-3.65,6.31Z"/><path class="cls-13" d="m264.94,381.22c-2.02,1.16-3.64.22-3.64-2.11,0-2.32,1.63-5.15,3.65-6.31,2.01-1.16,3.64-.22,3.64,2.11,0,2.32-1.64,5.15-3.65,6.31Z"/><path class="cls-16" d="m279.96,372.56c-2.01,1.16-3.64.22-3.64-2.11,0-2.32,1.63-5.15,3.65-6.31,2.01-1.16,3.64-.22,3.64,2.11,0,2.32-1.64,5.15-3.65,6.31Z"/><path class="cls-15" d="m294.98,363.9c-2.01,1.16-3.64.22-3.64-2.11,0-2.32,1.63-5.15,3.65-6.31,2.01-1.16,3.65-.22,3.64,2.11,0,2.32-1.64,5.15-3.65,6.31Z"/><path class="cls-14" d="m310,355.24c-2.01,1.16-3.64.22-3.64-2.11,0-2.32,1.63-5.15,3.65-6.31,2.01-1.16,3.64-.22,3.64,2.11,0,2.32-1.64,5.15-3.65,6.31Z"/><path class="cls-14" d="m325.03,346.58c-2.01,1.16-3.64.22-3.64-2.11,0-2.32,1.64-5.15,3.65-6.31,2.01-1.16,3.64-.22,3.64,2.11,0,2.32-1.63,5.15-3.65,6.31Z"/><path class="cls-11" d="m244.4,227.14c6.56-3.79,17.29-3.79,23.84,0l105.16,60.72c6.55,3.79,6.55,9.98,0,13.77l-237.76,137.65c-6.56,3.79-17.29,3.79-23.84,0L6.65,378.57c-6.56-3.79-6.56-9.98,0-13.77l237.75-137.66Z"/><path class="cls-48" d="m244.4,187.93c6.56-3.79,17.29-3.79,23.84,0l105.16,60.72c6.55,3.79,6.55,9.98,0,13.77l-237.76,137.65c-6.56,3.79-17.29,3.79-23.84,0L6.65,339.36c-6.56-3.79-6.56-9.98,0-13.77l237.75-137.66Z"/><path class="cls-47" d="m6.65,339.36l105.16,60.71c6.56,3.79,17.29,3.79,23.84,0l237.76-137.65c3.19-1.84,4.81-4.25,4.9-6.67h.02v16.31c0,2.5-1.64,4.99-4.92,6.89l-237.76,137.66c-6.56,3.79-17.29,3.78-23.84,0L6.65,355.88c-3.28-1.89-4.92-4.38-4.92-6.88v-16.52h0c0,2.49,1.64,4.98,4.92,6.87Z"/><polygon class="cls-46" points="16.97 319.61 145.97 394.09 372.36 263.02 243.36 188.54 16.97 319.61"/><polygon class="cls-54" points="143.7 392.78 145.97 394.09 372.36 263.02 370.09 261.71 143.7 392.78"/><polygon class="cls-18" points="145.97 404.07 372.36 273 372.36 263.02 145.97 394.09 145.97 404.07"/><path class="cls-5" d="m275.89,144.36v38.93c-31.22-17.34-74.97-22.74-114-16.2v-38.93c39.02-6.53,82.78-1.13,114,16.2Z"/><polygon class="cls-52" points="74.72 391.43 44.28 373.85 44.28 366.38 74.72 383.95 74.72 391.43"/><path class="cls-2" d="m115.13,286.35c.43,11.92,8.49,23.75,24.24,32.85,32.38,18.69,84.87,18.69,117.25,0,15.75-9.09,23.81-20.93,24.24-32.85l.04-286.35H115.08l.04,286.35Z"/><path class="cls-41" d="m256.61,251.5c32.38,18.69,32.38,49,0,67.69-32.38,18.69-84.87,18.69-117.25,0-32.37-18.69-32.37-49,0-67.69,32.38-18.69,84.87-18.69,117.25,0Z"/><path class="cls-5" d="m243.97,258.8c25.39,14.66,25.39,38.43,0,53.09-25.4,14.66-66.57,14.66-91.96,0-25.4-14.66-25.4-38.43,0-53.09,25.4-14.66,66.57-14.66,91.96,0Z"/><path class="cls-20" d="m138.97,82.36c-1.69,0-3.06,1.37-3.06,3.06v107.12h6.12v-107.12c0-1.69-1.37-3.06-3.06-3.06Z"/><path class="cls-21" d="m263.01,86.22c-2.48,0-4.49,2.01-4.49,4.49v157.09h8.97V90.71c0-2.48-2.01-4.49-4.49-4.49Z"/><path class="cls-23" d="m243.86,134.37c-1.3,0-2.35,1.05-2.35,2.35v136.35h4.71v-136.35c0-1.3-1.05-2.35-2.35-2.35Z"/><path class="cls-22" d="m126.34,10.23c-1.3,0-2.35,1.05-2.35,2.35v136.35h4.7V12.58c0-1.3-1.05-2.35-2.35-2.35Z"/><path class="cls-36" d="m233.03,5.34c-.68,0-1.23.55-1.23,1.23v138.35h2.46V6.57c0-.68-.55-1.23-1.23-1.23Z"/><path class="cls-37" d="m248.4,22.81c-.37,0-.67.3-.67.67v75.28h1.34V23.48c0-.37-.3-.67-.67-.67Z"/><path class="cls-30" d="m197.99,171.85c-.37,0-.67.3-.67.67v75.28h1.34v-75.28c0-.37-.3-.67-.67-.67Z"/><path class="cls-29" d="m149.78,156.57c-.68,0-1.23.55-1.23,1.23v138.35h2.46v-138.35c0-.68-.55-1.23-1.23-1.23Z"/><path class="cls-4" d="m250.64,118.35c0,2.16-1.75,3.91-3.91,3.91s-3.9-1.75-3.9-3.91,1.75-3.9,3.9-3.9,3.91,1.75,3.91,3.9Z"/><path class="cls-4" d="m249.24,118.35c0,1.38-1.12,2.5-2.5,2.5s-2.5-1.12-2.5-2.5,1.12-2.5,2.5-2.5,2.5,1.12,2.5,2.5Z"/><path class="cls-32" d="m248.4,118.35c0,.92-.74,1.67-1.66,1.67s-1.67-.75-1.67-1.67.75-1.67,1.67-1.67,1.66.75,1.66,1.67Z"/><path class="cls-4" d="m158.82,90.13c0,2.16-1.75,3.91-3.91,3.91s-3.9-1.75-3.9-3.91,1.75-3.91,3.9-3.91,3.91,1.75,3.91,3.91Z"/><path class="cls-4" d="m157.42,90.13c0,1.38-1.12,2.5-2.5,2.5s-2.5-1.12-2.5-2.5,1.12-2.5,2.5-2.5,2.5,1.12,2.5,2.5Z"/><path class="cls-32" d="m156.58,90.13c0,.92-.74,1.67-1.66,1.67s-1.67-.75-1.67-1.67.75-1.67,1.67-1.67,1.66.75,1.66,1.67Z"/><path class="cls-4" d="m258.99,13.13c0,.99-.8,1.79-1.79,1.79s-1.79-.8-1.79-1.79.8-1.79,1.79-1.79,1.79.8,1.79,1.79Z"/><path class="cls-4" d="m258.34,13.13c0,.63-.51,1.15-1.15,1.15s-1.15-.51-1.15-1.15.51-1.15,1.15-1.15,1.15.51,1.15,1.15Z"/><path class="cls-32" d="m257.96,13.13c0,.42-.34.76-.76.76s-.76-.34-.76-.76.34-.76.76-.76.76.34.76.76Z"/><path class="cls-4" d="m182.99,76.92c0,.99-.8,1.79-1.79,1.79s-1.79-.8-1.79-1.79.8-1.79,1.79-1.79,1.79.8,1.79,1.79Z"/><path class="cls-4" d="m182.35,76.92c0,.63-.51,1.15-1.15,1.15s-1.15-.51-1.15-1.15.51-1.15,1.15-1.15,1.15.51,1.15,1.15Z"/><path class="cls-32" d="m181.96,76.92c0,.42-.34.76-.76.76s-.76-.34-.76-.76.34-.76.76-.76.76.34.76.76Z"/><path class="cls-4" d="m217.68,42.79c0,.99-.8,1.79-1.79,1.79s-1.79-.8-1.79-1.79.8-1.79,1.79-1.79,1.79.8,1.79,1.79Z"/><path class="cls-4" d="m217.03,42.79c0,.63-.51,1.15-1.15,1.15s-1.15-.51-1.15-1.15.51-1.15,1.15-1.15,1.15.51,1.15,1.15Z"/><path class="cls-32" d="m216.65,42.79c0,.42-.34.76-.76.76s-.76-.34-.76-.76.34-.76.76-.76.76.34.76.76Z"/><path class="cls-4" d="m132.6,230.26c0,2.16-1.75,3.91-3.91,3.91s-3.9-1.75-3.9-3.91,1.75-3.9,3.9-3.9,3.91,1.75,3.91,3.9Z"/><path class="cls-4" d="m131.19,230.26c0,1.38-1.12,2.5-2.5,2.5s-2.5-1.12-2.5-2.5,1.12-2.5,2.5-2.5,2.5,1.12,2.5,2.5Z"/><path class="cls-32" d="m130.36,230.26c0,.92-.75,1.67-1.67,1.67s-1.66-.75-1.66-1.67.75-1.67,1.66-1.67,1.67.75,1.67,1.67Z"/><path class="cls-4" d="m143.2,19.51c0,1.13-.91,2.04-2.04,2.04s-2.04-.91-2.04-2.04.91-2.04,2.04-2.04,2.04.91,2.04,2.04Z"/><path class="cls-4" d="m142.47,19.51c0,.72-.59,1.31-1.31,1.31s-1.3-.58-1.3-1.31.58-1.31,1.3-1.31,1.31.58,1.31,1.31Z"/><path class="cls-32" d="m142.03,19.51c0,.48-.39.87-.87.87s-.87-.39-.87-.87.39-.87.87-.87.87.39.87.87Z"/><path class="cls-4" d="m254.72,232.76c0,1.13-.91,2.04-2.04,2.04s-2.04-.91-2.04-2.04.91-2.04,2.04-2.04,2.04.91,2.04,2.04Z"/><path class="cls-4" d="m253.98,232.76c0,.72-.59,1.31-1.31,1.31s-1.31-.59-1.31-1.31.58-1.31,1.31-1.31,1.31.58,1.31,1.31Z"/><path class="cls-32" d="m253.55,232.76c0,.48-.39.87-.87.87s-.87-.39-.87-.87.39-.87.87-.87.87.39.87.87Z"/><path class="cls-4" d="m275.9,220.88c0,1.13-.91,2.04-2.04,2.04s-2.04-.91-2.04-2.04.91-2.04,2.04-2.04,2.04.91,2.04,2.04Z"/><path class="cls-4" d="m275.17,220.88c0,.72-.58,1.31-1.31,1.31s-1.3-.58-1.3-1.31.58-1.31,1.3-1.31,1.31.58,1.31,1.31Z"/><path class="cls-32" d="m274.73,220.88c0,.48-.39.87-.87.87s-.87-.39-.87-.87.39-.87.87-.87.87.39.87.87Z"/><path class="cls-4" d="m200.83,273.08c0,1.13-.91,2.04-2.04,2.04s-2.04-.91-2.04-2.04.91-2.04,2.04-2.04,2.04.91,2.04,2.04Z"/><path class="cls-4" d="m200.1,273.08c0,.72-.58,1.31-1.3,1.31s-1.31-.58-1.31-1.31.58-1.3,1.31-1.3,1.3.58,1.3,1.3Z"/><path class="cls-32" d="m199.66,273.08c0,.48-.39.87-.87.87s-.87-.39-.87-.87.39-.87.87-.87.87.39.87.87Z"/><path class="cls-4" d="m226.56,166.53c0,1.13-.91,2.04-2.04,2.04s-2.04-.91-2.04-2.04.91-2.04,2.04-2.04,2.04.91,2.04,2.04Z"/><path class="cls-4" d="m225.83,166.53c0,.72-.58,1.31-1.31,1.31s-1.31-.58-1.31-1.31.58-1.31,1.31-1.31,1.31.58,1.31,1.31Z"/><path class="cls-32" d="m225.39,166.53c0,.48-.39.87-.87.87s-.87-.39-.87-.87.39-.87.87-.87.87.39.87.87Z"/><rect class="cls-52" x="131.14" y="203.58" width="32.85" height="5.45" transform="translate(-55.82 54.74) rotate(-17.73)"/><path class="cls-50" d="m179.41,199.97c0,5.66-4.59,10.25-10.25,10.25s-10.25-4.59-10.25-10.25,4.59-10.25,10.25-10.25,10.25,4.59,10.25,10.25Z"/><path class="cls-35" d="m179.41,199.97c0,5.66-4.59,10.25-10.25,10.25s-10.25-4.59-10.25-10.25,4.59-10.25,10.25-10.25,10.25,4.59,10.25,10.25Z"/><path class="cls-51" d="m197.94,270.5s4.1-.1,8.11-2.17c4.01-2.07,9.05-8.68,13.05-14.99,11.23-17.72,11.93-33.44,7.97-44.04-3.96-10.59-14.8-16.37-29.14-16.37s-25.18,5.78-29.14,16.37c-3.96,10.59-3.26,26.32,7.97,44.04,4,6.31,9.04,12.92,13.05,14.99,4.01,2.07,8.11,2.17,8.11,2.17Z"/><path class="cls-33" d="m197.94,270.5s4.1-.1,8.11-2.17c4.01-2.07,9.05-8.68,13.05-14.99,11.23-17.72,11.93-33.44,7.97-44.04-3.96-10.59-14.8-16.37-29.14-16.37s-25.18,5.78-29.14,16.37c-3.96,10.59-3.26,26.32,7.97,44.04,4,6.31,9.04,12.92,13.05,14.99,4.01,2.07,8.11,2.17,8.11,2.17Z"/><path class="cls-6" d="m222.73,202.14c-5.4-6-14.13-9.2-24.79-9.2-9.72,0-17.82,2.66-23.27,7.67,6.15,6.7,14.97,10.89,24.78,10.89,9.04,0,17.24-3.57,23.28-9.37Z"/><path class="cls-43" d="m233.1,165.97c0,18.58-15.07,33.65-33.65,33.65s-33.65-15.07-33.65-33.65,15.07-33.65,33.65-33.65,33.65,15.07,33.65,33.65Z"/><path class="cls-34" d="m233.1,165.97c0,18.58-15.07,33.65-33.65,33.65s-33.65-15.07-33.65-33.65,15.07-33.65,33.65-33.65,33.65,15.07,33.65,33.65Z"/><path class="cls-52" d="m216.62,178.74c-.61,9.44-9.26,12.18-9.26,12.18-11.3,1.08-23.31-.9-32.03-5.93-2.66-1.54-4.83-3.25-6.5-5.08-1.94-4.25-3.03-8.96-3.03-13.94,0-3.79.64-7.44,1.79-10.84,1.79,2.38,4.36,4.61,7.73,6.56,8.72,5.03,20.73,7.01,32.03,5.93,0,0,10.04-.76,9.26,11.11Z"/><path class="cls-53" d="m216.62,178.74c-.61,9.44-9.26,12.18-9.26,12.18-11.3,1.08-23.31-.9-32.03-5.93-2.66-1.54-4.83-3.25-6.5-5.08-1.94-4.25-3.03-8.96-3.03-13.94,0-3.79.64-7.44,1.79-10.84,1.79,2.38,4.36,4.61,7.73,6.56,8.72,5.03,20.73,7.01,32.03,5.93,0,0,10.04-.76,9.26,11.11Z"/><path class="cls-44" d="m175.33,161.69c-3.37-1.95-5.95-4.18-7.73-6.56-1.16,3.4-1.79,7.04-1.79,10.84,0,4.97,1.09,9.69,3.03,13.94,1.67,1.83,3.84,3.54,6.5,5.08,1.17.68,2.4,1.29,3.68,1.86.26-5.53,1.44-14,5.78-21.2-3.41-.99-6.61-2.3-9.46-3.95Z"/><path class="cls-42" d="m139.03,216.56c-4.94,2.85-24.16,9.32-29.11,6.47-4.94-2.86,6.26-13.95,11.2-16.81,4.95-2.86,12.96-2.86,17.91,0,4.94,2.85,4.95,7.48,0,10.34Z"/><path class="cls-52" d="m227.1,211.66c0,5.15-3.62,11.42-8.08,14-4.46,2.58-8.08.49-8.08-4.67s3.62-11.42,8.08-14c4.46-2.58,8.08-.49,8.08,4.67Z"/><rect class="cls-52" x="231.15" y="225.99" width="5.45" height="28.43" transform="translate(-74.54 108.77) rotate(-22.68)"/><path class="cls-45" d="m246.22,253.12c0,5.71-4.01,25.58-8.95,28.44-4.95,2.85-8.96-12.39-8.95-18.1,0-5.71,4.01-12.65,8.95-15.51,4.95-2.85,8.95-.54,8.95,5.17Z"/><path class="cls-19" d="m236.38,220.91c0,5.66-4.59,10.25-10.25,10.25s-10.25-4.59-10.25-10.25,4.59-10.25,10.25-10.25,10.25,4.59,10.25,10.25Z"/><path class="cls-31" d="m236.38,220.91c0,5.66-4.59,10.25-10.25,10.25s-10.25-4.59-10.25-10.25,4.59-10.25,10.25-10.25,10.25,4.59,10.25,10.25Z"/><path class="cls-3" d="m192.23,180.36c0,2.45-1.72,3.45-3.85,2.22-2.13-1.23-3.85-4.21-3.85-6.67,0-2.46,1.72-3.45,3.85-2.22,2.13,1.23,3.85,4.21,3.85,6.67Z"/><path class="cls-3" d="m191.37,179.87c0,1.91-1.34,2.68-2.99,1.73-1.65-.95-2.99-3.28-2.99-5.19,0-1.91,1.34-2.68,2.99-1.73,1.65.95,2.99,3.28,2.99,5.18Z"/><path class="cls-3" d="m190.98,179.64c0,1.66-1.16,2.33-2.6,1.5-1.44-.83-2.6-2.85-2.6-4.5,0-1.66,1.16-2.33,2.6-1.5,1.44.83,2.6,2.85,2.6,4.5Z"/><path class="cls-38" d="m190.59,179.42c0,1.41-.99,1.98-2.21,1.28-1.22-.71-2.21-2.42-2.21-3.83s.99-1.98,2.21-1.28c1.22.71,2.21,2.42,2.21,3.83Z"/><path class="cls-38" d="m189.99,179.07c0,1.03-.72,1.44-1.61.93-.89-.52-1.61-1.77-1.61-2.8s.72-1.45,1.61-.93c.89.51,1.61,1.76,1.61,2.8Z"/><path class="cls-38" d="m189.53,178.8c0,.73-.51,1.03-1.15.66-.64-.37-1.15-1.26-1.15-1.99s.51-1.03,1.15-.66c.64.37,1.15,1.26,1.15,1.99Z"/><path class="cls-3" d="m176.86,173.78c0,2.45-1.72,3.45-3.85,2.22-2.13-1.23-3.85-4.21-3.85-6.67,0-2.45,1.72-3.45,3.85-2.22,2.13,1.23,3.85,4.21,3.85,6.67Z"/><path class="cls-3" d="m176,173.29c0,1.91-1.34,2.68-2.99,1.73-1.65-.95-3-3.28-2.99-5.19,0-1.91,1.34-2.68,2.99-1.73,1.65.95,2.99,3.28,2.99,5.18Z"/><path class="cls-3" d="m175.61,173.06c0,1.66-1.16,2.33-2.6,1.5-1.44-.83-2.6-2.85-2.6-4.5,0-1.66,1.16-2.33,2.6-1.5,1.44.83,2.6,2.85,2.6,4.5Z"/><path class="cls-38" d="m175.22,172.84c0,1.41-.99,1.98-2.21,1.28-1.22-.71-2.21-2.42-2.21-3.83s.99-1.98,2.21-1.28c1.22.71,2.21,2.42,2.21,3.83Z"/><path class="cls-38" d="m174.62,172.49c0,1.03-.72,1.44-1.61.93-.89-.52-1.61-1.77-1.61-2.8s.72-1.45,1.61-.93c.89.51,1.61,1.76,1.61,2.8Z"/><path class="cls-38" d="m174.16,172.23c0,.73-.51,1.03-1.15.66-.64-.37-1.15-1.26-1.15-1.99s.51-1.03,1.15-.66c.64.37,1.15,1.26,1.15,1.99Z"/><path class="cls-27" d="m298.45,170.77c58.66,33.87,58.66,88.79,0,122.66-58.66,33.87-153.77,33.87-212.44,0-58.66-33.87-58.66-88.79,0-122.66,58.67-33.87,153.78-33.87,212.44,0Z"/><path class="cls-25" d="m298.45,170.77c-58.66-33.87-153.77-33.87-212.44,0-58.66,33.87-58.66,88.79,0,122.66,58.66,33.87,153.77,33.87,212.44,0,58.66-33.87,58.66-88.79,0-122.66Zm-1.11,122.01c-58.05,33.52-152.16,33.52-210.21,0-58.05-33.52-58.05-87.86,0-121.37,58.05-33.51,152.16-33.51,210.21,0,58.05,33.51,58.05,87.86,0,121.37Z"/><g class="cls-28"><path class="cls-24" d="m282.62,96.75c49.92,28.82,49.92,75.56,0,104.38-49.93,28.82-130.86,28.82-180.79,0-49.92-28.82-49.92-75.56,0-104.38,49.92-28.82,130.86-28.82,180.79,0Z"/><path class="cls-26" d="m282.62,96.75c-49.93-28.82-130.86-28.82-180.79,0-49.92,28.82-49.92,75.56,0,104.38,49.92,28.82,130.86,28.82,180.79,0,49.92-28.82,49.92-75.56,0-104.38Zm-.95,103.83c-49.4,28.52-129.49,28.52-178.89,0-49.4-28.52-49.4-74.76,0-103.29,49.4-28.52,129.49-28.52,178.89,0,49.4,28.52,49.4,74.76,0,103.29Z"/></g><path class="cls-40" d="m176.86,248.4v50.59c-23.82-2.1-46.73-8.45-65.09-19.04-9.01-5.2-16.25-11.04-21.7-17.26v-50.6c5.45,6.22,12.69,12.07,21.7,17.27,18.35,10.6,41.27,16.95,65.09,19.04Z"/><path class="cls-40" d="m302.53,208.04v38.92c-5.71,7.75-14.03,15-24.97,21.32-6.05,3.5-12.6,6.53-19.53,9.1v-38.92c6.91-2.56,13.47-5.6,19.53-9.09,10.94-6.32,19.26-13.58,24.97-21.32Z"/><path class="cls-40" d="m117,237.53c-2.62-1.28-5.16-2.62-7.61-4.03-5.39-3.11-10.25-6.49-14.54-10.11v37.46c5.08,5.47,11.56,10.5,19.31,14.96.93.54,1.88,1.06,2.84,1.58v-39.87Z"/><path class="cls-39" d="m120.16,83.31v36.64c-6.31,2.53-12.32,5.42-17.95,8.67-13.92,8.04-24.04,17.43-30.36,27.44v-36.64c6.32-10.02,16.44-19.41,30.36-27.45,5.63-3.25,11.65-6.14,17.95-8.66Z"/><path class="cls-39" d="m320.8,125.43v36.64c-5.77-12.25-17-23.83-33.68-33.45-3.95-2.28-8.1-4.38-12.4-6.32v-36.65c4.3,1.93,8.44,4.03,12.4,6.32,16.68,9.63,27.9,21.2,33.68,33.46Z"/><path class="cls-8" d="m16.97,292.16c0,5.41-3.8,11.99-8.48,14.7C3.8,309.56,0,307.37,0,301.96s3.8-11.99,8.49-14.7c4.69-2.71,8.48-.51,8.48,4.9Z"/><path class="cls-10" d="m16.97,261.03c0,5.41-3.8,11.99-8.49,14.7C3.8,278.43,0,276.24,0,270.83s3.8-11.99,8.48-14.7c4.69-2.7,8.49-.51,8.49,4.9Z"/><path class="cls-9" d="m16.97,229.9c0,5.41-3.8,11.99-8.49,14.7C3.8,247.31,0,245.11,0,239.7s3.8-11.99,8.48-14.7c4.69-2.71,8.49-.51,8.49,4.9Z"/><path class="cls-1" d="m16.97,198.78c0,5.41-3.8,11.99-8.48,14.7C3.8,216.18,0,213.99,0,208.57s3.8-11.99,8.48-14.7c4.69-2.71,8.48-.51,8.48,4.9Z"/><path class="cls-7" d="m16.97,167.65c0,5.41-3.8,11.99-8.48,14.7-4.69,2.7-8.49.51-8.49-4.9s3.8-11.99,8.49-14.7c4.69-2.71,8.48-.51,8.48,4.9Z"/><polygon class="cls-8" points="372.36 177.33 366.41 178.92 366.41 181.8 372.36 180.2 378.3 188.66 378.3 185.79 372.36 177.33"/><polygon class="cls-10" points="372.36 189.85 366.41 191.45 366.41 194.32 372.36 192.72 378.3 201.19 378.3 198.31 372.36 189.85"/><polygon class="cls-9" points="372.36 202.37 366.41 203.97 366.41 206.84 372.36 205.25 378.3 213.71 378.3 210.84 372.36 202.37"/><polygon class="cls-1" points="372.36 214.89 366.41 216.49 366.41 219.37 372.36 217.77 378.3 226.23 378.3 223.36 372.36 214.89"/><polygon class="cls-7" points="372.36 227.42 366.41 229.02 366.41 231.89 372.36 230.29 378.3 238.76 378.3 235.88 372.36 227.42"/></g></g></g></svg>