<svg width="48" height="49" viewBox="0 0 48 49" fill="none" xmlns="http://www.w3.org/2000/svg">
<rect y="0.204102" width="48" height="48" rx="24" fill="#374836"/>
<path d="M31.3846 16.2041H16.6154C16.2757 16.2041 16 16.4798 16 16.8195C16 17.1592 16.2757 17.4349 16.6154 17.4349H29.8988L16.1803 31.1536C15.94 31.3939 15.94 31.7835 16.1803 32.0238C16.3006 32.1441 16.4578 32.2041 16.6154 32.2041C16.7729 32.2041 16.9305 32.1441 17.0505 32.0238L30.7692 18.305V31.5887C30.7692 31.9284 31.0449 32.2041 31.3846 32.2041C31.7243 32.2041 32 31.9284 32 31.5887V16.8195C32 16.4798 31.7243 16.2041 31.3846 16.2041Z" fill="#E1ECE3"/>
</svg>
