<svg width="189" height="65" viewBox="0 0 189 65" fill="none" xmlns="http://www.w3.org/2000/svg">
<rect x="125" y="0.108398" width="64" height="64" rx="32" fill="#F9FBF3"/>
<path d="M164.385 24.1084H149.615C149.276 24.1084 149 24.3841 149 24.7238C149 25.0635 149.276 25.3392 149.615 25.3392H162.899L149.18 39.0579C148.94 39.2982 148.94 39.6878 149.18 39.9281C149.301 40.0484 149.458 40.1084 149.615 40.1084C149.773 40.1084 149.93 40.0484 150.05 39.9281L163.769 26.2093V39.493C163.769 39.8327 164.045 40.1084 164.385 40.1084C164.724 40.1084 165 39.8327 165 39.493V24.7238C165 24.3841 164.724 24.1084 164.385 24.1084Z" fill="#374836"/>
</svg>
