<svg width="64" height="461" viewBox="0 0 64 461" fill="none" xmlns="http://www.w3.org/2000/svg">
<rect y="0.102051" width="64" height="64" rx="32" fill="#F9FBF3"/>
<path d="M39.3846 24.1021H24.6154C24.2757 24.1021 24 24.3777 24 24.7174C24 25.0571 24.2757 25.3328 24.6154 25.3328H37.8988L24.1803 39.0516C23.94 39.2919 23.94 39.6814 24.1803 39.9217C24.3006 40.0421 24.4578 40.1021 24.6154 40.1021C24.7729 40.1021 24.9305 40.0421 25.0505 39.9217L38.7692 26.203V39.4867C38.7692 39.8264 39.0449 40.1021 39.3846 40.1021C39.7243 40.1021 40 39.8264 40 39.4867V24.7174C40 24.3777 39.7243 24.1021 39.3846 24.1021Z" fill="#374836"/>
</svg>
