<svg width="64" height="21" viewBox="0 0 64 21" fill="none" xmlns="http://www.w3.org/2000/svg">
<g clip-path="url(#clip0_29_2384)">
<path d="M17.0711 12.9831C15.9819 11.894 14.6855 11.0877 13.2711 10.5996C14.786 9.55619 15.7812 7.80998 15.7812 5.83545C15.7812 2.64768 13.1878 0.0541992 10 0.0541992C6.81223 0.0541992 4.21875 2.64768 4.21875 5.83545C4.21875 7.80998 5.21402 9.55619 6.72898 10.5996C5.31453 11.0877 4.01813 11.894 2.92895 12.9831C1.0402 14.8719 0 17.3831 0 20.0542H1.5625C1.5625 15.4017 5.34754 11.6167 10 11.6167C14.6525 11.6167 18.4375 15.4017 18.4375 20.0542H20C20 17.3831 18.9598 14.8719 17.0711 12.9831ZM10 10.0542C7.67379 10.0542 5.78125 8.1617 5.78125 5.83545C5.78125 3.5092 7.67379 1.6167 10 1.6167C12.3262 1.6167 14.2188 3.5092 14.2188 5.83545C14.2188 8.1617 12.3262 10.0542 10 10.0542Z" fill="#F9FBF3"/>
</g>
<g clip-path="url(#clip1_29_2384)">
<path d="M63.7556 18.6316L58.0682 12.9442C59.1699 11.5834 59.8332 9.8542 59.8332 7.97089C59.8332 3.60594 56.2815 0.0542908 51.9166 0.0542908C47.5516 0.0542908 44 3.6059 44 7.97085C44 12.3358 47.5516 15.8875 51.9166 15.8875C53.7999 15.8875 55.5291 15.2241 56.8899 14.1225L62.5773 19.8099C62.7398 19.9724 62.9531 20.0541 63.1665 20.0541C63.3798 20.0541 63.5932 19.9724 63.7557 19.8099C64.0815 19.4841 64.0815 18.9574 63.7556 18.6316ZM51.9166 14.2208C48.47 14.2208 45.6667 11.4175 45.6667 7.97085C45.6667 4.52421 48.47 1.72092 51.9166 1.72092C55.3632 1.72092 58.1665 4.52421 58.1665 7.97085C58.1665 11.4175 55.3632 14.2208 51.9166 14.2208Z" fill="#F9FBF3"/>
</g>
<defs>
<clipPath id="clip0_29_2384">
<rect width="20" height="20" fill="white" transform="translate(0 0.0541992)"/>
</clipPath>
<clipPath id="clip1_29_2384">
<rect width="20" height="20" fill="white" transform="translate(44 0.0541992)"/>
</clipPath>
</defs>
</svg>
