<svg width="371" height="49" viewBox="0 0 371 49" fill="none" xmlns="http://www.w3.org/2000/svg">
<path d="M11 9.10837C4.93447 9.10837 0 14.0797 0 20.1905C0 22.2022 0.895529 24.3659 0.933059 24.4571C1.22229 25.1488 1.793 26.2231 2.20453 26.8528L9.74665 38.3659C10.0553 38.8378 10.5121 39.1084 11 39.1084C11.4879 39.1084 11.9447 38.8378 12.2534 38.3665L19.7961 26.8528C20.2083 26.2231 20.7784 25.1488 21.0676 24.4571C21.1051 24.3665 22 22.2029 22 20.1905C22 14.0797 17.0655 9.10837 11 9.10837ZM19.8744 23.9513C19.6162 24.5712 19.085 25.5706 18.7155 26.1351L11.1728 37.6488C11.0239 37.8763 10.9767 37.8763 10.8279 37.6488L3.28512 26.1351C2.91565 25.5706 2.38441 24.5706 2.12624 23.9506C2.11523 23.9239 1.29412 21.9324 1.29412 20.1905C1.29412 14.7987 5.64818 10.4121 11 10.4121C16.3518 10.4121 20.7059 14.7987 20.7059 20.1905C20.7059 21.935 19.8828 23.9317 19.8744 23.9513Z" fill="#F9FBF3"/>
<path d="M11.0003 14.3241C7.78893 14.3241 5.17676 16.9565 5.17676 20.1912C5.17676 23.4258 7.78893 26.0582 11.0003 26.0582C14.2116 26.0582 16.8238 23.4258 16.8238 20.1912C16.8238 16.9565 14.2116 14.3241 11.0003 14.3241ZM11.0003 24.7544C8.50329 24.7544 6.47088 22.7075 6.47088 20.1912C6.47088 17.6749 8.50329 15.6279 11.0003 15.6279C13.4973 15.6279 15.5297 17.6749 15.5297 20.1912C15.5297 22.7075 13.4973 24.7544 11.0003 24.7544Z" fill="#F9FBF3"/>
<rect x="323" y="0.108368" width="48" height="48" rx="24" fill="#374836"/>
<path d="M354.385 16.1084H339.615C339.276 16.1084 339 16.3841 339 16.7238C339 17.0634 339.276 17.3391 339.615 17.3391H352.899L339.18 31.0579C338.94 31.2982 338.94 31.6878 339.18 31.9281C339.301 32.0484 339.458 32.1084 339.615 32.1084C339.773 32.1084 339.93 32.0484 340.05 31.9281L353.769 18.2093V31.493C353.769 31.8327 354.045 32.1084 354.385 32.1084C354.724 32.1084 355 31.8327 355 31.493V16.7238C355 16.3841 354.724 16.1084 354.385 16.1084Z" fill="#F9FBF3"/>
</svg>
