<?xml version="1.0" encoding="UTF-8"?><svg id="Layer_2" xmlns="http://www.w3.org/2000/svg" viewBox="0 0 1217.19 511.26"><defs><style>.cls-1{fill:#a2c523;}.cls-1,.cls-2,.cls-3{stroke-width:0px;}.cls-2,.cls-4{fill:#fff;}.cls-4{stroke:#fff;stroke-miterlimit:10;stroke-width:4px;}.cls-3{fill:#286655;}</style></defs><g id="Layer_1-2"><path class="cls-1" d="M161.22,390.75c5.95,3.76,13.54,6.06,20.69,3.27,10.11-3.96,15.07-16,17.68-26.6,4.65-2.03,8.82-5.49,11.77-9.78-3.2,1.06-6.01,3.29-9,4.98-11.31,6.38-24.34,4.74-36.26,2.93-11.93-1.81-24.99-3.39-36.25,3.09,5.49-2.4,11.06-4.83,16.81-5.78,5.79-.96,11.52-.4,17.21,0,11.53.82,24.02.76,34.5-5.85-5.61,1.74-10.07-3.14-14.25-6.58-11.62-9.55-30.7-8.9-43.97,1.49-7.87,6.17-13.73,15.22-22.43,19.88,7.85-.59,16.64-.59,23.45,2.88,7.92,4.03,12.67,11.42,20.04,16.08Z"/><path class="cls-1" d="M605.94,348.55c-.29-3.58.33-7.52,2.89-9.97,3.62-3.45,9.41-2.58,14.16-1.03,1.75-1.54,3.97-2.49,6.27-2.7-1.07,1.14-2.52,1.81-3.8,2.7-4.83,3.37-6.81,9.53-8.5,15.26-1.69,5.73-3.71,11.89-8.56,15.22,2.07-1.81,4.16-3.65,5.7-5.95,1.55-2.31,2.49-4.98,3.48-7.6,2-5.3,4.56-10.8,9.3-13.74-1.83,2.03-.79,5.24-.26,7.97,1.45,7.56-2.67,15.82-9.48,19.03-4.05,1.9-8.83,2.18-12.44,4.84,1.82-3.32,3.6-7.19,3.6-11.09,0-4.52-1.98-8.51-2.34-12.94Z"/><path class="cls-1" d="M661.9,305.72c-4.64,1.03-9.37,3.47-11.45,7.96-2.95,6.35.43,13.95,4.25,19.85-1.25,3.01-1.6,6.45-.96,9.7,1.02-1.93,1.3-4.19,1.93-6.3,2.36-7.98,9.37-13.17,15.94-17.79,6.57-4.62,13.56-9.86,15.86-17.85-1.48,3.56-2.98,7.17-5.28,10.21-2.31,3.06-5.32,5.42-8.23,7.82-5.9,4.88-11.85,10.59-13.7,18.28,1.85-3.32,6.31-3.18,9.96-3.56,10.12-1.05,18.93-10.01,20.31-20.65.82-6.32-.7-13,1.24-19.02-3.47,3.83-7.67,7.83-12.59,9.38-5.71,1.81-11.51.69-17.26,1.97Z"/><path class="cls-3" d="M139.43,197.71c20.96-.58,43.68,4.57,57.04,21.09,18.9,23.37,11.85,58.61,1.25,87.21,8.35,11.23,13.19,25.2,13.65,39.39-6.3-6.95-9.71-16.09-14.47-24.24-17.97-30.75-53.22-45.02-85.98-57.34-32.76-12.32-67.98-26.78-85.69-57.7,9.86,13.3,19.88,26.75,32.72,37,12.92,10.31,28.17,16.96,43.07,23.93,30.17,14.1,61.32,31.63,76.86,61.75-11.23-11.89-30.26-6.61-46.29-4.34-44.51,6.3-91.19-21.76-107.58-64.66-9.73-25.47-9.74-54.91-24-77.98,18.69,12.3,40.66,24.53,63.32,25.84,26.32,1.53,50.16-9.25,76.11-9.96Z"/><path class="cls-1" d="M194.61,125.21c-26.2,14.96-50.39,38.69-54.82,70.25-6.26,44.63,28,85.27,61.81,114.6-.79,7.84-.8,31.58,1.02,39.48,3.02,13.16,9.69,10.33,15.78,22.1,2.69-13.78-8.67-29.05-.89-42.61,26.65-46.45,28.86-98.4,60.19-139.02,31.33-40.62,64.14-85.87,63.47-139.43-2.47,24.72-5.01,49.77-13.36,72.75-8.4,23.12-22.33,43.23-35.59,63.47-26.86,40.99-52.43,87.19-49.66,138.1,5.17-23.92,32.41-31.3,53.78-40.36,59.31-25.15,96.33-96.71,85.33-164.92-6.53-40.49-27.91-78.87-27.13-119.62-14.05,30.05-32.19,62.45-59.09,81.14-31.26,21.72-68.4,25.55-100.84,44.07Z"/><path class="cls-4" d="M228.13,171.93h34.08v166.42h84.63v32.38h-118.71v-198.8Z"/><path class="cls-4" d="M471.23,302.85c0,2.56,0,7.67-.28,12.78h-100.54c2.56,11.93,16.47,27.26,37.77,27.26,23.57,0,36.92-13.63,36.92-13.63l17.04,25.56s-21.3,19.31-53.96,19.31c-40.9,0-72.42-31.24-72.42-70.72s28.68-70.71,67.59-70.71,67.88,28.68,67.88,70.15ZM437.15,290.92c-.57-11.64-11.36-27.26-33.8-27.26s-31.81,15.34-32.94,27.26h66.74Z"/><path class="cls-4" d="M600.16,282.97v87.75h-31.52v-17.04s-13.92,20.45-44.3,20.45c-25.28,0-48.56-16.47-48.56-45.16,0-25.84,23.57-44.59,52.82-44.59,24.71,0,37.49,9.66,37.49,9.66v-7.67c0-17.61-17.04-23.29-28.97-23.29-19.6,0-40.33,9.94-40.33,9.94l-11.08-28.12s24.99-12.21,53.11-12.21c38.62,0,61.34,19.6,61.34,50.27ZM566.08,330.11v-13.92s-12.21-6.82-30.67-6.82c-10.51,0-24.99,4.54-24.99,19.03s13.92,17.32,24.42,17.32c20.45,0,31.24-15.62,31.24-15.62Z"/><path class="cls-4" d="M713.48,207.43c0-16.47-10.79-24.14-22.15-24.14s-23.29,7.67-23.29,24.14v28.68h27.55v30.1h-27.55v104.51h-34.08v-104.51h-26.41v-30.1h26.41v-31.52c0-33.23,25.56-51.97,57.37-51.97s56.23,18.74,56.23,51.97v166.14h-34.08v-163.3Z"/><path class="cls-4" d="M793.85,170.22c12.5,0,22.44,9.94,22.44,22.44s-9.94,22.44-22.44,22.44-22.44-9.94-22.44-22.44,9.94-22.44,22.44-22.44ZM776.81,236.11h34.08v134.61h-34.08v-134.61Z"/><path class="cls-4" d="M957.72,283.54v87.19h-34.08v-78.67c0-19.31-11.93-27.55-26.7-27.55-17.61,0-26.7,17.32-26.7,17.32v88.89h-34.08v-134.61h31.81v19.6s11.93-23,40.33-23c26.13,0,49.42,18.46,49.42,50.84Z"/><path class="cls-4" d="M1103.97,302.85c0,2.56,0,7.67-.28,12.78h-100.54c2.56,11.93,16.47,27.26,37.77,27.26,23.57,0,36.92-13.63,36.92-13.63l17.04,25.56s-21.3,19.31-53.96,19.31c-40.9,0-72.42-31.24-72.42-70.72s28.68-70.71,67.59-70.71,67.88,28.68,67.88,70.15ZM1069.89,290.92c-.57-11.64-11.36-27.26-33.79-27.26s-31.81,15.34-32.94,27.26h66.74Z"/><path class="cls-2" d="M129.41,472.76c0-6.94.75-12.77,2.26-17.49,1.51-4.72,3.66-8.53,6.45-11.43s6.15-4.97,10.08-6.22c3.93-1.25,8.33-1.88,13.2-1.88,3.28,0,6.22.17,8.81.51,2.59.34,4.82.71,6.68,1.12,2.13.47,4.04,1,5.74,1.57v9.19c-1.83-.2-3.79-.37-5.89-.51-1.79-.13-3.84-.26-6.14-.38-2.3-.12-4.67-.18-7.11-.18-4.23,0-7.74.45-10.51,1.35-2.78.9-4.98,2.36-6.6,4.39s-2.77,4.68-3.43,7.95c-.66,3.27-.99,7.27-.99,12.01s.35,8.98,1.04,12.42c.69,3.44,1.84,6.25,3.43,8.46,1.59,2.2,3.69,3.82,6.3,4.85,2.61,1.03,5.82,1.55,9.65,1.55,1.66,0,3.17-.05,4.52-.15,1.35-.1,2.5-.24,3.45-.41,1.12-.17,2.1-.37,2.95-.61v-18.64h-13.2v-11.12h25.29v37.12c-2,.95-4.18,1.79-6.55,2.54-2.03.64-4.43,1.22-7.19,1.73-2.76.51-5.75.76-8.96.76-5.25,0-9.93-.59-14.04-1.78s-7.59-3.25-10.44-6.2-5.02-6.89-6.53-11.83c-1.51-4.94-2.26-11.17-2.26-18.69Z"/><path class="cls-2" d="M215.3,437.22h16.15l23.71,72.46h-13.46l-6.09-19.65h-24.68l-5.84,19.65h-13.3l23.51-72.46ZM232.27,479.11l-8.94-30.67h-.2l-8.94,30.67h18.08Z"/><path class="cls-2" d="M264.08,437.22h26.96c1.93,0,3.82.13,5.66.38,1.84.25,3.59.7,5.23,1.35,1.64.64,3.14,1.52,4.49,2.62,1.35,1.1,2.53,2.51,3.53,4.24,1,1.73,1.77,3.79,2.31,6.2.54,2.4.81,5.23.81,8.48,0,2.17-.18,4.11-.53,5.81-.36,1.71-.83,3.22-1.42,4.54-.59,1.32-1.27,2.47-2.03,3.45-.76.98-1.53,1.83-2.31,2.54-1.86,1.62-3.96,2.76-6.3,3.4v.1l15.29,29.35h-13.91l-13.56-26.61h-12.04v26.61h-12.19v-72.46ZM290.94,471.6c6.36,0,9.55-3.94,9.55-11.83,0-2.06-.23-3.82-.69-5.26-.46-1.44-1.12-2.6-1.98-3.48-.86-.88-1.9-1.51-3.12-1.9-1.22-.39-2.57-.58-4.06-.58h-14.37v23.05h14.68Z"/><path class="cls-2" d="M328.29,437.22h26c2.67,0,5.24.19,7.69.56,2.45.37,4.73,1.03,6.83,1.98,2.1.95,4.01,2.27,5.74,3.96,1.73,1.69,3.2,3.86,4.42,6.5s2.16,5.82,2.82,9.55c.66,3.72.99,8.09.99,13.1s-.3,9.69-.91,13.53c-.61,3.84-1.49,7.13-2.64,9.85-1.15,2.73-2.56,4.96-4.21,6.7-1.66,1.74-3.55,3.12-5.66,4.11-2.12,1-4.44,1.68-6.96,2.06-2.52.37-5.22.56-8.1.56h-26v-72.46ZM350.99,498.36c1.73,0,3.4-.04,5.03-.13,1.62-.08,3.14-.38,4.54-.89,1.4-.51,2.69-1.28,3.86-2.31,1.17-1.03,2.17-2.5,3-4.39.83-1.9,1.47-4.29,1.93-7.19s.69-6.46.69-10.69c0-3.93-.22-7.25-.66-9.98-.44-2.72-1.07-4.98-1.88-6.78-.81-1.79-1.79-3.19-2.92-4.19-1.13-1-2.41-1.74-3.83-2.23-1.42-.49-2.95-.79-4.6-.89-1.64-.1-3.36-.15-5.15-.15h-10.51v49.82h10.51Z"/><path class="cls-2" d="M396.83,437.22h43.57v11.32h-31.38v19.04h26.3v11.12h-26.3v19.65h32.25v11.32h-44.43v-72.46Z"/><path class="cls-2" d="M454.13,437.22h20.21l26.41,61.14h.25c-.03-1.22-.07-2.45-.1-3.71-.03-1.08-.05-2.25-.05-3.5v-53.93h12.09v72.46h-19.78l-22.37-50.98c-.61-1.42-1.19-2.74-1.73-3.96-.54-1.22-1-2.29-1.37-3.2-.47-1.08-.9-2.08-1.27-3h-.2v61.14h-12.09v-72.46Z"/><path class="cls-2" d="M555.29,437.22h26c2.67,0,5.24.19,7.69.56,2.45.37,4.73,1.03,6.83,1.98,2.1.95,4.01,2.27,5.74,3.96,1.73,1.69,3.2,3.86,4.42,6.5s2.16,5.82,2.82,9.55c.66,3.72.99,8.09.99,13.1s-.3,9.69-.91,13.53c-.61,3.84-1.49,7.13-2.64,9.85-1.15,2.73-2.56,4.96-4.21,6.7-1.66,1.74-3.55,3.12-5.66,4.11-2.12,1-4.44,1.68-6.96,2.06-2.52.37-5.22.56-8.1.56h-26v-72.46ZM577.99,498.36c1.73,0,3.4-.04,5.03-.13,1.62-.08,3.14-.38,4.54-.89,1.4-.51,2.69-1.28,3.86-2.31,1.17-1.03,2.17-2.5,3-4.39.83-1.9,1.47-4.29,1.93-7.19s.69-6.46.69-10.69c0-3.93-.22-7.25-.66-9.98-.44-2.72-1.07-4.98-1.88-6.78-.81-1.79-1.79-3.19-2.92-4.19-1.13-1-2.41-1.74-3.83-2.23-1.42-.49-2.95-.79-4.6-.89-1.64-.1-3.36-.15-5.15-.15h-10.51v49.82h10.51Z"/><path class="cls-2" d="M623.82,437.22h43.57v11.32h-31.38v19.04h26.3v11.12h-26.3v19.65h32.25v11.32h-44.43v-72.46Z"/><path class="cls-2" d="M677.98,498.87c1.73.24,3.59.44,5.59.61,1.73.17,3.7.3,5.92.41,2.22.1,4.56.15,7.03.15,3.28,0,5.89-.21,7.82-.63,1.93-.42,3.4-1.05,4.42-1.88,1.02-.83,1.67-1.85,1.96-3.07.29-1.22.43-2.62.43-4.21,0-1.25-.06-2.39-.18-3.43-.12-1.03-.4-1.96-.84-2.77-.44-.81-1.07-1.51-1.88-2.11-.81-.59-1.93-1.07-3.35-1.45l-14.78-3.86c-2.34-.61-4.32-1.43-5.94-2.46-1.62-1.03-2.94-2.34-3.94-3.94-1-1.59-1.73-3.51-2.18-5.76-.46-2.25-.69-4.9-.69-7.95,0-3.59.54-6.69,1.62-9.32,1.08-2.62,2.62-4.78,4.6-6.47,1.98-1.69,4.38-2.95,7.19-3.76,2.81-.81,5.94-1.22,9.39-1.22,2.88,0,5.51.16,7.9.48,2.39.32,4.44.67,6.17,1.04,2.03.44,3.88.93,5.54,1.47v9.39c-1.52-.2-3.13-.39-4.82-.56-1.46-.17-3.09-.31-4.9-.43-1.81-.12-3.68-.18-5.61-.18-3.01,0-5.48.1-7.41.3s-3.45.63-4.57,1.27c-1.12.64-1.9,1.56-2.34,2.74-.44,1.19-.66,2.76-.66,4.72,0,1.08.06,2.05.18,2.89.12.85.39,1.59.81,2.23.42.64,1.03,1.2,1.83,1.68.8.47,1.87.91,3.23,1.32l13.78,3.96c1.76.51,3.33,1.04,4.7,1.6,1.37.56,2.57,1.22,3.59,1.98,1.02.76,1.89,1.65,2.62,2.67.73,1.02,1.31,2.23,1.75,3.63.44,1.41.76,3.06.97,4.95.2,1.9.31,4.08.31,6.55,0,3.86-.33,7.17-.99,9.93-.66,2.76-1.91,5.01-3.74,6.75-1.83,1.74-4.35,3.03-7.55,3.86-3.2.83-7.35,1.24-12.43,1.24-3.93,0-7.19-.18-9.79-.53s-4.7-.75-6.33-1.19c-1.86-.51-3.34-1.08-4.42-1.73v-8.94Z"/><path class="cls-2" d="M736.46,437.22h12.19v72.46h-12.19v-72.46Z"/><path class="cls-2" d="M762.69,472.76c0-6.94.75-12.77,2.26-17.49,1.51-4.72,3.66-8.53,6.45-11.43s6.15-4.97,10.08-6.22c3.93-1.25,8.33-1.88,13.2-1.88,3.28,0,6.22.17,8.81.51,2.59.34,4.82.71,6.68,1.12,2.13.47,4.04,1,5.74,1.57v9.19c-1.83-.2-3.79-.37-5.89-.51-1.79-.13-3.84-.26-6.14-.38-2.3-.12-4.67-.18-7.11-.18-4.23,0-7.74.45-10.51,1.35-2.78.9-4.98,2.36-6.6,4.39s-2.77,4.68-3.43,7.95c-.66,3.27-.99,7.27-.99,12.01s.35,8.98,1.04,12.42c.69,3.44,1.84,6.25,3.43,8.46,1.59,2.2,3.69,3.82,6.3,4.85,2.61,1.03,5.82,1.55,9.65,1.55,1.66,0,3.17-.05,4.52-.15,1.35-.1,2.5-.24,3.45-.41,1.12-.17,2.1-.37,2.95-.61v-18.64h-13.2v-11.12h25.29v37.12c-2,.95-4.18,1.79-6.55,2.54-2.03.64-4.43,1.22-7.19,1.73-2.76.51-5.75.76-8.96.76-5.25,0-9.93-.59-14.04-1.78s-7.59-3.25-10.44-6.2-5.02-6.89-6.53-11.83c-1.51-4.94-2.26-11.17-2.26-18.69Z"/><path class="cls-2" d="M833.6,437.22h20.21l26.41,61.14h.25c-.03-1.22-.07-2.45-.1-3.71-.03-1.08-.05-2.25-.05-3.5v-53.93h12.09v72.46h-19.78l-22.37-50.98c-.61-1.42-1.19-2.74-1.73-3.96-.54-1.22-1-2.29-1.37-3.2-.47-1.08-.9-2.08-1.27-3h-.2v61.14h-12.09v-72.46Z"/><path class="cls-2" d="M934.76,437.22h12.19v61.14h29.96v11.32h-42.15v-72.46Z"/><path class="cls-2" d="M987.35,437.22h12.19v61.14h29.96v11.32h-42.15v-72.46Z"/><path class="cls-2" d="M1064.81,510.95c-2.34,0-4.66-.22-6.98-.66-2.32-.44-4.52-1.2-6.6-2.29-2.08-1.08-4.02-2.55-5.81-4.39-1.79-1.84-3.35-4.18-4.67-7.01-1.32-2.83-2.35-6.19-3.1-10.08-.75-3.89-1.12-8.45-1.12-13.66s.42-9.4,1.27-13.18c.85-3.77,1.98-7.03,3.4-9.78s3.08-5,4.98-6.78c1.9-1.78,3.89-3.19,5.99-4.24,2.1-1.05,4.23-1.79,6.4-2.21,2.17-.42,4.25-.63,6.25-.63,3.38,0,6.33.17,8.84.51,2.5.34,4.6.71,6.3,1.12,1.96.47,3.64,1.02,5.03,1.62v8.73c-1.39-.1-2.88-.2-4.47-.3-1.35-.07-2.9-.14-4.65-.23-1.74-.08-3.56-.13-5.46-.13-1.73,0-3.45.07-5.15.2-1.71.14-3.35.48-4.93,1.04s-3.04,1.38-4.39,2.46c-1.35,1.08-2.53,2.56-3.53,4.44-1,1.88-1.78,4.22-2.34,7.03-.56,2.81-.84,6.21-.84,10.2,0,4.19.29,7.78.86,10.75.58,2.98,1.37,5.46,2.39,7.46s2.2,3.57,3.55,4.72c1.35,1.15,2.83,2.02,4.42,2.61,1.59.59,3.25.96,4.98,1.12s3.45.23,5.18.23c2.23,0,4.27-.03,6.09-.1,1.83-.07,3.38-.13,4.67-.2,1.52-.1,2.89-.2,4.11-.3v8.77c-1.49.61-3.25,1.14-5.28,1.58-1.76.41-3.92.77-6.47,1.1-2.56.32-5.53.48-8.91.48Z"/><path class="cls-1" d="M293.54,408.95c-3.96-2.38-7.59-6-8.2-10.57-.86-6.47,4.45-12.02,9.66-15.95-.28-3.02.41-6.13,1.93-8.75.38,2-.02,4.06-.06,6.11-.15,7.7,4.78,14.45,9.47,20.56,4.69,6.11,9.59,12.9,9.37,20.59-.32-3.58-.66-7.2-1.88-10.58-1.23-3.4-3.31-6.41-5.29-9.43-4-6.12-7.8-12.99-7.27-20.28.74,3.48,4.87,4.78,8.11,6.26,8.98,4.12,14.47,14.73,12.65,24.45-1.08,5.77-4.42,11.1-4.39,16.97-2.08-4.44-4.77-9.26-8.83-12.17-4.72-3.39-10.37-4.26-15.27-7.2Z"/><path class="cls-1" d="M313.8,310.17c-3.64,3.72-6.53,8.76-5.78,14.08,1.06,7.52,8.64,12.39,15.61,15.44.63,3.48,2.35,6.8,4.85,9.36-.2-2.36-1.28-4.58-1.96-6.87-2.55-8.64.8-17.56,4.08-25.68,3.28-8.12,6.59-17.07,3.97-25.69.75,4.12,1.51,8.29,1.2,12.42-.31,4.15-1.67,8.1-2.92,12.03-2.52,7.96-4.59,16.7-1.75,24.79-.27-4.12,3.9-6.67,7.01-9.2,8.64-7.02,11.42-20.43,6.39-30.9-2.98-6.22-8.32-11.36-10.11-17.98-.92,5.56-2.4,11.7-5.98,16.06-4.16,5.07-10.13,7.53-14.63,12.14Z"/><path class="cls-1" d="M434.69,412.73c-1.8-6.78-1.92-14.58,2.26-20.21,5.92-7.96,17.58-8.39,27.43-7.15,2.9-3.59,6.94-6.24,11.38-7.49-1.71,2.59-4.33,4.41-6.54,6.59-8.32,8.23-10.11,20.81-11.47,32.44-1.37,11.62-3.22,24.21-11.61,32.37,3.44-4.24,6.91-8.54,9.16-13.52,2.26-5,3.18-10.49,4.23-15.88,2.13-10.92,5.26-22.42,13.57-29.81-2.89,4.58.24,10.37,2.2,15.41,5.42,14.01.16,31.38-12.12,40.04-7.29,5.14-16.58,7.42-22.76,13.84,2.44-7.04,4.61-15.14,3.28-22.62-1.55-8.69-6.78-15.62-9.01-24.02Z"/><path class="cls-1" d="M475.46,344.79c1.64,3.67,2.38,8.11.36,11.81-2.85,5.23-9.75,6.81-15.71,7.23-1.42,2.38-3.6,4.36-6.14,5.58.8-1.68,2.2-3.01,3.33-4.51,4.25-5.66,4.25-13.05,4.08-19.85s-.13-14.21,4.17-19.83c-1.69,2.82-3.39,5.67-4.3,8.77-.92,3.12-1.01,6.36-1.18,9.56-.34,6.48-1.23,13.42-5.55,18.59,1.33-2.95-1.02-5.9-2.61-8.56-4.41-7.39-2.75-17.92,3.82-24.27,3.9-3.77,9.24-6.14,12.37-10.52-.86,4.3-1.46,9.18-.04,13.3,1.66,4.79,5.36,8.15,7.39,12.7Z"/><path class="cls-1" d="M327.17,342.25c-39.3,21.09-32.11,19.78-59.56,31.78-8.47,3.7-24.22,8.52-32,4.67-11.07-5.48-12.67-8.56-16.22-18.11-5.29-14.21-3.52-28.19-3.52-28.19l-14.53,4.6s-1.17,38.42,18.61,50.88c12.74,8.03,31.57,6.71,41.37,4.62,27.3-8.13,52.19-23.98,80.53-40.31,5.04-2.91,27.56-10.3,44.26-12.86,17.85-2.74,26.31,1.18,27.46,1.29,1.08.1,11.81-1.31,19.94-5.92,0,0-11.33-9.67-29.56-10.78-1.17-.07-16.85-1.29-34,2.86-18.22,4.4-37.81,12.81-42.78,15.47Z"/><path class="cls-1" d="M560.34,333.56c3.51-3.07,3.75-4.06,3.75-4.06v-12.07c-11.55,3.44-25.61,13.52-38.08,22.35-16.99,12.04-34.1,24.91-43.73,26.39-17.85,2.74-28.13-2.53-29.28-2.64,0,0-8.55,5.16-16.27,7.57,0,0,9.5,6.76,28.17,9.21,1.76.23,10.13,1.76,27.28-2.39,9.43-2.28,27.28-13.29,40.67-24.33,8.49-7.01,16.03-11.87,21.37-15.41.86-.57,2.96-1.85,6.13-4.62Z"/><path class="cls-1" d="M631.92,324.18c-10.52-9.63-29.89-9.41-29.89-9.41v14.93c12.43,0,22.26,3.89,29.89,12.41v-17.93Z"/><path class="cls-1" d="M696.22,399.14c48.45,17.79,362.25,3.66,397.14,5.81,0,0,9.39-.13,18.25,2.67l.34-6.62s-6.14-2.85-23.39-3.31c-3.67-.1-316.61,7.56-380.31-8.44-27.11-6.07-38.23-30.45-38.23-30.45l-.18,13.95-8.39-.05s10.65,17.59,34.76,26.44Z"/><path class="cls-1" d="M1181.63,407.3c-3.84-10.47-10.93-20.65-21.96-23.95-15.59-4.66-35.3,6.7-47.73,17.65-4.85-1.64-9.53-2.95-23.39-3.31l.69,6.99c11.41-.17,18.69,1.78,21.15,2.57,1.56.5,28.78,8.11,43.3,27.35,11.27,14.93,27,28.21,46.18,30.78-8.69-2.21-17.5-4.47-25.23-8.76-7.78-4.32-14.17-10.52-20.64-16.48-13.11-12.08-28.15-23.95-46.5-25.61,8.25,3.17,9.32,13.62,11.33,21.99,5.58,23.24,29.03,40.68,54.03,40.2,14.85-.29,29.79-6.17,44.31-3.74-9.93-6.77-20.47-15.18-25.6-26.1-5.97-12.69-5.2-26.62-9.95-39.58Z"/></g></svg>